<svg width="213" height="45" viewBox="0 0 213 45" fill="none" xmlns="http://www.w3.org/2000/svg">
<g clip-path="url(#clip0_1_7)">
<path d="M11.8929 30.4744L16.7431 30.5517C19.598 30.5517 21.759 29.9085 23.2259 28.6223C24.472 27.5247 25.095 26.1442 25.095 24.4808C25.095 23.2117 24.6691 22.1055 23.8174 21.1623C22.4293 19.6189 20.0791 18.8472 16.7668 18.8472L14.3535 18.8729L11.8929 18.8986V30.4744ZM11.8929 4.62176V15.2201H13.0049V15.2458H14.2825L16.3883 15.2973C18.5176 15.2973 20.1107 14.9714 21.1675 14.3198C22.6344 13.4451 23.3678 11.8931 23.3678 9.66369C23.3678 7.62289 22.5871 6.20808 21.0255 5.41921C19.9056 4.83613 18.21 4.54459 15.9387 4.54459L11.8929 4.62176ZM23.5808 16.6863L25.4972 17.3552C27.5004 18.0583 29.0382 19.053 30.1108 20.3392C31.1676 21.6254 31.696 23.1174 31.696 24.8152C31.696 27.8677 30.6944 30.2344 28.6913 31.915C26.6881 33.5957 23.8568 34.436 20.1974 34.436L0.394304 33.9729L0.346985 29.9343C1.49842 30.1744 2.68929 30.2944 3.91959 30.2944H4.86598V6.65396L10.8519 4.7761L4.795 4.75038L3.91959 4.80183C2.68929 4.80183 1.49842 4.92187 0.346985 5.16197L0.394304 1.12329L17.5239 0.660248C21.9404 0.660248 25.024 1.63777 26.7748 3.5928C27.9893 4.93045 28.5966 6.83402 28.5966 9.30353C28.5966 11.9102 27.4925 13.9768 25.2843 15.503L23.5808 16.6863ZM42.4138 33.9215C39.3539 33.8529 37.1457 32.378 35.7891 29.497C34.7481 27.319 34.2276 24.4036 34.2276 20.7508C34.2276 17.0979 34.756 14.1911 35.8128 12.0303C37.1851 9.16634 39.4249 7.71722 42.5321 7.68293L51.6883 9.76659L53.5336 7.76008L58.9283 7.65719V30.3716H59.9928C60.6237 30.3716 61.4439 30.2686 62.4534 30.0629L62.4064 33.7671L55.4264 33.6643L53.5811 30.1915H53.5574L52.4217 28.0307V12.7506L46.223 11.6187H46.1521C43.9123 11.6187 42.3429 12.6477 41.4438 14.7056C40.8286 16.129 40.521 18.1441 40.521 20.7508C40.521 24.3693 41.1362 26.9931 42.3665 28.6223C43.3129 29.8571 44.5748 30.4744 46.1521 30.4744H46.2704L51.6883 29.4198L42.4138 33.9215ZM91.0817 35.9794C91.0817 39.2549 89.6386 41.6302 86.752 43.105C84.5595 44.2197 81.6103 44.7771 77.9035 44.7771C74.4334 44.7771 71.2863 44.2625 68.4633 43.2336C65.7973 42.2561 64.4173 41.21 64.3229 40.0953L68.0848 34.7447L68.1317 35.9537C68.1479 37.7372 69.5041 39.2464 72.2014 40.4811C74.7251 41.6473 77.5956 42.2304 80.8133 42.2304C82.3275 42.2304 83.6999 41.8703 84.9304 41.15C86.2392 40.3954 86.8939 39.4951 86.8939 38.4489C86.8939 37.0427 86.0499 35.9451 84.3626 35.1562C82.6748 34.3674 80.3323 33.9729 77.3356 33.9729C76.0894 33.9729 74.5596 33.9387 72.7455 33.8701C71.2944 33.8186 70.1981 33.7929 69.4566 33.7929H69.4329C69.1649 33.7929 68.9363 33.7757 68.747 33.7414C68.321 33.69 68.053 33.6471 67.9424 33.6128C67.3907 33.4413 66.8936 33.1927 66.4519 32.8668C66.3888 32.8325 66.2864 32.7382 66.1445 32.5838C65.5136 31.9836 65.1982 31.332 65.1982 30.6288C65.1982 30.1658 65.2688 29.617 65.4112 28.9825L69.9775 24.3007C69.6621 25.0552 69.5041 25.7498 69.5041 26.3843C69.5041 27.1389 69.709 27.7735 70.1194 28.2879C70.7503 29.0768 71.8072 29.4712 73.2896 29.4712C74.5833 29.4712 76.6416 29.154 79.4651 28.5195C81.8465 27.9707 83.503 27.6963 84.4333 27.6963C86.7046 27.6963 88.3768 28.3737 89.4494 29.7285C90.5376 31.0661 91.0817 33.1497 91.0817 35.9794ZM76.0813 11.31C77.6587 11.31 78.8811 11.7473 79.7488 12.622C80.6008 13.4794 81.0263 14.6884 81.0263 16.2491C81.0263 17.964 80.6008 19.293 79.7488 20.2363C78.8811 21.1795 77.6587 21.6511 76.0813 21.6511C74.3778 21.6511 73.0529 21.1795 72.1065 20.2363C71.1763 19.293 70.7109 17.964 70.7109 16.2491C70.7109 14.6713 71.1682 13.4537 72.0828 12.5962C73.0135 11.7387 74.3466 11.31 76.0813 11.31ZM68.2973 22.7315L70.2612 23.6576L70.2849 23.6319L70.7346 23.7862C72.2645 24.2149 74.0467 24.4293 76.0813 24.4293C78.9049 24.4293 81.2156 23.9577 83.0139 23.0145C85.6164 21.6597 86.9176 19.4045 86.9176 16.2491C86.9176 14.9114 86.6496 13.6509 86.113 12.4676L86.0424 12.339V12.1846C86.0424 11.7902 86.2236 11.4387 86.5865 11.1299C86.9807 10.8041 87.4698 10.6412 88.0533 10.6412C88.4949 10.6412 89.0314 10.7441 89.6624 10.9499L90.4195 11.1814L90.632 7.83724L89.1415 7.52861C88.5736 7.42566 88.1557 7.37424 87.8877 7.37424C86.2317 7.37424 84.9935 8.00018 84.1733 9.25211L83.8417 9.74085L83.3925 9.43216C81.531 8.23171 79.0941 7.63145 76.0813 7.63145C72.5482 7.63145 69.7883 8.39464 67.8006 9.92091C65.8134 11.4472 64.8196 13.5566 64.8196 16.2491C64.8196 18.9587 65.821 21.008 67.8243 22.3971L68.2973 22.7315ZM133.362 30.4744L138.212 30.5517C141.067 30.5517 143.228 29.9085 144.695 28.6223C145.941 27.5247 146.564 26.1442 146.564 24.4808C146.564 23.2117 146.138 22.1055 145.286 21.1623C143.898 19.6189 141.548 18.8472 138.235 18.8472L135.822 18.8729L133.362 18.8986V30.4744ZM133.362 4.62176V15.2201H134.474V15.2458H135.751L137.857 15.2973C139.986 15.2973 141.579 14.9714 142.636 14.3198C144.103 13.4451 144.836 11.8931 144.836 9.66369C144.836 7.62289 144.056 6.20808 142.494 5.41921C141.374 4.83613 139.678 4.54459 137.407 4.54459L133.362 4.62176ZM145.049 16.6863L146.966 17.3552C148.969 18.0583 150.507 19.053 151.579 20.3392C152.636 21.6254 153.165 23.1174 153.165 24.8152C153.165 27.8677 152.163 30.2344 150.16 31.915C148.157 33.5957 145.326 34.436 141.666 34.436L121.863 33.9729L121.816 29.9343C122.967 30.1744 124.158 30.2944 125.388 30.2944H126.335V6.65396L132.32 4.7761L126.264 4.75038L125.388 4.80183C124.158 4.80183 122.967 4.92187 121.816 5.16197L121.863 1.12329L138.993 0.660248C143.409 0.660248 146.492 1.63777 148.243 3.5928C149.458 4.93045 150.065 6.83402 150.065 9.30353C150.065 11.9102 148.961 13.9768 146.753 15.503L145.049 16.6863ZM163.883 33.9215C160.823 33.8529 158.614 32.378 157.258 29.497C156.217 27.319 155.696 24.4036 155.696 20.7508C155.696 17.0979 156.225 14.1911 157.281 12.0303C158.654 9.16634 160.894 7.71722 164.001 7.68293L173.157 9.76659L175.003 7.76008L180.397 7.65719V30.3716H181.462C182.093 30.3716 182.913 30.2686 183.922 30.0629L183.875 33.7671L176.895 33.6643L175.05 30.1915H175.026L173.891 28.0307V12.7506L167.692 11.6187H167.621C165.381 11.6187 163.812 12.6477 162.913 14.7056C162.297 16.129 161.99 18.1441 161.99 20.7508C161.99 24.3693 162.605 26.9931 163.835 28.6223C164.782 29.8571 166.044 30.4744 167.621 30.4744H167.739L173.157 29.4198L163.883 33.9215ZM212.55 35.9794C212.55 39.2549 211.107 41.6302 208.221 43.105C206.029 44.2197 203.079 44.7771 199.372 44.7771C195.902 44.7771 192.755 44.2625 189.932 43.2336C187.266 42.2561 185.886 41.21 185.791 40.0953L189.553 34.7447L189.601 35.9537C189.616 37.7372 190.973 39.2464 193.67 40.4811C196.194 41.6473 199.065 42.2304 202.282 42.2304C203.797 42.2304 205.168 41.8703 206.399 41.15C207.708 40.3954 208.362 39.4951 208.362 38.4489C208.362 37.0427 207.519 35.9451 205.831 35.1562C204.143 34.3674 201.801 33.9729 198.804 33.9729C197.558 33.9729 196.028 33.9387 194.214 33.8701C192.763 33.8186 191.667 33.7929 190.926 33.7929H190.902C190.634 33.7929 190.405 33.7757 190.216 33.7414C189.79 33.69 189.521 33.6471 189.411 33.6128C188.859 33.4413 188.363 33.1927 187.92 32.8668C187.858 32.8325 187.755 32.7382 187.613 32.5838C186.982 31.9836 186.667 31.332 186.667 30.6288C186.667 30.1658 186.738 29.617 186.88 28.9825L191.446 24.3007C191.131 25.0552 190.973 25.7498 190.973 26.3843C190.973 27.1389 191.178 27.7735 191.588 28.2879C192.219 29.0768 193.276 29.4712 194.758 29.4712C196.052 29.4712 198.11 29.154 200.934 28.5195C203.315 27.9707 204.972 27.6963 205.902 27.6963C208.174 27.6963 209.845 28.3737 210.918 29.7285C212.006 31.0661 212.55 33.1497 212.55 35.9794ZM197.55 11.31C199.128 11.31 200.35 11.7473 201.217 12.622C202.069 13.4794 202.495 14.6884 202.495 16.2491C202.495 17.964 202.069 19.293 201.217 20.2363C200.35 21.1795 199.128 21.6511 197.55 21.6511C195.847 21.6511 194.522 21.1795 193.576 20.2363C192.645 19.293 192.179 17.964 192.179 16.2491C192.179 14.6713 192.637 13.4537 193.552 12.5962C194.482 11.7387 195.815 11.31 197.55 11.31ZM189.766 22.7315L191.73 23.6576L191.753 23.6319L192.203 23.7862C193.733 24.2149 195.515 24.4293 197.55 24.4293C200.373 24.4293 202.684 23.9577 204.482 23.0145C207.085 21.6597 208.386 19.4045 208.386 16.2491C208.386 14.9114 208.118 13.6509 207.582 12.4676L207.511 12.339V12.1846C207.511 11.7902 207.692 11.4387 208.055 11.1299C208.449 10.8041 208.938 10.6412 209.522 10.6412C209.963 10.6412 210.5 10.7441 211.131 10.9499L211.888 11.1814L212.101 7.83724L210.611 7.52861C210.043 7.42566 209.624 7.37424 209.356 7.37424C207.7 7.37424 206.462 8.00018 205.642 9.25211L205.311 9.74085L204.861 9.43216C203 8.23171 200.563 7.63145 197.55 7.63145C194.017 7.63145 191.257 8.39464 189.269 9.92091C187.282 11.4472 186.288 13.5566 186.288 16.2491C186.288 18.9587 187.29 21.008 189.293 22.3971L189.766 22.7315Z" fill="black"/>
<path d="M115.924 23.0916L119.308 23.4261L118.338 34.153C109.978 33.8615 104.702 33.7157 102.51 33.7157H100.309L93.779 33.9987L93.7079 28.0821L106.579 16.2233C107.951 15.0057 108.953 13.9682 109.583 13.1107C110.53 11.8416 111.003 10.6155 111.003 9.43217C111.003 7.9402 110.443 6.76542 109.324 5.90795C108.219 5.03335 106.713 4.59604 104.805 4.59604C102.849 4.59604 101.342 5.05049 100.286 5.95943C99.1969 6.86832 98.4792 8.32604 98.1324 10.3325H93.7553V0.505908L97.5172 0.45446L97.5409 0.634529C97.5409 0.651678 97.5409 0.66025 97.5409 0.66025V0.685977C97.5409 1.23476 97.7145 1.68921 98.0613 2.04936C98.4242 2.44379 98.8502 2.64101 99.3388 2.64101C99.5755 2.64101 99.8122 2.58956 100.049 2.48666C100.096 2.46951 100.096 2.46951 100.049 2.48666C101.91 1.44055 104.071 0.917496 106.531 0.917496C110.254 0.917496 113.077 1.62919 115.002 3.05259C116.942 4.45884 117.912 6.54251 117.912 9.30353C117.912 12.2018 115.948 15.1772 112.021 18.2298L96.973 30.0114H104.26C108.251 30.0114 110.901 29.7199 112.21 29.1368C114.245 28.2451 115.483 26.23 115.924 23.0916Z" fill="#9BB0FF"/>
</g>
<defs>
<clipPath id="clip0_1_7">
<rect width="213" height="45" fill="white"/>
</clipPath>
</defs>
</svg>
