<svg width="21" height="20" viewBox="0 0 21 20" fill="none" xmlns="http://www.w3.org/2000/svg">
<path d="M13.2592 11.3399L7.99737 19.2041L5.99806 19.1514L8.73382 11.2207L3.37568 11.0796L1.63127 14.0347L0.131786 13.9952L1.24992 9.52307L0.368747 4.9983L1.86823 5.03779L3.45566 8.08064L8.8138 8.22177L6.49831 0.158007L8.49762 0.210665L13.3382 8.34093L18.7833 8.48435C19.181 8.49482 19.5583 8.66285 19.8321 8.95146C20.1059 9.24007 20.2538 9.62563 20.2433 10.0233C20.2329 10.421 20.0648 10.7982 19.7762 11.072C19.4876 11.3458 19.102 11.4938 18.7044 11.4833L13.2592 11.3399Z" fill="#368F8B"/>
</svg>
