<svg width="30" height="30" viewBox="0 0 30 30" fill="none" xmlns="http://www.w3.org/2000/svg">
<path d="M30 9.16667V24.5833C30 26.0199 29.4293 27.3977 28.4135 28.4135C27.3977 29.4293 26.0199 30 24.5833 30H5.41667C3.98008 30 2.60233 29.4293 1.5865 28.4135C0.570683 27.3977 0 26.0199 0 24.5833V9.16667H30ZM18.325 12.825C17.2183 12.825 16.3394 13.1206 15.6883 13.7117C15.0372 14.3028 14.7117 15.1033 14.7117 16.1133C14.7117 16.6933 14.8594 17.21 15.155 17.6633C15.4517 18.1167 15.8544 18.4733 16.3633 18.7333C15.7888 18.9763 15.2968 19.3803 14.9467 19.8967C14.6095 20.4025 14.434 20.9988 14.4433 21.6067C14.4433 22.6433 14.7972 23.4678 15.505 24.08C16.2128 24.6933 17.1556 25 18.3333 25C19.5044 25 20.4433 24.6944 21.15 24.0833C21.8544 23.4733 22.2067 22.6478 22.2067 21.6067C22.2067 20.9778 22.04 20.4133 21.7067 19.9133C21.3496 19.3948 20.855 18.9861 20.2783 18.7333C20.7939 18.4733 21.2006 18.1167 21.4983 17.6633C21.7983 17.21 21.9478 16.6933 21.9467 16.1133C21.9467 15.1044 21.6211 14.3044 20.97 13.7133C20.3189 13.1211 19.4372 12.825 18.325 12.825ZM12.0333 12.9483H11.78L7.15833 14.6483V16.3167L10.0633 15.3233V24.8367H12.0333V12.9483ZM18.3167 19.5483C18.8922 19.5483 19.355 19.7283 19.705 20.0883C20.055 20.4494 20.23 20.9228 20.23 21.5083C20.23 22.1117 20.0633 22.5811 19.73 22.9167C19.3967 23.2533 18.9311 23.4217 18.3333 23.4217C17.7367 23.4217 17.2689 23.2478 16.93 22.9C16.59 22.5533 16.42 22.0894 16.42 21.5083C16.42 20.9172 16.5922 20.4428 16.9367 20.085C17.2811 19.7272 17.7411 19.5483 18.3167 19.5483ZM18.325 14.4133C18.8294 14.4133 19.2311 14.58 19.53 14.9133C19.8289 15.2467 19.9778 15.6711 19.9767 16.1867C19.9767 16.7289 19.8289 17.16 19.5333 17.48C19.2389 17.8 18.8389 17.96 18.3333 17.96C17.8278 17.96 17.4278 17.8 17.1333 17.48C16.8367 17.1611 16.6889 16.73 16.69 16.1867C16.69 15.6389 16.8361 15.2061 17.1283 14.8883C17.4217 14.5717 17.8206 14.4133 18.325 14.4133ZM24.5833 0C26.0199 0 27.3977 0.570683 28.4135 1.5865C29.4293 2.60233 30 3.98008 30 5.41667V6.66667H0V5.41667C0 3.98008 0.570683 2.60233 1.5865 1.5865C2.60233 0.570683 3.98008 0 5.41667 0H24.5833Z" fill="#525E87"/>
</svg>
