<svg width="21" height="20" viewBox="0 0 21 20" fill="none" xmlns="http://www.w3.org/2000/svg">
<path d="M3.5 5.125C3.5 4.69402 3.6712 4.2807 3.97595 3.97595C4.2807 3.6712 4.69402 3.5 5.125 3.5H11.625C12.056 3.5 12.4693 3.3288 12.774 3.02405C13.0788 2.7193 13.25 2.30598 13.25 1.875C13.25 1.44402 13.0788 1.0307 12.774 0.725952C12.4693 0.421205 12.056 0.25 11.625 0.25H5.125C3.83207 0.25 2.59209 0.763615 1.67785 1.67785C0.763615 2.59209 0.25 3.83207 0.25 5.125V14.875C0.25 16.1679 0.763615 17.4079 1.67785 18.3221C2.59209 19.2364 3.83207 19.75 5.125 19.75H11.625C12.056 19.75 12.4693 19.5788 12.774 19.274C13.0788 18.9693 13.25 18.556 13.25 18.125C13.25 17.694 13.0788 17.2807 12.774 16.976C12.4693 16.6712 12.056 16.5 11.625 16.5H5.125C4.69402 16.5 4.2807 16.3288 3.97595 16.024C3.6712 15.7193 3.5 15.306 3.5 14.875V5.125ZM16.0233 4.51833C15.7153 4.23129 15.3079 4.07503 14.8869 4.08245C14.4659 4.08988 14.0642 4.26042 13.7665 4.55815C13.4688 4.85588 13.2982 5.25755 13.2908 5.67853C13.2834 6.09952 13.4396 6.50695 13.7267 6.815L15.2867 8.375H8.375C7.94402 8.375 7.5307 8.5462 7.22595 8.85095C6.9212 9.1557 6.75 9.56902 6.75 10C6.75 10.431 6.9212 10.8443 7.22595 11.149C7.5307 11.4538 7.94402 11.625 8.375 11.625H15.2867L13.7267 13.185C13.4396 13.493 13.2834 13.9005 13.2908 14.3215C13.2982 14.7425 13.4688 15.1441 13.7665 15.4418C14.0642 15.7396 14.4659 15.9101 14.8869 15.9175C15.3079 15.925 15.7153 15.7687 16.0233 15.4817L20.3567 11.1483C20.661 10.8436 20.8319 10.4306 20.8319 10C20.8319 9.56937 20.661 9.15635 20.3567 8.85167L16.0233 4.51833Z" fill="#AABBF8"/>
</svg>
