<svg width="61" height="107" viewBox="0 0 61 107" fill="none" xmlns="http://www.w3.org/2000/svg">
<g clip-path="url(#clip0_103_3334)">
<path d="M8.85955 41.8381C12.3083 38.6779 15.7837 35.5479 19.2502 32.4079C21.3834 30.4857 23.5967 28.6842 25.5788 26.5606C26.121 25.9769 26.5299 25.1919 27.2321 24.8295L27.2232 24.8396C27.8009 24.2358 28.3432 23.5615 28.9743 23.028C31.3475 20.985 33.7029 18.6703 36.085 16.8587C36.1828 16.7882 36.245 16.597 36.3783 16.4863C37.0094 15.9428 39.2938 14.091 40.7071 12.8128C43.9781 9.87412 47.2757 6.99576 50.9645 4.69104C51.542 4.32872 59.133 -1.4683 60.342 0.353326C61.604 2.2454 55.044 8.89787 54.102 9.60237C51.809 11.3334 49.3289 12.8028 47.3912 15.0169C44.5558 18.2576 41.2137 20.7535 38.1205 23.6118C35.3384 26.1781 32.4319 28.5634 29.6675 31.1398C27.0721 33.5653 24.6811 36.3028 22.0056 38.6075C19.6946 40.6002 17.0814 42.14 14.6637 43.9818C14.0949 44.4145 13.6682 45.3203 13.0549 45.8034C12.5483 46.2059 11.7216 46.9105 11.1261 47.1822C10.8683 47.303 10.5928 47.4036 10.4328 47.6452C9.69505 48.7724 1.73097 54.9921 0.299928 52.7578C-1.09557 50.5839 5.86415 44.5856 8.85955 41.8381Z" fill="black"/>
<path d="M15.488 59.9845C17.7723 58.8573 20.0655 57.7601 22.3588 56.6731C23.7632 55.999 25.2209 55.4757 26.5453 54.5599C26.9097 54.3083 27.1852 53.8252 27.6474 53.8352H27.6385C28.0207 53.5836 28.3852 53.2615 28.8029 53.0804C30.3673 52.4162 31.9317 51.5204 33.4961 51.0575C33.5583 51.0374 33.6027 50.9065 33.6916 50.8663C34.1094 50.6952 35.6115 50.1517 36.5448 49.7089C38.7047 48.6924 40.8824 47.7363 43.2912 47.4646C43.6645 47.4243 48.651 45.9448 49.3709 48.0684C50.1175 50.2825 45.7622 52.9798 45.14 53.1509C43.6378 53.5836 42.0201 53.7044 40.7224 54.7108C38.8292 56.1902 36.6426 56.8039 34.5893 57.8309C32.7494 58.7565 30.8384 59.4614 29.0074 60.4074C27.283 61.2928 25.692 62.5406 23.9231 63.2958C22.4032 63.9395 20.6966 64.0607 19.1056 64.5232C18.7323 64.6342 18.4389 65.2179 18.0301 65.3486C17.6923 65.4596 17.1501 65.681 16.7679 65.6408C16.599 65.6204 16.4213 65.5802 16.3146 65.7212C15.8168 66.3552 10.5815 68.0259 9.73707 65.429C8.91932 62.9029 13.5147 60.9605 15.488 59.9845Z" fill="black"/>
<path d="M25.1312 76.5987C26.8467 76.105 28.5622 75.6323 30.2777 75.1692C31.3354 74.8872 32.4108 74.7468 33.4152 74.213C33.6908 74.0624 33.9219 73.6695 34.2508 73.8008H34.2419C34.5353 73.6497 34.8196 73.4385 35.1219 73.3779C36.2863 73.1362 37.4685 72.6736 38.6151 72.6329C38.6595 72.6329 38.704 72.5123 38.7662 72.5021C39.0773 72.4421 40.1883 72.3011 40.8905 72.12C42.5082 71.6869 44.1348 71.3347 45.8769 71.6869C46.1525 71.7373 49.8235 71.5963 50.2055 73.8308C50.5965 76.1554 47.2991 77.6353 46.8458 77.6449C45.7347 77.6755 44.5703 77.3732 43.5748 78.0174C42.1171 78.9532 40.5083 78.9838 38.9706 79.4463C37.5928 79.8692 36.1707 80.0504 34.793 80.4931C33.5042 80.9058 32.2776 81.7007 30.9621 81.9725C29.8243 82.204 28.5977 81.8819 27.4245 81.9226C27.1489 81.9323 26.9 82.4157 26.5978 82.4457C26.3489 82.4661 25.949 82.5465 25.6734 82.4055C25.5579 82.345 25.4334 82.2646 25.3445 82.3653C24.9446 82.8483 21.0781 83.1098 20.6425 80.3929C20.2248 77.7355 23.6468 77.0312 25.1312 76.5987Z" fill="black"/>
<path d="M21.4595 100.564C22.6417 100.393 23.8239 100.252 25.006 100.121C25.7349 100.04 26.4637 100.101 27.1748 99.7591C27.3704 99.6685 27.557 99.3158 27.7703 99.5072C27.9748 99.4166 28.1792 99.2558 28.3925 99.2558C29.1925 99.2354 30.0191 99.0039 30.7836 99.1748C30.8102 99.185 30.8546 99.0746 30.8991 99.0746C31.1124 99.0746 31.8679 99.1448 32.3479 99.0944C33.459 98.9738 34.5789 98.9235 35.7167 99.5977C35.8944 99.6985 38.3654 100.242 38.4366 102.516C38.5165 104.881 36.1966 105.727 35.8944 105.657C35.1567 105.475 34.3923 104.962 33.6812 105.415C32.6324 106.069 31.5568 105.798 30.4991 105.968C29.548 106.12 28.5792 106.049 27.6281 106.22C26.7304 106.381 25.8504 106.944 24.9527 106.965C24.1794 106.985 23.3794 106.432 22.5972 106.261C22.4106 106.22 22.2061 106.653 22.0106 106.623C21.8417 106.603 21.5662 106.592 21.3973 106.411C21.3262 106.331 21.2462 106.22 21.1751 106.31C20.8729 106.714 18.2685 106.25 18.1885 103.493C18.0908 100.755 20.4284 100.705 21.4595 100.564Z" fill="black"/>
</g>
<defs>
<clipPath id="clip0_103_3334">
<rect width="61" height="107" fill="white"/>
</clipPath>
</defs>
</svg>
