<svg width="201" height="227" viewBox="0 0 201 227" fill="none" xmlns="http://www.w3.org/2000/svg">
<path d="M31.1954 175.29C33.2456 173.429 35.4164 171.704 37.6676 170.16C43.3358 166.119 49.3256 162.715 55.5164 159.9C64.3202 155.905 73.526 153.18 82.9328 151.773C94.5908 150.093 106.41 150.593 117.907 153.226C132.298 156.495 145.926 163.032 158.428 171.658C160.237 172.884 162.006 174.155 163.735 175.517C164.137 175.88 164.7 175.79 164.981 175.336C165.262 174.882 165.222 174.246 164.82 173.928C164.82 173.928 164.78 173.928 164.74 173.883C151.956 164.213 137.926 156.586 122.972 152.363C111.113 149.004 98.852 147.914 86.7116 149.14C76.8224 150.139 67.0538 152.636 57.7274 156.54C50.8934 159.4 44.3408 162.941 38.1098 167.209C35.336 169.07 32.4818 171.068 30.0296 173.429L29.9492 173.52C29.0648 174.337 30.2708 176.153 31.1552 175.336L31.1954 175.29Z" fill="#9BB0FF"/>
<path d="M134.63 157.54C130.771 157.403 126.791 158.675 123.937 161.762C121.203 164.713 120.077 169.071 120.962 173.203C121.444 175.246 122.489 177.062 123.937 178.424C125.344 179.786 126.992 180.83 128.519 182.056C129.243 182.646 129.926 183.327 130.529 184.053C131.132 184.961 131.695 185.915 132.137 186.959C133.142 189.002 134.389 190.591 136.358 191.453C138.489 192.361 140.821 192.452 143.032 191.726C145.444 190.954 147.574 189.456 149.665 187.912C150.428 187.367 148.66 186.505 148.097 186.913C145.082 189.093 141.464 191.817 137.685 190.727C135.956 190.228 134.911 188.82 134.067 187.14C133.665 186.232 133.183 185.324 132.66 184.462C132.137 183.69 131.534 182.964 130.851 182.328C128.278 179.922 124.7 178.424 123.293 174.746C121.927 171.25 122.53 166.892 124.58 163.896C126.992 160.4 131.012 158.584 134.871 158.72C135.152 158.72 135.755 158.72 135.715 158.221C135.675 157.721 134.911 157.54 134.59 157.494L134.63 157.54ZM39.798 179.649C45.024 176.017 50.652 173.293 56.6016 171.568C59.4156 170.751 62.3904 169.979 65.325 169.934C66.5712 169.888 67.8174 170.161 68.9832 170.751C70.0686 171.432 71.0334 172.34 71.7972 173.43C73.4454 175.518 74.9328 177.788 77.3448 178.832C79.596 179.786 82.008 179.649 84.2994 178.878C86.5908 178.106 88.6812 176.925 90.8922 175.972C92.8218 175.155 95.073 174.383 97.1232 175.109C99.4146 175.972 101.103 178.333 101.987 180.739C103.153 183.917 103.033 187.549 102.309 190.818C102.108 191.68 101.907 192.498 101.666 193.315C101.505 193.814 103.435 194.359 103.636 193.723C104.681 190.273 105.244 186.55 104.52 182.964C103.957 180.058 102.47 177.47 100.299 175.745C98.1282 174.02 95.3946 173.566 92.8218 174.02C90.4098 174.474 88.1184 175.654 85.8672 176.698C83.8974 177.652 81.606 178.741 79.4352 178.469C78.4302 178.287 77.5056 177.788 76.7418 177.016C75.777 176.063 74.9328 174.973 74.1288 173.838C73.3248 172.703 72.36 171.704 71.3148 170.842C70.0686 169.934 68.6616 169.344 67.1742 169.071C64.119 168.526 60.9834 169.117 57.9684 169.843C51.7374 171.341 45.7476 173.884 40.2 177.379C39.5166 177.833 38.8734 178.242 38.19 178.741C37.8282 178.968 38.19 179.286 38.4714 179.422C38.793 179.604 39.5166 179.786 39.8382 179.559L39.798 179.649Z" fill="#9BB0FF"/>
<path d="M53.868 44.3097C53.868 44.3097 54.4308 40.6777 57.4458 39.5881C58.089 39.3157 58.8126 39.3611 59.496 39.5881C61.4658 40.4053 61.3452 43.4017 59.3352 44.8091L36.582 60.6991C34.9338 61.8341 33.1248 60.3812 33.9288 58.5198C34.8936 56.3406 37.4262 55.8413 37.4262 55.8413C37.4262 55.8413 31.2354 53.4805 32.6826 45.5809C34.1298 37.6813 42.8934 38.1353 45.0642 43.7649C45.0642 43.7649 49.647 35.2751 53.868 44.3097Z" fill="white"/>
<path d="M54.6722 44.673V44.5822C54.7124 44.4006 54.6722 44.7184 54.6722 44.6276C54.6722 44.5368 54.6722 44.4914 54.7124 44.4006C54.833 44.0374 54.9536 43.6742 55.1144 43.311C55.5566 42.2668 56.2802 41.4496 57.1646 40.9048C57.8078 40.4962 58.5716 40.36 59.2952 40.5416C59.4962 40.587 59.6972 40.7232 59.858 40.9048C59.9384 40.9956 60.0188 41.0864 60.0188 41.2226C60.26 42.1306 59.6168 43.2656 58.8128 43.8558C57.2852 44.9454 55.7576 45.9896 54.23 47.0792L44.9438 53.5714L37.3058 58.9286C36.8636 59.2464 36.4214 59.6096 35.939 59.882C35.537 60.1544 35.0144 60.1998 34.5722 59.882C34.5722 59.882 34.5722 59.8366 34.532 59.7912C34.532 59.7458 34.532 59.882 34.532 59.7004C34.532 59.4734 34.6526 59.201 34.7732 59.0194C35.3762 58.066 36.2204 57.385 37.1852 57.1126C37.346 57.0672 37.547 56.9764 37.748 56.9764C38.6726 56.7948 38.1902 55.1604 37.547 54.9334C37.3058 54.8426 37.1048 54.7518 36.9038 54.6156C36.7832 54.5702 36.7028 54.4794 36.5822 54.434L36.4214 54.3432H36.341C36.0596 54.1162 35.8184 53.8892 35.537 53.6622C35.4164 53.526 35.2556 53.3898 35.135 53.2536C35.2556 53.3898 35.135 53.2536 35.0546 53.1628C34.9742 53.072 34.8938 52.9812 34.8134 52.8904C34.6928 52.7088 34.532 52.5272 34.4114 52.3456C34.4114 52.3456 34.2104 52.0278 34.331 52.2094C34.2506 52.0732 34.2104 51.9824 34.13 51.8462C33.6476 50.9836 33.3662 49.9848 33.326 48.9406C33.125 46.5344 33.7682 43.9012 35.3762 42.2668C36.7028 41.041 38.4314 40.4962 40.16 40.814C40.6022 40.9048 41.0846 41.041 41.4866 41.2226C41.9288 41.4042 42.3308 41.6312 42.6926 41.949C42.8936 42.1306 43.0946 42.2668 43.2956 42.4938C43.3358 42.5392 43.4162 42.5846 43.4564 42.6754C43.5368 42.7662 43.6172 42.857 43.6976 42.9932C43.778 43.1294 43.8584 43.2202 43.9388 43.311C43.979 43.4018 44.0192 43.4472 44.0594 43.538C44.2202 43.8104 44.3408 44.0828 44.4614 44.3552C44.6222 44.7638 45.4262 45.3994 45.7478 44.8092C46.19 43.992 46.7126 43.2656 47.3558 42.63C48.3206 41.6766 49.6472 41.041 50.8532 41.6766C51.8984 42.2668 52.6622 43.6742 53.225 44.9C53.426 45.3086 53.9486 45.7626 54.3506 45.4902C54.7526 45.2178 54.7124 44.4914 54.5114 44.0828C53.426 41.7674 51.5768 38.998 48.9638 39.2704C47.396 39.452 46.0694 40.7232 45.1046 42.0398C44.8634 42.3576 44.6222 42.7208 44.4212 43.084L45.7076 43.538C43.9388 39.0888 38.5118 37.2274 34.8938 39.9514C30.713 43.084 30.6728 50.7566 34.0898 54.5702C35.0144 55.6598 36.0998 56.477 37.346 56.9764L37.145 54.9334C35.135 55.342 32.4818 57.2942 33.0044 59.9274C33.326 61.5618 34.7732 62.606 36.2204 62.2428C36.341 62.2428 36.4616 62.1974 36.542 62.152C36.8234 62.0158 37.1048 61.8342 37.346 61.6526L44.4212 56.704L54.7124 49.5308L58.4108 46.943C58.9736 46.5798 59.5766 46.2166 60.059 45.7626C61.1846 44.8546 61.7876 43.311 61.6268 41.7674C61.3856 39.9968 60.0992 38.6802 58.5314 38.4986C55.9586 38.2262 53.828 40.7686 53.1446 43.3564C53.0642 43.5834 53.024 43.8104 52.9838 44.0374C52.823 45.127 54.3908 46.262 54.5918 44.8546L54.6722 44.673Z" fill="#9BB0FF"/>
<path d="M131.977 48.7127C131.977 48.7127 152.64 56.5669 154.891 56.8393C157.142 57.1117 160.76 53.9337 159.835 48.3041C158.911 42.6745 155.011 42.7653 155.011 42.7653C155.011 42.7653 157.263 36.1823 149.906 33.8669C142.549 31.5515 140.66 39.2695 140.66 39.2695C140.66 39.2695 135.112 37.4989 134.349 42.7199C134.349 42.7199 132.097 40.7223 129.726 43.9003C127.354 47.0783 131.937 48.7581 131.937 48.7581L131.977 48.7127Z" fill="white"/>
<path d="M131.936 49.7121C133.585 50.3477 135.233 50.9833 136.881 51.5735C140.177 52.7993 143.474 54.0251 146.77 55.2055C149.263 56.1135 151.755 57.1123 154.328 57.7025C157.946 58.6105 160.679 54.4791 160.88 50.8017C161.122 46.7157 159.031 41.9941 155.051 41.6309H154.85L155.855 43.2199C156.86 40.2235 155.855 36.6823 153.644 34.7755C151.514 32.9141 148.82 32.0515 146.127 32.3693C144.197 32.6417 142.469 33.7767 141.303 35.5019C140.62 36.4553 140.137 37.5449 139.816 38.6799L140.7 38.1805C139.655 37.8627 138.529 37.7719 137.444 37.9535C136.559 38.0443 135.715 38.4529 134.992 39.0885C134.147 39.9511 133.585 41.1315 133.464 42.4027L134.831 41.9033C134.308 41.4493 133.665 41.1315 133.022 41.0407C131.575 40.8137 130.288 41.5401 129.283 42.6751C128.439 43.6739 127.876 44.8997 128.238 46.3071C128.6 47.3967 129.283 48.3047 130.168 48.8495C130.69 49.2127 131.253 49.5305 131.816 49.7575C132.218 49.8937 132.62 49.6213 132.74 49.1673C132.74 49.1219 132.74 49.0311 132.74 48.9857C132.74 48.3955 132.419 47.8507 131.896 47.6691H131.776C131.695 47.5783 131.534 47.4875 131.816 47.6237L131.615 47.5329C131.293 47.3513 130.972 47.1697 130.65 46.9881L130.529 46.8973H130.57L130.328 46.7157C130.248 46.6249 130.168 46.5341 130.087 46.4433C130.007 46.3525 130.168 46.5795 130.007 46.3071C130.007 46.2617 129.806 45.8985 129.926 46.1709C129.926 46.0801 129.846 45.9893 129.846 45.9439C129.926 46.1709 129.846 45.8531 129.846 45.7623C129.846 45.9893 129.846 45.6261 129.846 45.5807C129.846 45.7169 129.926 45.3537 129.926 45.3083C129.967 45.2175 130.007 45.0813 130.087 44.9905C130.288 44.6727 130.489 44.3549 130.771 44.1279C131.213 43.6285 131.776 43.2653 132.379 43.1291C132.781 43.0383 133.223 43.1291 133.585 43.3107C133.384 43.2199 133.745 43.4015 133.826 43.4469C134.389 43.9463 135.072 43.7647 135.193 42.9475C135.313 42.0849 135.715 41.3131 136.318 40.7683C136.841 40.3597 137.444 40.1327 138.087 40.0419C138.409 40.0419 138.73 40.0419 139.052 40.0419C139.213 40.0419 139.373 40.0419 139.494 40.0419H139.695C139.896 40.0419 139.534 40.0419 139.695 40.0419C139.976 40.0419 140.218 40.1327 140.499 40.2235C140.861 40.3597 141.303 40.1327 141.424 39.7241C141.464 39.4971 141.544 39.2701 141.625 39.0885C141.625 38.9977 141.705 38.8615 141.745 38.7707C141.785 38.6799 141.785 38.6345 141.826 38.5891C141.946 38.3167 142.107 37.9989 142.268 37.7265C143.032 36.3191 144.197 35.2749 145.564 34.7301C147.655 34.0037 150.107 34.6393 151.956 35.8651C152.68 36.3191 153.323 36.9547 153.765 37.7719C153.926 37.9989 153.765 37.7265 153.805 37.9081C153.845 37.9989 153.886 38.0897 153.926 38.1805C154.006 38.3621 154.087 38.5891 154.127 38.7707C154.167 38.9523 154.127 38.6345 154.127 38.8615C154.127 38.9523 154.167 39.0431 154.167 39.1339C154.167 39.3155 154.207 39.4971 154.247 39.6787C154.247 39.7241 154.247 39.9965 154.247 39.8603C154.247 39.7241 154.247 39.9965 154.247 40.0419V40.5867C154.247 40.7683 154.247 40.9045 154.207 41.0861C154.167 41.2677 154.127 41.6309 154.207 41.3131C154.167 41.5855 154.087 41.9033 154.006 42.1757C153.845 42.8567 154.207 43.5377 154.81 43.7193C154.891 43.7193 154.971 43.7193 155.011 43.7193H155.172C155.494 43.7647 155.252 43.7193 155.172 43.7193C155.293 43.7193 155.373 43.7193 155.494 43.7647C155.735 43.8101 155.976 43.9009 156.177 43.9917C155.936 43.9009 156.298 44.0371 156.338 44.0825C156.499 44.1733 156.659 44.2641 156.82 44.4003C156.82 44.4003 157.061 44.5819 156.901 44.4457L157.102 44.6273C157.262 44.7635 157.383 44.8997 157.504 45.0813C157.343 44.8997 157.584 45.1721 157.584 45.1721L157.785 45.4445C157.906 45.6261 158.026 45.8531 158.107 46.0347C158.589 47.1243 158.83 48.3501 158.87 49.6213C158.951 51.7097 158.107 53.6619 156.619 54.9331C156.338 55.1601 156.056 55.3417 155.735 55.4325C155.574 55.4779 155.413 55.5687 155.252 55.6141H155.092C155.252 55.6141 154.931 55.6141 154.931 55.6141C154.931 55.6141 154.609 55.5687 154.529 55.6141C154.529 55.6141 154.77 55.6595 154.569 55.6141C154.368 55.5687 154.247 55.5233 154.127 55.5233C151.715 54.8877 149.303 53.9797 146.971 53.1171C143.795 51.9821 140.62 50.8017 137.444 49.6213C135.595 48.9403 133.745 48.2139 131.896 47.5329C131.494 47.3967 131.092 47.6691 130.972 48.0777C130.972 48.1231 130.972 48.2139 130.972 48.3047C130.972 48.8949 131.293 49.4397 131.816 49.6213L131.936 49.7121Z" fill="#9BB0FF"/>
<path d="M151.675 43.8108C151.675 43.8108 154.288 40.6327 158.067 44.3555Z" fill="white"/>
<path d="M152.559 43.8549C152.479 43.9457 152.358 44.1273 152.559 43.8549C152.64 43.7641 152.76 43.6733 152.881 43.5825C153.002 43.4917 152.72 43.6733 152.881 43.5825L153.002 43.4917C153.082 43.4463 153.203 43.3555 153.283 43.3101C153.444 43.2193 153.082 43.4009 153.243 43.3101L153.444 43.2193C153.484 43.2193 153.564 43.2193 153.605 43.1739C153.685 43.1739 153.725 43.1285 153.806 43.1285C153.645 43.1285 153.605 43.1285 153.806 43.1285H154.047C154.288 43.0831 153.926 43.1285 154.087 43.1285H154.449C154.395 43.1285 154.395 43.1285 154.449 43.1285C154.61 43.1285 154.77 43.1739 154.931 43.2193C155.775 43.5371 156.579 44.0365 157.223 44.7175C157.544 45.0353 158.147 44.8991 158.509 44.7175C158.71 44.6267 159.393 44.2181 159.032 43.9003C158.187 43.0377 157.182 42.4021 156.097 42.0843C155.213 41.8573 154.288 41.8573 153.444 42.0843C152.439 42.3567 151.554 42.9469 150.831 43.7641C150.509 44.1273 151.072 44.3543 151.353 44.3543C151.836 44.3543 152.318 44.1727 152.64 43.8095L152.559 43.8549Z" fill="#9BB0FF"/>
<path d="M105.766 108.098C105.766 108.098 116.459 115.135 126.55 107.826C136.64 100.516 127.796 81.1759 127.796 81.1759L118.63 85.0803C118.63 85.0803 118.63 94.1149 113.645 91.9811C108.661 89.8473 98.5303 79.3145 98.5303 79.3145L105.766 108.143V108.098Z" fill="white"/>
<path d="M105.686 109.006C107.897 110.368 110.309 111.321 112.841 111.775C117.907 112.774 123.133 111.775 127.474 108.552C133.665 103.83 132.74 94.2505 130.771 87.2589C130.168 85.0797 129.444 82.9913 128.519 80.9483C128.318 80.5397 127.756 80.0857 127.313 80.2673L119.273 83.6723L118.108 84.1717C117.947 84.2625 117.786 84.4441 117.786 84.6711C117.786 85.0797 117.786 85.4883 117.706 85.8969C117.625 86.3055 117.625 86.7595 117.545 87.1681C117.464 87.6221 117.384 88.0307 117.263 88.4393C117.062 89.3473 116.66 90.1191 116.057 90.7547C115.414 91.3449 114.57 91.4811 113.806 91.1179C112.882 90.7093 111.997 90.2099 111.193 89.6197L110.952 89.4381L110.59 89.1657C110.309 88.9841 110.068 88.7571 109.786 88.5755C109.264 88.1669 108.701 87.7583 108.178 87.3043C106.088 85.5791 104.118 83.7631 102.148 81.8563C101.344 81.0845 100.54 80.3127 99.7361 79.4955L99.0527 78.8145C98.9723 78.7237 98.5703 78.3151 98.9723 78.7237C98.7311 78.4513 98.3291 78.1335 97.9271 78.3151C97.5251 78.4967 97.5653 78.9507 97.6457 79.3139L100.098 89.1203L103.997 104.602L104.882 108.188C105.043 108.733 105.485 109.096 106.007 109.142C106.53 109.142 106.57 108.552 106.45 108.143L103.997 98.3365L100.138 82.8551L99.2537 79.2685L97.9673 79.8133C100.902 82.8551 103.997 85.7607 107.173 88.4393C109.143 90.0737 111.193 91.7989 113.485 92.7977C114.53 93.2517 115.696 93.4787 116.741 92.8885C117.585 92.3437 118.228 91.5265 118.55 90.4823C119.113 88.8933 119.434 87.2135 119.394 85.4883L119.072 85.9877L127.112 82.5827L128.278 82.0833L127.072 81.4023C127.072 81.4023 127.072 81.4477 127.112 81.4931C127.273 81.6747 126.992 81.1753 127.112 81.5385C127.233 81.9017 127.394 82.1741 127.514 82.5373C127.957 83.6723 128.359 84.8073 128.72 85.9877C129.725 89.2111 130.449 92.5707 130.449 96.0665C130.449 99.6985 129.565 103.331 127.072 105.828C125.263 107.644 122.851 108.824 120.52 109.505C118.268 110.141 115.937 110.277 113.686 109.959C110.912 109.641 108.218 108.688 105.806 107.19C105.525 106.963 105.163 107.053 104.962 107.371C104.922 107.462 104.882 107.507 104.882 107.598C104.882 108.188 105.284 108.688 105.686 108.96V109.006Z" fill="#20044E"/>
<path d="M118.51 110.413C118.51 110.413 143.152 89.1663 144.801 90.9369C146.449 92.7075 170.328 131.116 170.167 133.84C170.006 136.564 146.047 155.541 142.951 153.907C139.856 152.272 116.942 111.685 118.55 110.368L118.51 110.413Z" fill="#9BB0FF"/>
<path d="M119.233 111.138C120.319 110.23 121.364 109.322 122.409 108.414C124.861 106.326 127.354 104.283 129.846 102.24C132.58 100.015 135.354 97.8361 138.168 95.7477C139.333 94.8851 140.499 94.0679 141.705 93.2961C142.509 92.7513 143.353 92.2519 144.238 91.8433L144.479 91.7525C144.519 91.7525 144.72 91.6617 144.6 91.7071H144.881C144.921 91.7071 144.68 91.7071 144.841 91.7071C144.64 91.6617 144.479 91.5255 144.358 91.3893C144.519 91.5709 144.157 91.1169 144.318 91.3439C144.68 91.8433 145.042 92.3427 145.363 92.8421C146.77 94.9759 148.137 97.1097 149.504 99.2889C151.434 102.376 153.363 105.463 155.293 108.596C157.383 112.001 159.313 115.179 161.323 118.629C163.051 121.58 164.78 124.486 166.388 127.482C166.991 128.572 167.594 129.707 168.157 130.797C168.358 131.205 168.559 131.659 168.76 132.068C168.84 132.249 168.921 132.431 169.001 132.613L169.081 132.84C169.081 132.749 168.961 132.567 169.081 132.84C169.081 132.93 169.162 133.067 169.202 133.203C169.202 133.203 169.202 133.294 169.202 133.339C169.242 133.43 169.202 133.067 169.202 133.294V133.384C169.282 133.203 169.122 133.294 169.202 133.384C169.202 133.43 169.162 133.475 169.162 133.521C169.162 133.611 169.242 133.384 169.162 133.566C168.639 134.338 168.076 135.019 167.433 135.654C165.182 137.924 162.81 140.013 160.318 141.965C157.383 144.326 154.408 146.596 151.313 148.684C149.022 150.228 146.61 151.908 144.037 152.816L143.755 152.906C143.675 152.906 143.434 152.997 143.554 152.952C143.394 152.952 143.233 153.043 143.032 153.043H142.831C142.992 153.133 142.63 152.997 142.831 153.043C142.67 152.952 143.072 153.179 142.911 153.088C142.911 153.088 142.831 153.043 142.791 152.997C142.791 152.997 143.032 153.224 142.871 153.043C142.791 152.952 142.67 152.861 142.59 152.77C142.509 152.679 142.469 152.634 142.429 152.589C142.59 152.77 142.228 152.362 142.429 152.589C142.268 152.407 142.188 152.271 142.067 152.135C140.539 150.137 139.132 148.003 137.806 145.824C137.364 145.143 136.921 144.417 136.479 143.69L135.796 142.555L135.193 141.556C134.228 139.922 133.263 138.288 132.298 136.653C130.329 133.294 128.439 129.889 126.55 126.438C124.902 123.442 123.294 120.4 121.806 117.313C121.243 116.178 120.681 114.997 120.198 113.817C120.078 113.59 119.997 113.363 119.877 113.091C119.836 113 119.796 112.864 119.756 112.773C119.716 112.682 119.595 112.364 119.676 112.5L119.595 112.319L119.475 112.001C119.434 111.819 119.354 111.683 119.314 111.502C119.274 111.365 119.233 111.229 119.193 111.093C119.113 110.775 119.193 111.229 119.193 110.957C119.193 110.957 119.193 110.866 119.193 110.821C119.193 110.684 119.193 110.957 119.193 110.911C119.233 110.73 119.073 111.048 119.193 110.911C119.555 110.594 119.032 109.867 118.831 109.64C118.51 109.322 118.027 109.095 117.666 109.368C117.304 109.64 117.545 110.548 117.666 110.957C117.947 111.819 118.269 112.682 118.63 113.545C119.796 116.223 121.123 118.811 122.449 121.399C124.218 124.804 126.067 128.209 127.957 131.523C129.886 134.973 131.856 138.378 133.906 141.738C135.595 144.553 137.283 147.322 139.132 150.046C139.735 150.954 140.338 151.817 141.022 152.679C141.464 153.315 141.987 153.86 142.59 154.314C143.353 154.859 144.198 154.677 145.002 154.405C146.087 154.041 147.132 153.542 148.137 152.906C151.152 151.136 154.087 149.184 156.901 147.05C159.916 144.78 162.891 142.464 165.705 139.922C166.79 138.969 167.875 137.97 168.921 136.926C169.564 136.29 170.167 135.609 170.649 134.837C170.971 134.338 171.011 133.702 170.77 133.157C170.488 132.34 170.127 131.568 169.725 130.797C168.478 128.209 167.031 125.757 165.624 123.26C163.695 119.901 161.725 116.541 159.715 113.227C157.624 109.776 155.534 106.326 153.403 102.876C151.675 100.106 149.946 97.3367 148.177 94.6127C147.293 93.1599 146.368 91.7979 145.363 90.4813C144.841 89.7549 143.956 89.4825 143.193 89.8457C142.308 90.2089 141.504 90.6629 140.7 91.2077C138.047 92.9329 135.474 94.8851 132.982 96.8373C130.087 99.1073 127.233 101.423 124.419 103.784C122.449 105.418 120.48 107.052 118.55 108.732L117.706 109.459C117.344 109.776 117.867 110.503 118.068 110.73C118.349 111.048 118.791 111.32 119.153 111.002L119.233 111.138Z" fill="#9BB0FF"/>
<path d="M141.745 152.771C141.745 152.771 145.926 150.047 146.77 149.548C147.615 149.049 149.986 150.91 149.986 150.91C149.986 150.91 144.801 154.587 143.997 154.814C143.193 155.041 141.705 153.407 141.745 152.771Z" fill="white"/>
<path d="M142.308 153.27L145.163 151.409C145.766 151 146.369 150.637 146.972 150.274C147.052 150.228 147.132 150.183 147.213 150.092C147.374 150.092 147.293 150.001 147.213 150.092C147.132 150.092 147.052 150.092 147.012 150.138C147.132 150.138 147.012 150.138 146.931 150.138C147.092 150.138 146.811 150.092 146.972 150.138C147.052 150.138 147.132 150.138 147.213 150.183C147.092 150.138 147.333 150.228 147.374 150.228C147.414 150.228 147.574 150.319 147.655 150.365C148.177 150.637 148.66 150.955 149.142 151.318L149.223 150.501L148.982 150.682H148.901C148.78 150.819 149.062 150.637 148.901 150.728L148.539 150.955C147.936 151.409 147.293 151.817 146.65 152.271C146.007 152.725 145.323 153.179 144.68 153.588C144.439 153.77 144.158 153.906 143.876 154.042C143.796 154.087 143.675 154.133 143.595 154.178C143.514 154.224 143.756 154.133 143.675 154.133C143.514 154.178 143.796 154.133 143.836 154.133H143.997C143.836 154.133 143.997 154.133 143.957 154.133C143.876 154.133 143.796 154.042 143.756 153.997C143.555 153.86 143.354 153.679 143.193 153.497C143.032 153.361 142.911 153.179 142.791 152.952C142.751 152.862 142.71 152.816 142.67 152.725C142.67 152.816 142.63 152.635 142.67 152.725C142.67 152.725 142.67 152.635 142.67 152.589C142.67 152.09 141.906 151.999 141.585 152.044C141.183 152.09 140.66 152.317 140.66 152.862C140.7 153.316 140.901 153.679 141.183 153.997C141.545 154.451 141.987 154.859 142.429 155.132C143.313 155.631 144.198 155.449 145.002 154.995C146.449 154.178 147.856 153.179 149.223 152.181L150.63 151.227C150.831 151.091 150.911 150.773 150.791 150.546C150.791 150.501 150.71 150.455 150.67 150.41C149.504 149.457 147.856 148.322 146.328 148.866C145.725 149.139 145.122 149.502 144.6 149.956C143.876 150.41 143.153 150.909 142.389 151.363L141.062 152.226C140.741 152.453 140.419 152.862 140.821 153.179C141.223 153.452 141.746 153.497 142.188 153.225L142.308 153.27Z" fill="#9BB0FF"/>
<path d="M165.102 139.378C165.102 139.378 164.82 135.928 165.343 135.338C165.865 134.747 169.242 131.479 169.242 131.479C169.242 131.479 170.448 132.931 170.368 134.293C170.287 135.655 165.102 139.378 165.102 139.378Z" fill="white"/>
<path d="M166.066 139.059C166.026 138.514 165.986 138.015 165.986 137.47C165.986 137.062 165.986 136.608 166.026 136.199V135.927C166.026 136.063 166.066 135.836 166.066 135.79C166.066 135.745 166.066 135.654 166.107 135.563C166.147 135.473 166.107 135.518 166.107 135.473C166.107 135.382 166.026 135.654 166.107 135.518C166.187 135.382 165.946 135.7 166.107 135.563C166.107 135.563 166.147 135.518 166.187 135.473L166.468 135.2L167.192 134.474L168.921 132.749L169.966 131.704L168.438 132.068C168.599 132.249 168.72 132.431 168.84 132.658C169.122 133.112 169.323 133.611 169.403 134.111C169.403 134.201 169.403 134.474 169.403 134.565C169.403 134.655 169.403 134.383 169.403 134.565C169.403 134.746 169.282 134.701 169.403 134.565C169.403 134.61 169.363 134.655 169.323 134.746C169.323 134.792 169.242 134.837 169.242 134.928C169.363 134.746 169.242 135.019 169.242 134.928C169.122 135.109 169.041 135.2 168.921 135.336C168.8 135.473 168.679 135.563 168.559 135.7L168.358 135.881L168.237 136.017C167.916 136.29 167.634 136.562 167.313 136.835C166.75 137.334 166.147 137.788 165.544 138.242C165.222 138.469 164.901 138.741 164.579 138.968C164.257 139.195 163.936 139.74 164.257 140.103C164.579 140.467 165.222 140.194 165.544 139.922C166.509 139.241 167.433 138.514 168.318 137.743C169.001 137.152 169.684 136.562 170.287 135.881C170.73 135.382 171.252 134.701 171.252 133.929C171.252 132.794 170.609 131.659 169.966 130.887C169.564 130.433 168.76 130.933 168.478 131.25C167.594 132.113 166.669 133.021 165.785 133.929C165.343 134.338 164.901 134.792 164.499 135.291C164.016 135.972 164.016 136.925 164.016 137.743C164.016 138.424 164.016 139.105 164.097 139.786C164.177 140.83 166.066 140.058 165.986 139.15L166.066 139.059Z" fill="#9BB0FF"/>
<path d="M148.62 156.903C148.137 157.039 147.655 156.903 147.253 156.585C146.007 155.677 146.168 154.406 146.409 153.907V153.816C147.333 152.726 148.097 152.726 148.58 152.863C149.263 153.135 149.786 153.816 149.866 154.633C149.946 155.45 149.625 156.222 149.022 156.676C148.901 156.767 148.74 156.858 148.58 156.903H148.62ZM147.132 154.361C147.052 154.588 146.931 155.223 147.735 155.814C148.017 156.086 148.379 156.086 148.66 155.904C148.982 155.632 149.183 155.223 149.142 154.769C149.062 154.315 148.781 153.907 148.419 153.725C147.936 153.544 147.454 153.952 147.173 154.361H147.132Z" fill="white"/>
<path d="M148.298 156.357C148.097 156.402 148.378 156.357 148.418 156.357C148.459 156.357 148.137 156.357 148.418 156.357C148.7 156.357 148.258 156.357 148.499 156.357C148.66 156.357 148.499 156.357 148.459 156.357C148.579 156.448 148.258 156.311 148.459 156.357L148.298 156.266C148.177 156.221 148.378 156.311 148.258 156.266C148.217 156.266 148.137 156.175 148.097 156.13C148.016 156.039 147.896 155.994 147.815 155.903C147.896 155.994 147.695 155.767 147.815 155.903L147.735 155.767C147.614 155.585 147.534 155.403 147.454 155.222V155.358C147.413 155.04 147.373 154.722 147.413 154.405V154.586C147.413 154.45 147.454 154.314 147.494 154.178C147.494 154.178 147.494 154.132 147.494 154.087C147.494 153.996 147.373 154.268 147.494 154.132C147.614 153.996 147.655 153.951 147.695 153.86L147.815 153.724C147.695 153.86 147.815 153.724 147.856 153.724C147.896 153.678 147.976 153.633 148.016 153.587H148.097C148.177 153.497 148.137 153.497 148.016 153.587C148.097 153.587 148.177 153.497 148.258 153.451C148.016 153.587 148.097 153.497 148.177 153.451C148.378 153.406 148.016 153.451 148.097 153.451H148.177C147.896 153.451 147.976 153.451 148.057 153.451H148.137C148.338 153.497 147.936 153.406 148.057 153.451L148.217 153.542C148.338 153.587 148.097 153.451 148.217 153.542C148.338 153.633 148.378 153.678 148.459 153.769C148.539 153.86 148.418 153.678 148.499 153.814C148.499 153.86 148.579 153.905 148.619 153.951C148.74 154.132 148.861 154.359 148.941 154.586V154.45C148.981 154.768 149.021 155.086 148.981 155.403V155.222C148.981 155.403 148.941 155.585 148.901 155.721C148.901 155.812 148.82 155.903 148.82 155.948C148.861 155.948 148.78 156.084 148.78 156.084C148.78 156.084 148.7 156.221 148.66 156.266L148.579 156.357C148.7 156.266 148.499 156.448 148.579 156.357C148.499 156.357 148.459 156.448 148.378 156.493H148.459C148.459 156.448 148.378 156.493 148.378 156.493C148.619 156.402 148.298 156.538 148.378 156.493C148.177 156.538 147.976 156.675 147.815 156.856C147.695 156.992 147.695 157.174 147.775 157.31C148.016 157.719 148.66 157.673 149.021 157.583C149.665 157.401 150.227 156.992 150.589 156.402C150.911 155.903 151.031 155.313 150.991 154.722C150.83 153.542 150.026 152.634 149.021 152.407C147.815 152.18 146.609 152.634 145.765 153.633C145.283 154.268 145.202 155.176 145.524 155.903C145.765 156.493 146.167 156.947 146.65 157.265C147.373 157.719 148.217 157.855 149.021 157.628C149.263 157.583 149.464 157.401 149.624 157.219C149.745 157.083 149.745 156.902 149.665 156.765C149.383 156.357 148.74 156.402 148.378 156.493L148.298 156.357Z" fill="#9BB0FF"/>
<path d="M146.127 154.315C146.007 154.678 146.007 155.132 146.208 155.495C146.368 155.768 146.569 156.04 146.811 156.222C147.253 156.585 147.816 156.721 148.378 156.676C148.901 156.676 149.383 156.403 149.745 155.949C149.986 155.677 150.107 155.314 150.147 154.95C150.147 154.633 150.107 154.315 149.946 154.088C149.785 153.77 149.544 153.543 149.263 153.361C148.62 153.044 147.896 153.044 147.293 153.361C146.891 153.543 146.529 153.861 146.248 154.224C146.127 154.36 146.127 154.542 146.208 154.678C146.328 154.86 146.489 154.95 146.69 154.996C146.931 155.041 147.213 154.996 147.454 154.996C147.655 154.95 147.856 154.814 148.017 154.633C148.097 154.542 148.177 154.451 148.258 154.36L148.097 154.496C148.177 154.406 148.298 154.315 148.419 154.224L148.218 154.36L148.338 154.269C148.338 154.269 148.459 154.224 148.298 154.269C148.218 154.269 148.137 154.315 148.298 154.269C148.378 154.269 148.017 154.315 148.137 154.269C148.258 154.224 147.936 154.269 147.976 154.269H147.655C147.695 154.224 147.775 154.269 147.816 154.269L147.655 154.179C147.735 154.224 147.816 154.315 147.896 154.406L147.775 154.269C147.896 154.406 148.017 154.587 148.097 154.814V154.678C148.097 154.86 148.097 155.041 148.097 155.177V154.996C148.097 155.177 148.017 155.359 147.936 155.541L148.017 155.404C147.976 155.495 147.896 155.586 147.816 155.677L147.976 155.541C147.936 155.541 147.896 155.631 147.856 155.631L148.057 155.495H148.017C147.936 155.541 148.017 155.541 148.177 155.495C148.017 155.541 148.499 155.45 148.298 155.495H148.499C148.419 155.495 148.459 155.495 148.66 155.495H148.539H148.74C148.66 155.495 148.579 155.45 148.539 155.404L148.7 155.495C148.539 155.404 148.378 155.268 148.258 155.132L148.378 155.268C148.258 155.132 148.177 154.996 148.097 154.814V154.95C148.097 154.814 148.097 154.633 148.097 154.451V154.633C148.097 154.542 148.097 154.496 148.097 154.406C148.137 154.224 148.097 154.042 147.936 153.952C147.735 153.815 147.534 153.77 147.333 153.77C147.052 153.77 146.811 153.77 146.569 153.906C146.368 153.952 146.208 154.133 146.127 154.315Z" fill="#9BB0FF"/>
<path d="M168.559 141.784C168.076 141.92 167.594 141.784 167.192 141.466C165.946 140.558 166.106 139.287 166.348 138.788V138.697C167.272 137.607 168.036 137.607 168.559 137.743C169.242 138.016 169.765 138.697 169.845 139.514C169.926 140.331 169.604 141.103 169.001 141.557C168.88 141.648 168.719 141.739 168.559 141.784ZM167.031 139.196C166.951 139.423 166.83 140.059 167.634 140.649C167.915 140.921 168.277 140.967 168.559 140.74C168.88 140.467 169.081 140.059 169.041 139.605C168.961 139.151 168.679 138.742 168.318 138.561C167.875 138.379 167.393 138.788 167.071 139.196H167.031Z" fill="white"/>
<path d="M167.915 141.375C167.875 141.375 167.795 141.375 167.755 141.375H167.875H167.795H168.197H168.076C168.237 141.42 168.237 141.42 168.157 141.375H168.237C168.157 141.375 168.076 141.375 167.996 141.284H167.915C167.915 141.238 167.755 141.102 167.755 141.102L167.594 140.966H167.554C167.473 140.83 167.433 140.694 167.353 140.603C167.272 140.421 167.192 140.194 167.152 140.013V140.103C167.071 139.695 167.152 139.286 167.272 138.878V138.968C167.312 138.787 167.433 138.651 167.594 138.514C167.674 138.424 167.755 138.378 167.835 138.287L167.956 138.197C167.875 138.242 167.996 138.197 167.996 138.197C168.076 138.151 168.157 138.106 168.237 138.06C168.076 138.06 168.237 138.06 168.277 138.06H168.358C168.116 138.106 168.197 138.06 168.277 138.06H168.157C168.237 138.06 168.317 138.106 168.036 138.06H168.116C168.116 138.06 167.795 137.97 167.956 138.06C168.116 138.151 167.755 137.97 167.875 138.06C167.915 138.06 167.956 138.106 167.996 138.151C168.076 138.242 168.157 138.287 168.197 138.378L168.277 138.56C168.317 138.651 168.358 138.741 168.398 138.832C168.478 139.014 168.559 139.195 168.599 139.422V139.332C168.639 139.831 168.599 140.33 168.358 140.739V140.648C168.317 140.875 168.157 141.057 167.996 141.193L167.875 141.284H167.835C167.875 141.284 167.875 141.284 167.835 141.329C167.714 141.375 167.594 141.465 167.473 141.465C167.353 141.465 167.312 141.602 167.312 141.692C167.353 141.829 167.634 141.965 167.714 142.01C168.157 142.192 168.639 142.237 169.081 142.101C170.086 141.829 170.729 140.739 170.569 139.559C170.488 139.014 170.247 138.56 169.925 138.151C169.443 137.652 168.84 137.334 168.197 137.243C167.634 137.107 167.071 137.152 166.508 137.334C166.026 137.516 165.584 137.833 165.262 138.287C164.86 138.878 164.82 139.649 165.142 140.33C165.423 140.921 165.865 141.42 166.428 141.692C167.192 142.192 168.116 142.328 169.001 142.146C169.081 142.146 169.322 142.056 169.322 141.919C169.322 141.783 169.162 141.647 169.081 141.602C168.88 141.465 168.639 141.375 168.398 141.375C168.157 141.329 167.915 141.284 167.674 141.375H167.915Z" fill="#9BB0FF"/>
<path d="M166.066 139.015C165.946 139.333 165.986 139.696 166.147 140.014C166.307 140.287 166.508 140.514 166.75 140.695C167.312 141.149 167.996 141.331 168.679 141.331C169.081 141.331 169.443 141.195 169.724 140.877C169.885 140.65 170.006 140.377 170.046 140.06C170.046 139.379 169.724 138.788 169.162 138.471C168.76 138.244 168.358 138.153 167.915 138.107C167.594 138.107 167.272 138.107 166.951 138.244C166.629 138.38 166.348 138.607 166.106 138.925C166.026 139.015 166.106 139.152 166.147 139.242C166.307 139.379 166.508 139.469 166.709 139.515C166.951 139.606 167.232 139.606 167.473 139.606C167.634 139.606 167.835 139.606 167.956 139.469C168.116 139.288 168.277 139.106 168.478 139.015L168.358 139.106C168.438 139.061 168.518 139.015 168.599 138.97C168.679 138.97 168.518 138.97 168.518 138.97H168.478C168.277 138.97 168.599 138.97 168.358 138.97H168.076C167.956 138.97 167.835 138.925 167.714 138.879H167.755C167.513 138.788 167.594 138.834 167.634 138.879C167.714 138.925 167.674 138.925 167.634 138.879C167.554 138.834 167.634 138.879 167.674 138.879C167.674 138.879 167.755 138.97 167.755 139.015L167.674 138.925C167.835 139.106 167.915 139.333 167.956 139.606V139.515C167.956 139.787 167.956 140.105 167.795 140.332V140.241C167.795 140.423 167.634 140.559 167.513 140.65L167.634 140.559C167.594 140.559 167.554 140.559 167.513 140.604C167.513 140.604 167.674 140.559 167.594 140.604C167.513 140.65 167.795 140.604 167.714 140.604H167.875C167.996 140.604 168.157 140.604 168.277 140.695C168.157 140.695 168.478 140.786 168.398 140.741C168.317 140.695 168.277 140.65 168.478 140.741H168.398H168.358C168.277 140.604 168.197 140.559 168.116 140.468L168.197 140.559C168.076 140.423 167.996 140.196 167.956 140.014V140.105C167.915 139.878 167.915 139.651 167.956 139.424C167.996 139.288 167.755 139.152 167.714 139.106C167.513 138.97 167.272 138.879 167.031 138.879C166.79 138.834 166.549 138.834 166.307 138.879C166.187 138.879 166.026 138.925 165.986 139.106L166.066 139.015Z" fill="#9BB0FF"/>
<path d="M154.529 106.1C154.529 106.1 156.298 106.372 156.579 106.826C156.86 107.28 160.921 114.499 161.363 115.043C161.805 115.588 161.443 117.359 161.443 117.359L154.569 106.1H154.529Z" fill="white"/>
<path d="M154.609 107.054C154.931 107.099 155.293 107.19 155.614 107.281C155.614 107.281 155.815 107.326 155.896 107.372C155.976 107.417 156.016 107.417 156.056 107.463C155.976 107.372 155.896 107.463 156.056 107.463C155.896 107.281 155.775 107.099 155.896 107.372C156.257 108.098 156.7 108.734 157.061 109.415C158.107 111.276 159.152 113.138 160.237 114.954C160.318 115.09 160.398 115.181 160.438 115.317C160.478 115.453 160.599 115.589 160.519 115.453C160.599 115.998 160.559 116.497 160.438 117.042H162.167C162.167 117.087 156.137 107.236 156.137 107.236L155.293 105.828C155.011 105.329 154.489 105.102 154.006 105.238C153.644 105.42 153.484 105.874 153.644 106.282C153.644 106.328 153.685 106.418 153.725 106.464L159.715 116.316L160.559 117.723C160.88 118.268 162.086 118.767 162.287 117.768C162.488 116.679 162.529 115.498 161.966 114.545C161.483 113.773 161.041 113.001 160.599 112.184C159.514 110.323 158.509 108.416 157.383 106.6C156.74 105.51 155.494 105.283 154.408 105.102C154.046 105.011 153.644 105.238 153.564 105.692C153.564 105.737 153.564 105.828 153.564 105.874C153.644 106.464 154.046 106.918 154.569 106.963L154.609 107.054Z" fill="#9BB0FF"/>
<path d="M125.183 104.737L114.932 86.305L115.776 85.7148L126.309 103.92L125.183 104.737Z" fill="white"/>
<path d="M126.027 104.103L122.57 97.8374L117.063 87.9402L115.776 85.6248L115.294 86.8506L116.098 86.2604H114.892C114.892 86.3058 118.47 92.4802 118.47 92.4802L124.138 102.287L125.464 104.557L125.947 103.331L124.821 104.148C124.5 104.375 124.098 104.965 124.339 105.374C124.58 105.782 125.223 105.555 125.545 105.328L126.67 104.511C126.992 104.284 127.394 103.694 127.153 103.285L123.575 97.111L117.907 87.3046L116.58 85.0346C116.339 84.5806 115.696 84.853 115.374 85.08L114.57 85.6702C114.249 85.8972 113.847 86.442 114.088 86.896L117.545 93.1612L123.052 103.058L124.339 105.374C124.781 106.191 126.469 104.92 125.987 104.103H126.027Z" fill="#9BB0FF"/>
<path d="M126.269 77.9515L127.113 77.3613L137.364 95.1127L136.52 95.7029L126.269 77.9515Z" fill="white"/>
<path d="M137.283 95.9306L133.826 89.9378L128.318 80.4038L127.072 78.1792V78.724C127.032 78.724 127.836 78.1338 127.836 78.1338L126.389 77.135L129.846 83.1278L135.353 92.6618L136.64 94.8864V94.3416C136.68 94.3416 135.876 94.9318 135.876 94.9318C135.313 95.3404 136.76 96.8386 137.243 96.4754L138.087 95.8852C138.288 95.749 138.248 95.522 138.127 95.3404L134.67 89.3476L129.163 79.8136L127.876 77.589C127.715 77.2712 127.474 76.9988 127.193 76.8172C127.032 76.7264 126.63 76.454 126.469 76.5902L125.665 77.1804C125.504 77.3166 125.504 77.5436 125.625 77.7252L129.082 83.718L134.59 93.252L135.876 95.4766C136.117 95.9306 136.519 96.2938 137.002 96.4754C137.363 96.6116 137.605 96.3846 137.363 95.976L137.283 95.9306Z" fill="#9BB0FF"/>
<path d="M115.053 87.8039C115.053 87.8039 116.781 86.8959 116.661 86.6235L115.294 84.2627C115.294 84.2627 121.123 78.0883 124.66 77.3619C124.66 77.3619 126.108 79.9951 126.51 79.5411C126.912 79.0871 128.399 78.1791 128.077 77.5889C127.756 76.9987 126.831 74.2293 125.062 73.8661C123.294 73.5029 113.766 80.0405 113.163 82.6283C112.56 85.2161 115.012 87.8493 115.012 87.8493L115.053 87.8039Z" fill="white"/>
<path d="M115.857 88.4845C116.419 88.1667 117.947 87.5765 117.465 86.6231C117.063 85.8059 116.54 85.0341 116.098 84.2623V84.9433C117.143 83.8537 118.269 82.8095 119.394 81.8107C121.123 80.3125 123.133 78.5873 125.304 78.1333L123.856 77.4069C124.299 78.3603 124.942 79.2229 125.706 79.9039C126.268 80.3579 126.912 80.5395 127.474 80.0401C127.957 79.5861 128.6 79.2229 128.922 78.6327C129.042 78.3603 129.082 78.0879 128.962 77.8155C128.881 77.6339 128.801 77.4069 128.68 77.2253C128.399 76.5897 128.077 75.9995 127.716 75.4093C126.952 74.2289 125.665 73.0031 124.258 73.1393C123.374 73.2755 122.53 73.5933 121.766 74.0927C120.681 74.6829 119.635 75.3185 118.63 75.9995C116.62 77.3615 114.53 78.8597 113.002 80.8573C112.721 81.1751 112.52 81.5383 112.359 81.9015C112.118 82.7187 112.118 83.6267 112.359 84.4439C112.761 85.8059 113.445 87.0317 114.409 88.0305C114.731 88.3483 115.294 88.7115 115.736 88.5299C116.178 88.3483 116.017 87.8943 115.736 87.6219C115.173 87.0317 114.731 86.3053 114.409 85.5335C114.007 84.5801 113.806 83.3997 114.369 82.4463C114.811 81.7653 115.334 81.1297 115.937 80.6303C116.741 79.8585 117.585 79.1321 118.47 78.4965C120.158 77.1345 121.927 75.9995 123.816 75.0461C124.138 74.9099 124.5 74.7737 124.821 74.6375C124.942 74.6375 125.062 74.5467 125.223 74.5467C125.384 74.5467 125.062 74.5467 125.223 74.5467H125.384C125.223 74.5467 125.223 74.5013 125.304 74.5467C125.304 74.5467 125.464 74.6375 125.384 74.5467C125.625 74.7283 125.826 74.9099 125.987 75.1823C126.309 75.6363 126.55 76.1357 126.791 76.6351C126.871 76.8167 126.992 77.0891 127.113 77.3161C127.113 77.3161 127.113 77.4069 127.153 77.4069C127.193 77.3161 127.032 77.5431 127.032 77.5431C126.831 77.8155 126.59 77.9971 126.349 78.1787C126.188 78.3149 125.826 78.5419 125.706 78.7235C125.665 78.6781 125.625 78.8597 125.706 78.7235L126.389 78.8597L126.51 78.9505C126.63 78.9505 126.59 79.0867 126.51 78.9505C126.429 78.8143 126.429 78.8597 126.349 78.7689C126.188 78.5873 126.067 78.3603 125.907 78.1787C125.706 77.8609 125.505 77.5431 125.344 77.2253C125.022 76.6805 124.459 76.4081 123.897 76.4989C121.645 76.9983 119.555 78.7235 117.786 80.2671C116.62 81.2659 115.455 82.3555 114.369 83.4905C114.208 83.6721 114.208 83.9445 114.369 84.1261C114.771 84.8979 115.173 85.6243 115.615 86.3053C115.696 86.4415 115.656 86.5777 115.656 86.2599C115.656 85.9421 115.656 86.0329 115.575 86.1237C115.374 86.2145 115.213 86.3507 115.053 86.4869C114.771 86.6685 114.45 86.8501 114.168 86.9863C113.766 87.2133 114.289 87.8943 114.49 88.0305C114.852 88.3937 115.334 88.5299 115.776 88.3483L115.857 88.4845Z" fill="#9BB0FF"/>
<path d="M124.942 110.731C129.806 118.858 134.791 126.848 139.856 134.839C141.303 137.063 142.75 139.333 144.197 141.558C144.479 142.012 145.001 142.284 145.484 142.239C145.765 142.239 146.006 141.967 146.006 141.603C146.006 141.467 145.966 141.376 145.886 141.24C140.74 133.341 135.715 125.35 130.771 117.269C129.364 114.999 127.997 112.684 126.59 110.414C126.308 109.914 125.826 109.687 125.303 109.733C125.022 109.733 124.781 110.005 124.781 110.368C124.781 110.504 124.821 110.595 124.901 110.731H124.942ZM134.911 105.011C138.65 113.001 144.197 119.584 148.74 126.985C150.026 129.028 151.232 131.207 152.278 133.431C152.519 133.885 153.001 134.158 153.484 134.022C153.805 133.976 154.448 133.568 154.207 133.068C150.469 125.078 144.921 118.495 140.378 111.14C139.092 109.097 137.886 106.918 136.841 104.693C136.6 104.239 136.117 103.967 135.635 104.103C135.313 104.148 134.67 104.557 134.911 105.056V105.011ZM160.036 126.304C155.695 119.721 151.594 112.956 147.655 106.055C146.529 104.103 145.444 102.105 144.358 100.153C144.077 99.6538 143.594 99.4268 143.072 99.5176C142.71 99.6084 142.228 100.017 142.509 100.516C146.368 107.599 150.469 114.545 154.77 121.355C155.976 123.262 157.222 125.214 158.468 127.075C159.031 127.938 160.84 127.484 160.076 126.349L160.036 126.304Z" fill="white"/>
<path d="M125.866 76.7715C125.866 74.4561 125.263 72.2315 124.218 70.2793C122.449 67.1013 119.475 69.0081 120.198 70.8241C120.922 72.6401 122.49 75.0009 122.007 77.5433" fill="#9F616A"/>
<path d="M126.751 76.2722C126.751 75.228 126.63 74.2292 126.389 73.2304C126.188 72.277 125.866 71.369 125.504 70.5064C125.183 69.6438 124.66 68.9174 123.977 68.3726C122.771 67.51 121.364 67.964 120.319 68.872C119.796 69.2352 119.434 69.8254 119.273 70.461C119.273 71.0512 119.394 71.6414 119.675 72.0954C120.52 73.9114 121.565 75.8636 121.203 77.9974C121.123 78.3606 121.927 77.9974 122.007 77.952C122.288 77.7704 122.851 77.4526 122.932 76.9986C123.253 75.2734 122.65 73.639 121.967 72.1408C121.645 71.5052 121.324 70.8242 121.082 70.1432C120.962 69.78 121.002 69.3714 121.203 69.0536C121.243 68.9628 121.123 69.1898 121.203 69.0536C121.364 68.872 121.203 69.0082 121.203 69.0536C121.364 68.9174 121.042 69.1898 121.163 69.0536C121.283 68.9174 120.922 69.2352 121.123 69.099C120.721 69.3714 121.283 69.0536 120.922 69.2352C121.082 69.1444 120.801 69.2352 120.922 69.2352H121.042C120.922 69.2352 121.123 69.2352 121.163 69.2352C121.645 69.2352 122.087 69.3714 122.489 69.6892C123.052 70.1886 123.535 70.8696 123.816 71.596C124.218 72.4132 124.499 73.3212 124.741 74.2292C124.982 75.228 125.143 76.2268 125.102 77.271C125.102 77.6342 125.786 77.271 125.906 77.2256C126.148 77.0894 126.349 76.9078 126.55 76.7262C126.63 76.6354 126.831 76.4538 126.831 76.2722H126.791H126.751Z" fill="#20044E"/>
<path d="M118.671 77.6792C118.671 77.6792 114.45 76.5442 113.525 79.0412C112.6 81.5382 115.294 86.623 117.063 85.0794C118.831 83.5358 117.223 80.3124 117.223 80.3124" fill="#9F616A"/>
<path d="M119.233 77.0435C118.268 76.7711 117.223 76.6803 116.218 76.8165C114.57 76.9981 112.56 77.8607 112.319 79.9945C112.158 81.7197 112.841 83.5811 113.887 84.8523C114.329 85.4425 114.932 85.8511 115.615 85.9873C116.66 86.0781 117.706 85.5787 118.349 84.5799C119.193 83.2633 118.791 81.3111 118.148 79.9945C117.947 79.5859 117.384 79.6767 117.022 79.8129C116.821 79.9037 116.017 80.2669 116.218 80.6755C116.701 81.5835 116.942 82.7185 116.821 83.7627C116.781 84.0805 116.66 84.3529 116.5 84.6253C116.419 84.7161 116.379 84.7615 116.299 84.8523C116.218 84.9431 116.379 84.7615 116.258 84.8523C116.138 84.9431 116.459 84.7615 116.339 84.8069C116.218 84.8523 116.5 84.7615 116.459 84.7615C116.419 84.7615 116.299 84.7615 116.58 84.7615C116.701 84.7615 116.5 84.7615 116.459 84.7615L116.258 84.6707H116.178C116.098 84.5799 116.258 84.6707 116.178 84.6253L116.017 84.4891C115.897 84.3983 115.776 84.2621 115.655 84.1259C114.731 83.0363 114.208 81.6743 114.128 80.1761C114.128 79.8583 114.128 79.4951 114.248 79.1773C114.248 79.0411 114.329 78.9503 114.369 78.8595C114.369 78.8141 114.449 78.7233 114.49 78.6779C114.57 78.5871 114.57 78.5871 114.49 78.6779C114.409 78.7687 114.53 78.6325 114.57 78.6325L114.691 78.4963C114.53 78.6779 114.691 78.4963 114.731 78.4963C114.892 78.3601 114.61 78.5417 114.731 78.4963H114.811C114.972 78.3601 114.811 78.4055 114.771 78.4509C114.811 78.4509 114.892 78.4055 114.972 78.3601C114.972 78.3601 115.253 78.2693 115.093 78.3601C114.932 78.4509 115.173 78.3601 115.213 78.3601H115.454C115.454 78.3147 115.615 78.3147 115.454 78.3147H116.5H116.419H116.982C117.304 78.4055 117.585 78.4509 117.866 78.5417C118.349 78.6325 118.871 78.4509 119.233 78.0423C119.555 77.6791 119.434 77.4067 119.032 77.2705L119.233 77.0435Z" fill="#20044E"/>
<path d="M121.926 75.6363C121.926 75.6363 117.705 74.5013 116.781 76.9983C115.856 79.4953 118.55 84.5801 120.318 83.0365C122.087 81.4929 120.479 78.2695 120.479 78.2695" fill="#9F616A"/>
<path d="M122.49 74.8194C120.037 74.1838 116.017 74.3654 115.656 77.9974C115.575 79.8134 116.138 81.6294 117.223 82.9914C117.706 83.6724 118.389 84.1264 119.113 84.2626C120.118 84.2626 121.042 83.7178 121.565 82.719C122.409 81.1754 122.047 79.1778 121.324 77.6796C120.882 76.7716 119.153 77.952 119.635 78.86C119.676 78.9508 119.716 79.0416 119.756 79.1324C119.796 79.2232 119.836 79.314 119.877 79.4048C119.917 79.4956 119.957 79.5864 119.877 79.4502C119.877 79.541 119.917 79.6318 119.957 79.7226C120.078 80.0404 120.158 80.4036 120.198 80.7668C120.238 81.0846 120.238 81.4478 120.198 81.7656C120.198 81.811 120.118 81.9926 120.198 81.8564C120.198 81.9472 120.158 82.038 120.118 82.1288C120.118 82.1288 120.118 82.2196 120.078 82.2196C120.078 82.2196 120.037 82.265 119.997 82.3104C120.158 82.1742 119.957 82.4012 119.997 82.3104C119.917 82.4012 119.796 82.4466 119.997 82.3104C119.957 82.3104 119.756 82.4466 119.957 82.3558C120.158 82.265 120.037 82.3558 119.957 82.3558C119.836 82.4012 120.037 82.3104 120.037 82.3558C120.037 82.4012 119.756 82.3558 119.957 82.3558C120.158 82.3558 119.917 82.3558 119.877 82.3558C120.037 82.4012 119.756 82.3558 119.877 82.3558H119.716C119.716 82.3104 119.635 82.265 119.635 82.265C119.756 82.3558 119.555 82.265 119.635 82.265C119.394 82.0834 119.153 81.9018 118.992 81.6748C118.872 81.5386 118.992 81.6748 118.912 81.584L118.791 81.4024C118.671 81.2662 118.59 81.0846 118.47 80.903C118.269 80.5852 118.108 80.222 117.987 79.9042C117.867 79.5864 117.786 79.2686 117.706 78.9054C117.706 78.7238 117.625 78.5422 117.625 78.406C117.625 78.3152 117.625 78.2244 117.625 78.1336C117.625 78.0428 117.625 77.8612 117.625 77.9066C117.625 77.8612 117.625 77.8158 117.625 77.7704C117.625 77.6796 117.625 77.5888 117.625 77.498C117.625 77.4072 117.625 77.3164 117.625 77.2256C117.625 77.044 117.625 77.271 117.625 77.1802C117.625 77.0894 117.666 77.044 117.706 76.9532C117.786 76.7262 117.625 76.9986 117.706 76.9078C117.746 76.8624 117.786 76.7716 117.826 76.7262C117.867 76.6354 117.786 76.817 117.746 76.817C117.706 76.817 117.786 76.7716 117.826 76.7262L117.907 76.6354C117.907 76.6354 117.706 76.7716 117.826 76.7262C117.947 76.6808 117.947 76.6354 118.027 76.59H118.108C118.188 76.4538 117.987 76.59 118.027 76.59C118.068 76.59 118.228 76.4992 118.269 76.4992C118.309 76.4992 118.429 76.4538 118.47 76.4084C118.51 76.363 118.389 76.4084 118.389 76.4084H118.51C118.671 76.3176 118.831 76.3176 118.952 76.2722H119.193H119.756C120.078 76.2722 120.359 76.2722 120.681 76.363H121.042C121.042 76.4084 121.203 76.4538 121.203 76.4538C121.404 76.4538 121.042 76.4538 121.163 76.4538H121.404C121.887 76.6354 122.409 76.4084 122.691 75.9544C122.892 75.5912 122.972 74.9556 122.49 74.8194ZM134.308 161.579C134.308 161.579 141.343 171.612 142.509 171.113C143.675 170.613 153.685 145.462 152.278 145.235C150.871 145.008 142.147 154.088 142.147 154.088L137.283 150.955L134.308 161.624V161.579Z" fill="#20044E"/>
<path d="M134.107 162.078C135.032 163.395 135.997 164.711 136.962 165.982C138.369 167.844 139.816 169.887 141.585 171.385C141.906 171.657 142.59 172.338 143.032 172.066C143.313 171.884 143.554 171.385 143.715 171.067C144.519 169.524 145.283 167.889 145.966 166.255C147.976 161.624 149.826 156.857 151.474 152.045C152.077 150.41 152.599 148.73 152.961 147.005C153.082 146.415 153.042 145.779 152.8 145.235C152.64 144.826 152.318 144.281 151.876 144.236C151.635 144.236 151.393 144.327 151.152 144.463C150.388 144.917 149.665 145.462 148.981 146.097C148.017 146.914 147.132 147.777 146.208 148.64C144.76 150.047 143.313 151.454 141.906 152.907L141.665 153.134H141.906L137.042 150.002C136.962 149.956 136.761 149.911 136.72 150.092L134.107 159.399L133.746 160.761C133.625 161.215 133.906 161.76 134.107 162.123C134.188 162.26 134.751 162.986 134.871 162.532L137.484 153.225L137.846 151.863L137.524 151.954L142.389 155.086C142.469 155.132 142.549 155.132 142.63 155.086C145.243 152.408 147.896 149.684 150.75 147.414C151.273 147.005 151.876 146.46 152.519 146.279C152.439 146.279 152.64 146.279 152.64 146.279C152.64 146.687 152.479 146.188 152.559 146.279C152.358 146.052 152.157 145.825 151.996 145.598C151.916 145.462 151.876 145.28 151.795 145.144C151.715 144.871 151.755 144.917 151.795 144.962C151.836 145.008 151.795 144.781 151.795 144.962C151.795 145.053 151.795 145.189 151.795 145.28C151.715 145.87 151.554 146.415 151.393 146.96C151.152 147.822 150.871 148.685 150.589 149.548C149.062 154.133 147.293 158.628 145.444 163.077C144.68 164.893 143.916 166.663 143.072 168.434C142.831 168.933 142.549 169.433 142.268 169.887C142.268 169.887 142.107 170.068 142.147 170.023C142.188 169.978 142.107 170.114 142.067 170.114C142.027 170.114 141.946 170.159 141.826 170.114L141.665 170.023H141.585C141.424 169.841 141.303 169.751 141.142 169.614C140.821 169.342 140.539 169.024 140.258 168.706C139.494 167.844 138.771 166.936 138.047 166.028C137.323 165.12 136.6 164.166 135.916 163.213L135.474 162.623L135.273 162.35L135.193 162.26L134.63 161.488L134.429 161.215C134.268 161.034 133.906 160.444 133.665 160.807C133.424 161.17 133.906 161.942 134.067 162.169L134.107 162.078ZM63.5563 133.839C63.5563 133.839 58.7323 121.854 57.4861 122.035C56.2399 122.217 41.6473 143.328 42.9337 144.009C44.2201 144.69 54.4711 138.652 54.4711 138.652L58.5715 143.237L63.5563 133.839Z" fill="#20044E"/>
<path d="M64.5209 133.521C63.9581 132.069 63.3149 130.661 62.7119 129.208C61.7873 126.893 60.6617 124.714 59.4155 122.58C59.0135 121.944 58.4909 121.218 57.7673 121.082C57.1643 121.036 56.6015 121.263 56.1995 121.763C55.0739 122.943 54.0689 124.26 53.1041 125.622C50.2097 129.526 47.4359 133.567 44.8631 137.744C43.8983 139.242 43.0139 140.785 42.2501 142.42C42.0089 142.828 41.8883 143.328 41.8481 143.827C41.9285 144.917 43.0943 144.917 43.8179 144.781C44.7023 144.599 45.5465 144.281 46.3907 143.873C47.4761 143.419 48.5615 142.874 49.6067 142.329C51.3353 141.421 53.0639 140.468 54.7523 139.514L55.0337 139.333L53.6669 139.06L57.7673 143.646C58.2095 144.145 59.1341 144.236 59.4959 143.555L63.8375 135.337L64.4807 134.157C65.0837 133.022 63.2345 132.386 62.7119 133.34L58.3703 141.557L57.7673 142.738L59.4959 142.647L55.3955 138.061C55.0337 137.653 54.4709 137.562 54.0287 137.789C52.8629 138.47 51.6971 139.106 50.5313 139.741C49.5263 140.286 48.4811 140.831 47.4761 141.33C46.9535 141.603 46.4309 141.83 45.9083 142.057C45.3857 142.284 45.1445 142.42 44.7023 142.556C44.3405 142.692 43.9787 142.828 43.6169 142.919C43.5365 142.919 43.4561 142.919 43.4159 142.965C43.6571 142.965 43.2953 143.01 43.4159 142.965C43.3757 142.965 43.2953 142.965 43.2551 142.965C43.1747 142.965 43.5365 142.965 43.3355 142.965C43.5767 143.01 43.7777 143.192 43.8983 143.419C43.8983 143.328 43.8983 143.691 43.8983 143.555C43.9385 143.555 43.8983 143.691 43.8983 143.555V143.464C43.8983 143.373 43.9787 143.282 43.9787 143.192C43.9787 143.101 44.0591 142.965 44.0993 142.874C44.1395 142.783 44.0189 143.055 44.0993 142.874L44.2199 142.647C44.3807 142.329 44.5415 142.011 44.7023 141.739C45.1445 140.967 45.5867 140.195 46.0289 139.423C48.4409 135.428 51.0539 131.615 53.7875 127.846C54.3905 127.029 54.9935 126.212 55.5965 125.395C55.8779 125.032 56.1191 124.714 56.4005 124.351C56.5211 124.214 56.6417 124.078 56.7623 123.897C56.8829 123.715 56.6417 124.033 56.8025 123.851C56.8427 123.806 56.9231 123.715 56.9633 123.624C57.2849 123.261 57.6065 122.898 57.9683 122.58C58.1291 122.398 57.7271 122.716 57.9683 122.58C57.7271 122.671 57.4859 122.671 57.2849 122.625C57.2447 122.625 56.9633 122.444 57.2045 122.625C57.2045 122.625 57.3251 122.762 57.3653 122.807C57.8879 123.488 58.3301 124.26 58.6919 125.032C59.2547 126.121 59.7773 127.211 60.2999 128.346C61.1039 130.071 61.8275 131.842 62.5511 133.612L62.6717 133.93C63.0737 134.929 65.0435 134.475 64.6013 133.385L64.5209 133.521Z" fill="#20044E"/>
<path d="M87.3143 137.607L134.348 169.205L142.871 143.236L95.0729 114.135L72.7619 118.947C72.7619 118.947 71.5157 134.883 68.0987 134.519C65.1239 134.156 63.0737 125.757 63.0737 125.757L54.7925 141.874C54.7925 141.874 61.4255 173.382 72.0785 166.617C82.7315 159.853 87.2741 137.607 87.2741 137.607H87.3143Z" fill="#20044E"/>
<path d="M86.43 138.108L91.1334 141.286L102.349 148.822L115.937 157.947L127.675 165.847L131.575 168.435C132.178 168.889 132.781 169.297 133.384 169.661C133.384 169.661 133.424 169.661 133.464 169.706C133.665 169.842 134.228 169.57 134.429 169.479C134.63 169.388 135.152 169.161 135.273 168.889L138.167 160.081L142.75 146.143L143.795 142.92C143.795 142.875 143.795 142.829 143.755 142.784L141.263 141.24L134.791 137.29L125.866 131.842L115.977 125.85L106.731 120.22L99.6156 115.862C98.49 115.181 97.3242 114.363 96.1584 113.773C95.877 113.682 95.5554 113.682 95.2338 113.773L92.0982 114.454L81.6864 116.724L73.8474 118.404L73.4454 118.495C73.0836 118.586 71.958 118.858 71.9178 119.403C71.6766 122.717 71.1942 126.031 70.4706 129.3C70.2294 130.344 69.948 131.343 69.5862 132.342C69.345 133.068 68.943 133.749 68.4606 134.339C68.4606 134.339 68.4204 134.339 68.3802 134.385C68.34 134.43 68.5008 134.294 68.4204 134.385L68.6214 134.294C68.7822 134.203 68.943 134.203 69.1038 134.112H68.9832C68.5812 134.067 68.2194 133.885 67.938 133.613C67.134 132.887 66.4908 131.933 66.0084 130.889C65.1642 129.164 64.521 127.302 64.0788 125.441C63.9582 125.032 62.3502 125.94 62.2296 126.213L59.1744 132.115L54.6318 140.968L54.069 142.057C53.9886 142.148 53.9484 142.284 53.9082 142.421C53.9484 142.875 54.069 143.329 54.2298 143.783C54.8328 146.28 55.5162 148.731 56.28 151.183C57.285 154.452 58.5714 157.63 60.1392 160.671C61.506 163.214 63.1944 165.938 65.5662 167.345C68.2194 168.934 71.154 167.89 73.5258 166.165C76.8624 163.759 79.395 160.217 81.4452 156.404C83.3748 152.726 84.9828 148.867 86.229 144.872C86.9928 142.511 87.636 140.151 88.1586 137.744C88.1586 137.608 88.1988 137.517 88.239 137.381C88.3194 137.063 87.5958 137.381 87.4752 137.381C87.234 137.472 86.4702 137.744 86.3898 138.062C86.028 139.742 85.5858 141.376 85.1436 143.011C84.0984 146.688 82.812 150.275 81.2844 153.725C79.5156 157.584 77.385 161.352 74.5308 164.303C73.8474 164.984 73.1238 165.62 72.36 166.21C72.1992 166.346 72.0384 166.437 71.8776 166.528C71.7972 166.573 71.6766 166.664 71.5962 166.71C71.355 166.846 71.757 166.619 71.5158 166.755C71.4756 166.755 71.0736 166.982 71.355 166.846L71.154 166.937C71.4354 166.8 71.1138 166.937 71.0736 166.937C70.8324 167.027 71.2746 166.891 71.0334 166.937H70.8324C70.5912 167.073 70.9932 166.937 70.752 166.982H70.551C70.3098 167.073 70.0284 167.073 69.7872 167.073C69.2646 167.073 68.742 166.937 68.2194 166.71C65.8074 165.756 64.0788 163.259 62.712 160.944C61.104 158.038 59.7372 154.996 58.692 151.773C57.8076 149.185 57.0036 146.507 56.3604 143.828C56.1996 143.147 55.9986 142.421 55.878 141.74C55.878 141.649 55.8378 141.558 55.7976 141.422C55.7976 141.558 55.7976 141.422 55.8378 141.422C55.878 141.422 55.9584 141.195 55.9986 141.104L63.8376 125.85L64.0386 125.441L62.1894 126.213C62.6316 127.983 63.2346 129.709 63.9984 131.388C64.4808 132.523 65.1642 133.522 65.9682 134.385C66.6918 135.066 67.6566 135.202 68.5008 134.839C69.4254 134.521 70.1892 133.84 70.752 132.977C71.2344 132.115 71.5962 131.207 71.8374 130.208C72.4806 127.893 72.963 125.486 73.2444 123.08C73.4454 121.582 73.6464 120.084 73.7268 118.54L72.1992 119.448L81.2442 117.496L93.5454 114.908C93.867 114.908 94.1886 114.817 94.5102 114.681C94.5504 114.681 94.1886 114.59 94.269 114.681C94.3092 114.727 94.3896 114.772 94.4298 114.772L96.4398 115.998L105.284 121.4L117.706 128.982L130.248 136.609L139.414 142.194L141.625 143.556L141.986 143.783C141.866 143.692 141.986 143.601 141.906 143.783C141.826 143.964 141.785 144.1 141.745 144.282L137.725 156.495L133.665 168.889L133.424 169.615L135.233 168.798L130.529 165.62L119.314 158.084L105.766 148.958L94.0278 141.059L90.1686 138.471C89.5656 138.017 88.9626 137.608 88.3596 137.245H88.2792C87.9978 137.018 87.3144 137.427 87.0732 137.563C86.9526 137.608 86.2692 138.017 86.5104 138.198L86.43 138.108Z" fill="#20044E"/>
<path d="M78.3899 128.482C78.3899 128.482 107.414 123.488 108.781 117.722C111.676 105.282 99.9371 68.1451 88.1183 73.9563C72.7217 81.5381 69.7067 125.485 78.3899 128.482Z" fill="white"/>
<path d="M78.6311 129.435C81.5255 128.935 84.4199 128.345 87.3143 127.664C92.4197 126.529 97.6055 125.258 102.51 123.306C104.399 122.579 106.369 121.717 108.017 120.445C108.66 119.991 109.183 119.356 109.545 118.629C109.947 117.812 109.987 116.768 110.108 115.86C110.309 113.227 110.228 110.548 109.866 107.915C109.464 104.737 108.861 101.559 108.057 98.4719C106.449 92.2067 104.158 85.8961 100.821 80.5389C98.4095 76.6345 94.7111 72.0945 90.0479 72.4123C87.9173 72.5485 85.9475 73.8651 84.2993 75.3179C82.4903 77.0431 80.9225 79.0407 79.6763 81.3107C76.7417 86.4863 75.0131 92.4791 73.8875 98.4719C72.7619 104.328 72.3599 110.367 72.7619 116.359C72.8825 118.72 73.2845 121.081 73.8875 123.351C74.3699 125.076 75.0935 126.847 76.2995 128.073C76.8221 128.617 77.4653 129.026 78.1085 129.298C78.5507 129.435 79.1537 129.435 79.3145 128.844C79.4753 128.254 79.0733 127.755 78.6713 127.619C78.5507 127.573 78.4301 127.528 78.2693 127.437C78.3899 127.528 78.0281 127.346 78.2693 127.437C78.1487 127.346 78.1487 127.346 78.0683 127.301C77.9477 127.21 77.8271 127.119 77.7065 127.028C77.8271 127.165 77.7869 127.074 77.7065 127.028L77.5055 126.801C77.3849 126.665 77.3045 126.529 77.1839 126.393L77.0633 126.211C77.2643 126.484 77.0633 126.211 77.0231 126.12C76.8221 125.803 76.6211 125.439 76.4603 125.076C76.3799 124.895 76.2995 124.713 76.2191 124.531C76.0985 124.259 76.2191 124.622 76.1789 124.395L76.0583 124.032C75.8975 123.578 75.7769 123.124 75.6563 122.67C75.3749 121.626 75.1739 120.582 75.0131 119.492C74.8523 118.357 74.7317 117.177 74.6513 115.996C74.5709 114.634 74.5307 113.272 74.5709 111.91C74.5709 109.005 74.8121 106.054 75.1739 103.148C75.9377 97.2461 77.3447 91.2987 79.6361 85.8961C81.5657 81.4015 84.3395 76.9523 88.3997 74.7731C88.2389 74.8639 88.5203 74.7277 88.5605 74.6823L88.8821 74.5461C89.1233 74.4553 89.3243 74.3645 89.5655 74.3191L89.8469 74.2283C90.0881 74.1829 89.6459 74.2283 89.8469 74.2283H89.9675C90.2087 74.2283 90.4097 74.1829 90.6509 74.1829H90.9725C91.1333 74.1829 90.7313 74.1829 90.9725 74.1829H91.0931C91.3343 74.1829 91.5353 74.2283 91.7765 74.2737L92.0579 74.3645C92.2991 74.4099 91.8971 74.3191 92.1785 74.3645C92.4599 74.4099 92.6207 74.5461 92.8217 74.6369C93.0227 74.7277 93.2237 74.8185 93.4247 74.9093C93.6257 75.0001 93.2639 74.8185 93.4247 74.9093L93.5855 75.0001L93.9071 75.2271C94.3493 75.4995 94.7513 75.8173 95.1533 76.1805L95.3543 76.3621L95.6357 76.6345C95.8367 76.8615 96.0779 77.0431 96.2789 77.2701C96.6809 77.7241 97.0829 78.1781 97.4447 78.6775C99.0929 80.8567 100.5 83.2629 101.625 85.8507C102.952 88.7109 104.078 91.6619 105.002 94.7037C106.771 100.333 108.098 106.371 108.218 112.319C108.218 113.499 108.218 114.68 108.057 115.815C108.057 116.087 107.977 116.314 107.937 116.586C107.937 116.405 107.937 116.677 107.937 116.723C107.937 116.859 107.897 116.995 107.856 117.131C107.856 117.267 107.776 117.404 107.736 117.54C107.736 117.585 107.696 117.631 107.655 117.676C107.776 117.404 107.655 117.676 107.615 117.721C107.535 117.858 107.454 117.948 107.374 118.085L107.213 118.266C107.173 118.312 106.932 118.539 107.133 118.357C106.851 118.629 106.57 118.856 106.248 119.083C105.887 119.356 105.525 119.583 105.163 119.764C104.962 119.901 104.761 119.991 104.56 120.082C104.64 120.037 104.359 120.173 104.56 120.082L104.399 120.173L104.037 120.355C99.4547 122.579 94.5101 123.805 89.6861 124.985C85.9475 125.893 82.5707 126.62 78.7517 127.301L78.1889 127.392C76.8623 127.619 77.5457 129.435 78.6311 129.253V129.435Z" fill="#20044E"/>
<path d="M86.3496 77.7245C86.8722 80.4485 87.7164 83.1271 88.842 85.6241C88.8822 85.7149 89.2842 86.6683 89.445 86.5321L94.872 83.0817C95.1132 82.9001 94.1886 80.9025 93.9876 81.0387L88.5606 84.4891L89.1636 85.3971C88.3194 83.4903 87.7164 81.4473 87.3144 79.3589C87.1938 78.8595 86.9928 78.3601 86.7516 77.9515C86.7114 77.8607 86.2692 77.2705 86.3898 77.7245H86.3496Z" fill="#20044E"/>
<path d="M54.1494 114.044L89.6058 98.5625L98.7714 125.348L63.315 140.83L54.1494 114.044Z" fill="#9BB0FF"/>
<path d="M98.651 124.94L95.1134 126.484L86.6714 130.161L76.4204 134.656L67.5362 138.515C66.1292 139.151 64.6016 139.65 63.2348 140.376H63.1946H64.2398L61.1444 131.296L56.1998 116.905L55.0742 113.59L54.23 114.362L57.7676 112.819L66.2096 109.141L76.4606 104.647L85.3448 100.788C86.7518 100.152 88.2794 99.6526 89.6462 98.9262H89.6864H88.6412L91.7366 108.006L96.6812 122.398L97.8068 125.712C97.9676 126.257 99.857 125.485 99.6962 124.94L96.6008 115.86L91.6562 101.469L90.5306 98.1544C90.41 97.7912 89.6462 98.109 89.4854 98.1544L85.9478 99.698L77.5058 103.375L67.2548 107.87L58.3706 111.729C56.9234 112.365 55.5164 113 54.0692 113.59H53.9888C53.828 113.681 53.024 113.999 53.1446 114.362L56.24 123.442L61.1846 137.834L62.3102 141.148C62.4308 141.511 63.1946 141.194 63.3554 141.148L66.893 139.605L75.335 135.927L85.586 131.433L94.4702 127.574C95.9174 126.938 97.3244 126.348 98.7716 125.712H98.852C99.053 125.621 99.8168 125.304 99.6962 124.94C99.5756 124.577 98.7716 124.895 98.6108 124.94H98.651Z" fill="#9BB0FF"/>
<path d="M61.1042 110.595C62.9534 117.405 65.3252 124.078 68.1794 130.434C68.9834 132.296 69.8678 134.112 70.7522 135.882C70.913 136.2 71.6366 136.291 71.918 136.336C72.0386 136.336 72.8024 136.427 72.6818 136.2C69.5864 130.026 66.9332 123.624 64.8026 116.951C64.1996 114.998 63.5966 113.046 63.074 111.049C62.9936 110.731 62.3906 110.64 62.1494 110.549C62.069 110.549 61.064 110.368 61.1042 110.549V110.595ZM80.8424 101.832C83.4956 108.642 85.787 115.634 87.7568 122.716C88.3196 124.759 88.8422 126.802 89.3648 128.845C89.5658 129.572 91.5356 129.345 91.3748 128.8C89.5658 121.536 87.4352 114.408 84.9428 107.417C84.2594 105.419 83.4956 103.467 82.772 101.515C82.5308 100.924 80.561 101.106 80.8424 101.832Z" fill="white"/>
<path d="M72.5206 98.972C73.9276 97.7008 75.817 97.2922 77.5456 98.0186C77.9074 98.1548 78.229 98.3364 78.5908 98.5634C78.7114 98.6542 78.8722 98.745 78.9928 98.8812C79.1134 99.0174 79.0732 98.972 79.1134 98.972C79.1536 98.972 79.033 98.8812 78.9928 98.8358L78.9124 98.745C78.9526 98.8358 78.9928 98.8358 78.9124 98.7904C78.832 98.745 78.9526 98.8812 78.9526 98.8812C79.033 99.0174 79.0732 99.1536 79.1134 99.2898C79.1938 99.6076 79.234 99.9254 79.1938 100.243C79.1536 100.516 79.5958 101.015 79.7566 101.197C79.9174 101.378 80.0782 101.605 80.239 101.741C80.239 101.741 80.5204 101.968 80.5204 101.923C80.641 101.015 80.239 100.198 79.7968 99.4714C79.1134 98.3818 78.229 97.4738 77.1838 96.7928C75.2944 95.567 72.9226 95.7486 71.194 97.2922C71.0332 97.4284 72.3196 99.1536 72.5206 99.0174V98.972Z" fill="#8A47EB"/>
<path d="M73.5258 115.453L75.978 120.22C75.978 120.22 82.812 121.446 80.0784 130.39C80.0784 130.39 76.581 134.113 76.6212 127.484C76.6212 127.484 77.3046 137.699 75.6564 138.834C74.0082 139.969 71.8374 137.654 71.8374 137.654C71.8374 137.654 69.3048 139.651 68.139 137.291C68.139 137.291 67.1742 138.471 65.3652 135.747C63.5562 133.023 60.4608 124.488 62.7924 117.36L73.5258 115.499V115.453Z" fill="#9F616A"/>
<path d="M72.6817 115.134L74.9731 119.628C75.3349 120.309 75.8977 120.763 76.5811 120.899H76.7821C76.7821 120.945 76.9027 120.99 76.9027 120.99C77.1037 121.036 76.7419 120.945 76.9027 120.99L77.2243 121.126L77.4253 121.217C77.5459 121.263 77.2243 121.126 77.4253 121.217L77.8273 121.444C77.8675 121.444 78.1489 121.671 77.9881 121.535C77.8273 121.399 78.1087 121.626 78.1087 121.626L78.3097 121.807C78.0685 121.626 78.6313 122.125 78.5107 121.989C79.0735 122.625 79.4755 123.442 79.6765 124.304C79.9579 125.621 79.9177 126.938 79.6765 128.254C79.5961 128.708 79.5157 129.525 79.2343 129.889C79.1539 129.979 79.0333 130.07 78.9127 130.161C78.6715 130.343 78.4303 130.524 78.1489 130.66C78.0283 130.706 77.8675 130.797 77.7067 130.797C77.6665 130.797 77.5861 130.797 77.5459 130.797H77.4253C77.5459 130.842 77.6263 130.887 77.7469 130.978C77.8273 131.024 77.9077 131.114 77.9881 131.16C78.0685 131.205 77.9881 131.205 77.9881 131.16C77.9881 131.069 77.7871 130.751 77.7469 130.57C77.5459 129.707 77.4253 128.844 77.4655 127.936L75.6967 126.983C75.8173 128.708 75.8575 130.388 75.8575 132.113C75.8575 133.384 75.7771 134.656 75.6163 135.927C75.5359 136.608 75.3751 137.697 74.8525 138.151C74.3299 138.515 73.6465 138.56 73.0837 138.197C73.1641 138.242 72.9631 138.106 72.9631 138.106C72.8827 138.061 73.0435 138.151 72.8827 138.061C72.8425 138.015 72.4807 137.743 72.6415 137.879C72.5611 137.788 72.4405 137.697 72.3601 137.607C72.1591 137.425 71.3149 136.699 70.9933 136.971C70.6717 137.198 70.3501 137.38 69.9883 137.516C69.7069 137.652 69.3853 137.697 69.1039 137.697C68.9431 137.697 68.7823 137.607 68.9431 137.697C69.3049 138.061 69.0637 137.697 68.9431 137.516C68.7421 137.153 67.6165 136.154 67.2547 136.608C67.2949 136.608 67.1743 136.699 67.2547 136.608C67.1743 136.653 67.0939 136.699 66.9733 136.744C66.8929 136.744 66.7723 136.744 66.8527 136.744C66.6919 136.608 66.9733 136.789 66.9733 136.789C66.9733 136.699 66.7723 136.608 66.7321 136.517C65.9683 135.564 65.4055 134.519 64.9633 133.339C63.6769 130.252 62.9533 126.938 62.9131 123.533C62.9131 122.579 62.9131 121.626 63.0739 120.672C63.1141 120.218 63.2347 119.764 63.3151 119.31C63.3553 118.811 63.5161 118.357 63.6769 117.903C63.8377 117.676 63.5965 117.903 63.7171 117.767C63.7975 117.767 63.8377 117.767 63.9181 117.767L64.6819 117.631L70.1491 116.677L74.4103 115.951C74.7721 115.905 74.0485 115.224 74.0083 115.179C73.6867 114.861 73.2445 114.68 72.8425 114.68L63.4357 116.314L62.1091 116.541H62.0287C60.7825 120.536 61.0237 124.849 62.0287 128.799C62.4307 130.433 62.9935 132.022 63.6769 133.521C64.2799 134.973 65.2045 136.245 66.3301 137.198C66.9733 137.697 68.3803 138.56 69.1039 137.743L67.4155 136.835C68.0989 138.151 69.5059 139.105 70.8727 138.969C71.5561 138.878 72.1993 138.605 72.7621 138.197L71.3953 137.561C72.7621 139.014 76.4203 141.284 77.2645 138.197C77.5459 136.971 77.7067 135.7 77.7067 134.429C77.7469 133.021 77.7469 131.614 77.7067 130.206C77.7067 129.435 77.6665 128.663 77.5861 127.936C77.5459 127.392 75.8173 126.484 75.8173 126.983C75.8173 128.118 75.8575 129.435 76.4203 130.388C76.9429 131.296 77.8273 131.886 78.7921 132.022C79.3147 132.022 79.7971 131.886 80.2393 131.568C80.5609 131.387 80.8021 131.16 81.0433 130.887C81.2443 130.433 81.4051 129.934 81.4453 129.389C81.5659 128.754 81.6865 128.118 81.6865 127.482C81.7669 126.438 81.6463 125.439 81.3247 124.486C80.7217 122.852 79.6363 121.49 78.2293 120.672C77.4253 120.128 76.5007 119.719 75.5761 119.537L76.9027 120.491L74.4907 115.815C74.2093 115.361 73.8073 115.043 73.3651 114.907C73.1641 114.861 72.6013 114.725 72.8023 115.134H72.6817Z" fill="#20044E"/>
<path d="M72.5612 137.199C72.5612 137.153 72.4406 136.972 72.5612 137.199C72.6818 137.426 72.5612 137.199 72.5612 137.153L72.4406 136.926C72.1994 136.472 71.9984 136.018 71.7974 135.519C71.7572 135.383 71.6768 135.201 71.6366 135.065L71.5562 134.838C71.5964 135.02 71.5562 134.747 71.5562 134.747C71.4356 134.339 71.3552 133.975 71.2748 133.567C71.0738 132.659 70.9934 131.705 70.9532 130.752C70.9532 130.207 70.5512 129.708 70.0688 129.617C69.707 129.526 69.0236 129.662 69.0236 130.253C69.0236 132.977 69.6668 135.928 71.1542 138.152C71.4758 138.606 72.0386 138.742 72.521 138.515C72.9632 138.243 72.923 137.653 72.6416 137.244L72.5612 137.199ZM68.702 136.79C68.702 136.745 68.6618 136.654 68.6216 136.609C68.6216 136.609 68.7824 136.926 68.702 136.745C68.702 136.745 68.702 136.654 68.6618 136.654L68.5412 136.382C68.3 135.837 68.099 135.292 67.898 134.747C67.7774 134.429 67.6568 134.066 67.5362 133.748C67.496 133.567 67.4558 133.431 67.3754 133.249C67.4558 133.476 67.3754 133.249 67.3754 133.158L67.295 132.84C67.2146 132.477 67.1342 132.114 67.094 131.751C67.094 131.66 67.094 131.569 67.094 131.524C67.094 131.751 67.094 131.524 67.094 131.478V130.934C67.094 130.343 66.7724 129.799 66.29 129.617C65.9684 129.481 65.6468 129.617 65.486 129.935C65.486 130.026 65.4458 130.116 65.4458 130.253C65.3654 131.887 65.8478 133.567 66.4106 135.065C66.7322 135.973 67.1342 136.836 67.5362 137.698C67.7372 138.107 68.3 138.47 68.702 138.198C69.104 137.925 68.9432 137.199 68.7422 136.79H68.702Z" fill="#20044E"/>
<path d="M85.2644 97.2024C70.4306 102.968 75.1742 118.086 75.1742 118.086L61.7072 124.942C61.7072 124.942 54.5516 104.103 62.4308 91.7544C70.31 79.4056 85.8272 76.3184 85.8272 76.3184" fill="white"/>
<path d="M85.5457 96.6116C81.0031 98.4276 76.5409 101.606 74.6113 106.827C73.5259 109.914 73.2445 113.319 73.8073 116.588C73.8877 117.269 74.0485 117.95 74.2495 118.631L75.2143 117.586L63.4759 123.579L61.7875 124.442H62.5915C61.8277 122.036 61.1845 119.675 60.7423 117.223C59.7373 112.138 59.2549 106.827 59.8981 101.651C60.1795 98.8816 60.9433 96.203 62.0689 93.706C63.3151 91.209 64.8829 88.939 66.8125 87.0322C70.2295 83.5364 74.2093 81.0848 78.4303 79.2234C79.9177 78.5878 81.4453 77.9976 82.9729 77.5436C83.4955 77.362 84.0181 77.2258 84.5407 77.0896H84.6613L84.9025 76.9988L85.2241 76.908H85.3447C85.8271 76.8172 86.2693 76.5448 86.5909 76.1362C86.8321 75.8184 86.7517 75.546 86.3497 75.6368C84.2191 76.0908 82.0885 76.7718 80.0383 77.6344C75.4957 79.405 71.1943 81.9928 67.3753 85.307C65.2447 87.1684 63.3553 89.393 61.7071 91.8446C60.2197 94.2054 59.1745 96.8386 58.5715 99.6534C57.4057 105.056 57.7273 110.731 58.5715 116.134C58.9333 118.222 59.3755 120.265 59.8981 122.308C60.0991 123.352 60.4207 124.351 60.7825 125.35C60.7825 125.395 60.7825 125.441 60.8227 125.486C60.9031 125.758 61.5061 125.486 61.6267 125.441L73.3651 119.448L75.0535 118.585C75.2947 118.449 76.1389 117.995 76.0183 117.541C75.5359 115.861 75.2947 114.136 75.3349 112.365C75.3349 108.643 76.3399 105.011 78.5509 102.241C80.2795 100.107 82.5307 98.7 84.9427 97.7466C85.3045 97.6104 85.9075 97.338 86.1085 96.884C86.3095 96.43 85.7869 96.4754 85.5457 96.5662V96.6116Z" fill="#20044E"/>
<path d="M60.5815 96.7931C60.5815 96.7931 71.2747 105.555 83.8975 101.242C96.5203 96.9293 97.6057 87.0775 96.2791 81.9473L93.9073 83.0369L94.7113 86.0333C94.7113 86.0333 90.1285 95.7943 81.6061 95.2949C73.0837 94.7955 69.4657 88.5303 69.4657 88.5303L60.3403 87.2137L60.5815 96.7931Z" fill="#9BB0FF"/>
<path d="M59.8175 97.3827C61.3049 98.5177 62.8727 99.4711 64.5209 100.243C68.2595 102.104 72.2795 103.103 76.3397 103.149C81.2843 103.149 86.1083 101.65 90.3293 98.7901C93.1433 96.8379 95.5955 94.0231 96.8015 90.4819C97.7663 87.6671 97.9271 84.5799 97.2437 81.6289C97.0829 80.9933 96.1985 81.2203 95.8769 81.4019L93.5051 82.4915C93.2237 82.6277 92.8619 82.9909 92.9423 83.3541L93.7463 86.3505V85.9873C93.7463 86.1235 93.6659 86.2597 93.5855 86.3959C93.5051 86.5321 93.4247 86.7137 93.3443 86.8499C93.3041 86.9407 93.2639 87.0315 93.1835 87.1223L93.0227 87.3947C92.2589 88.5751 91.4147 89.7101 90.4499 90.7089C89.2841 91.9347 87.9575 92.9335 86.4701 93.6599C84.6611 94.4771 82.7315 94.7495 80.8019 94.4317C77.3849 94.0231 74.1689 92.3887 71.6765 89.7555C71.1941 89.2107 70.8323 88.6205 70.3499 88.0757C70.1087 87.8487 69.8273 87.7579 69.5459 87.7579L68.2193 87.5763L60.6215 86.4867C60.2597 86.4413 59.2949 86.7591 59.2949 87.3493L59.5361 96.9287C59.5361 97.9729 61.5059 97.5643 61.5059 96.6563L61.2647 87.0769L59.9381 87.9395L67.9379 89.0745L69.0635 89.2561L68.5007 88.9837C69.3047 90.2549 70.2695 91.2991 71.3951 92.2071C74.0885 94.3863 77.2241 95.6575 80.5205 95.9299C83.8973 96.2477 87.2339 95.2489 90.0077 93.0243C91.9373 91.4807 93.5855 89.5285 94.9121 87.3493C95.1533 86.9861 95.6357 86.3959 95.6759 85.8965C95.6759 85.6695 95.6357 85.4879 95.5553 85.2609L95.2739 84.2621L94.8317 82.7185L94.2689 83.5811L96.6407 82.4915L95.2739 82.2645C95.8367 84.5799 95.8367 87.0769 95.2337 89.3923C94.3895 92.5249 92.6207 95.2035 90.2489 97.0649C86.7515 99.9251 82.2893 101.423 78.0281 101.65C74.1287 101.787 70.2293 101.015 66.6113 99.3349C64.7219 98.5177 62.9531 97.4735 61.3049 96.1569C60.6617 95.6575 58.9733 96.7017 59.8175 97.3827Z" fill="#9BB0FF"/>
<path d="M98.2892 58.7931C98.2892 58.7931 97.5254 46.1719 87.797 45.9903C78.0686 45.8087 70.109 58.2029 74.129 70.6425C78.149 83.0821 91.8974 78.2696 91.8974 78.2696L98.2892 58.7931Z" fill="#20044E"/>
<path d="M99.2538 59.0645C98.9322 53.7073 96.279 48.3047 91.6962 46.3525C87.6762 44.6273 82.9326 45.4899 79.395 48.1685C75.6966 50.9379 73.164 55.2963 72.3198 60.2449C71.5158 65.1027 72.3198 70.8685 75.174 74.7729C77.4252 77.8147 80.802 79.3129 84.219 79.7215C86.6712 79.9939 89.1636 79.8123 91.6158 79.1313C91.9776 79.0405 92.661 78.9497 92.862 78.5865C93.1434 77.9509 93.3444 77.2699 93.5052 76.5889L99.093 59.5639L99.2136 59.1553C99.4146 58.5651 97.485 57.9749 97.2438 58.6559L95.073 65.1935L91.6158 75.7263L90.8118 78.1325L91.1736 77.8601C90.4098 78.0871 89.646 78.3141 88.8822 78.4503L88.3596 78.5411H88.0782H87.9174C87.7566 78.5411 87.9576 78.5411 87.8772 78.5411C87.4752 78.5865 87.033 78.6319 86.5908 78.6773C85.6662 78.7681 84.7818 78.7227 83.8572 78.6319C83.616 78.6319 83.3748 78.5865 83.1336 78.5411C83.2944 78.5411 82.9728 78.5411 83.1336 78.5411H82.9728L82.5708 78.4049C82.3296 78.3595 82.0884 78.2687 81.8472 78.2233H81.6462C81.807 78.2233 81.6462 78.1779 81.6462 78.1779L81.204 77.9963C80.2392 77.6331 79.3548 77.0883 78.5508 76.4073C76.38 74.5459 75.1338 71.7311 74.4906 68.7801C72.963 61.9247 75.0534 54.3429 79.9578 49.8937C82.1688 47.8507 84.9024 46.7157 87.7566 46.6249C88.3998 46.6249 89.0028 46.6703 89.6058 46.8065C90.1284 46.8973 90.651 47.0789 91.1334 47.3059C92.058 47.7599 92.9022 48.3955 93.6258 49.2127C95.7966 51.6643 96.882 55.1601 97.2036 58.5651C97.2036 58.7013 97.2036 58.8375 97.2036 58.6559C97.2036 59.4731 99.1734 59.7455 99.1332 59.1553L99.2538 59.0645Z" fill="#20044E"/>
<path d="M101.786 68.8726C103.234 63.1522 94.6711 49.4414 94.6711 49.4414C91.0129 46.6266 80.6011 54.5716 80.6011 54.5716C83.6563 57.6588 85.5859 64.2872 85.5859 64.2872C82.9327 61.4724 79.9177 64.6958 81.4051 68.01C82.8925 71.3242 86.8321 70.5978 86.8321 70.5978C86.8321 70.5978 88.6009 78.3158 89.4049 79.4962C90.2089 80.6766 96.5605 79.9048 98.0479 74.6384C98.0479 74.6384 100.58 73.8212 101.827 68.8272L101.786 68.8726Z" fill="#9F616A"/>
<path d="M102.711 69.3262C103.434 66.4206 102.269 63.1518 101.264 60.5186C100.098 57.5222 98.6908 54.662 97.123 51.8926C96.6808 51.1208 96.2386 50.3036 95.7562 49.5318C95.6356 49.3502 95.5552 49.1686 95.4346 48.987C94.9522 48.4876 94.309 48.1698 93.6658 48.0336C90.9322 47.398 87.9574 48.8962 85.5454 50.2128C83.6158 51.257 81.7666 52.4374 79.9978 53.754C79.435 54.1626 79.6762 54.7528 80.0782 55.2068C81.5656 56.705 82.5706 58.8842 83.4148 60.8818C83.7766 61.699 84.0982 62.5616 84.3796 63.4242C84.3796 63.4242 84.3796 63.4696 84.3796 63.515C84.3796 63.5604 84.4198 63.6512 84.46 63.6966L84.5404 64.0144C84.5404 64.1052 84.5806 64.196 84.6208 64.2868L86.1082 63.6512C84.9826 62.4708 83.3344 61.8806 81.8872 62.607C80.7214 63.2426 79.9978 64.5592 79.9978 66.012C79.9978 69.2354 82.6108 71.233 85.1836 71.5508C85.867 71.6416 86.5102 71.6416 87.1936 71.5508L85.8268 70.6428C86.3896 73.4576 87.1534 76.1816 88.078 78.9056C88.2388 79.4504 88.5202 79.9952 88.9222 80.3584C89.4448 80.767 90.0478 80.9486 90.691 80.994C92.1784 81.0848 93.6256 80.7216 94.9522 79.9952C96.8014 79.0872 98.2486 77.362 98.932 75.1828L98.4496 75.5914C100.781 74.8196 102.108 71.7778 102.751 69.3716C102.872 68.8268 102.59 68.282 102.148 68.1004C101.786 67.9188 101.063 67.8734 100.902 68.4182C100.58 69.8256 100.017 71.1876 99.2134 72.3226C98.932 72.6858 98.6506 73.0036 98.329 73.276L98.2084 73.3668L98.0476 73.4576C97.927 73.5484 97.8466 73.5938 97.726 73.6846C97.6054 73.7754 97.5652 73.73 97.4848 73.7754C97.4044 73.8208 97.726 73.6846 97.5652 73.7754C97.0024 74.0024 96.922 74.7742 96.6406 75.319C96.1582 76.3178 95.4748 77.135 94.6306 77.7252C93.8266 78.3154 92.9824 78.724 92.0578 78.9056C91.8568 78.951 91.6558 78.9964 91.4548 79.0418H91.2136H90.2086C90.088 79.0418 90.4096 79.0418 90.2488 79.0418H90.1282L89.9674 78.9056C90.0076 78.9056 89.7664 78.8602 89.9674 78.9056C89.9272 78.9056 89.887 78.9056 89.8066 78.8148C89.8066 78.8148 90.0478 78.9964 89.9674 78.9056C89.887 78.8148 89.887 78.7694 90.0478 78.9964C89.9674 78.8602 90.0478 78.9964 90.088 79.0872C90.088 79.0418 90.0478 78.9964 90.0076 78.9056C89.9272 78.724 89.8468 78.5878 89.8066 78.4516C89.5252 77.6798 89.2438 76.7264 89.0026 75.773C88.5202 74.0024 88.078 72.2318 87.676 70.4612C87.475 69.8256 86.9122 69.417 86.3092 69.5532H86.1886C86.5504 69.5078 86.1886 69.5532 86.068 69.5532C85.7062 69.5532 85.3042 69.5532 84.9424 69.5532C84.8218 69.5532 84.8218 69.5532 84.9424 69.5532H84.7414L84.3796 69.4624C84.259 69.4624 84.1384 69.3716 83.9776 69.3262C83.7766 69.2354 84.0178 69.3262 83.857 69.2808C83.4148 69.0992 83.0128 68.8268 82.6912 68.4182C81.9274 67.4648 81.646 65.9212 82.3294 64.7862C82.6108 64.3322 83.0128 64.0598 83.4952 63.969C84.058 63.9236 84.5806 64.3322 85.0228 64.7862C85.465 65.2402 86.7916 65.104 86.5102 64.1506C85.4248 60.3824 83.7364 56.478 81.1234 53.7994L81.2038 55.2522C82.5706 54.2534 83.9776 53.3 85.4248 52.4374C86.6308 51.711 87.877 51.0754 89.1232 50.5306C89.7664 50.2582 90.4096 50.0312 91.0528 49.895C91.3342 49.8042 91.6558 49.7588 91.9372 49.7134H92.1784C92.3392 49.7134 92.5402 49.668 92.701 49.668H93.2638C93.4648 49.668 93.505 49.7134 93.6256 49.7588C93.907 49.8042 93.5452 49.668 93.7864 49.8042C93.8266 49.8042 93.907 49.8496 93.9472 49.895C94.0678 49.9404 94.0276 50.0312 93.9472 49.895C94.0678 50.0766 93.8668 49.7588 93.8668 49.8042C93.7864 49.668 93.6256 49.3956 93.8668 49.8042C94.2688 50.4398 94.6306 51.0754 94.9924 51.711C96.4396 54.208 97.726 56.8412 98.8918 59.5198C99.5752 61.1088 100.138 62.7432 100.58 64.423C100.741 65.104 100.862 65.8304 100.942 66.5568C100.942 66.8746 100.942 67.1924 100.942 67.5102C100.942 67.6918 100.942 67.828 100.902 67.9642C100.902 68.055 100.862 68.1912 100.862 68.282C100.741 68.8268 101.022 69.3716 101.465 69.5532C101.746 69.7802 102.51 69.8256 102.63 69.2808L102.711 69.3262Z" fill="#20044E"/>
<path d="M95.7564 63.8777C95.7564 63.8777 103.234 61.1991 102.711 56.3867C102.188 51.5743 96.3594 52.3915 93.9072 57.9757" fill="#9F616A"/>
<path d="M96.4398 64.6486C97.284 64.3308 98.1282 63.9222 98.892 63.4682C100.339 62.651 101.786 61.6068 102.711 60.1086C103.716 58.6104 103.756 56.522 102.791 54.9784C101.746 53.2532 99.9774 52.1636 98.088 52.5722C95.8368 53.0262 94.068 55.0238 93.1032 57.2484C92.862 57.7478 94.5102 59.019 94.6308 58.7466C95.475 56.8852 96.8016 55.2054 98.5704 54.4336C99.2538 54.1158 99.9774 53.9796 100.701 54.0704C100.982 54.0704 101.264 54.2066 101.505 54.3428C101.585 54.3882 101.465 54.3428 101.585 54.3882C101.585 54.3882 101.425 54.2974 101.545 54.3882C101.666 54.479 101.505 54.3882 101.465 54.3428C101.626 54.5244 101.304 54.2066 101.384 54.252C101.384 54.252 101.425 54.2974 101.465 54.3428C102.229 55.7048 101.907 57.5208 101.063 58.792C100.098 60.1086 98.9322 61.1528 97.5654 61.8792C96.7614 62.3786 95.877 62.7872 94.9926 63.105C94.671 63.1958 95.1936 63.8314 95.3142 63.9222C95.475 64.1038 96.078 64.7848 96.3594 64.6486H96.4398Z" fill="#20044E"/>
<path d="M92.621 55.6151C92.3396 55.8875 92.2994 56.3415 92.5406 56.6593C92.5406 56.6593 92.5808 56.7047 92.621 56.7501C93.1436 57.2949 93.7466 56.5685 93.425 55.9329C93.3044 55.6151 92.9828 55.4789 92.7014 55.6151C92.7014 55.6151 92.7014 55.6151 92.6612 55.6151H92.621ZM88.4 58.1575C88.1186 58.4299 88.0784 58.8839 88.2794 59.2017C88.2794 59.2017 88.3196 59.2471 88.3598 59.2925C88.8824 59.8373 89.4854 59.1109 89.1638 58.4753C89.0432 58.1575 88.7216 58.0213 88.4402 58.1575C88.4402 58.1575 88.4 58.1575 88.3598 58.1575H88.4ZM90.1286 66.6927C90.4904 67.6461 91.214 68.3725 92.0582 68.7811C92.7416 69.0989 93.5054 69.0535 94.1486 68.6449C94.2692 68.5541 94.3094 68.3271 94.3094 68.1909C94.3094 67.9185 94.229 67.6461 94.1084 67.4191C93.9878 67.1467 93.8672 66.9197 93.6662 66.7381C93.5456 66.6473 93.3848 66.5111 93.2642 66.6019C93.0632 66.7381 92.8622 66.8289 92.621 66.8743H92.7416C92.5004 66.8743 92.2592 66.8743 92.018 66.8743C91.8974 66.8743 91.7768 66.8743 91.6964 66.7835H91.616C91.5758 66.7381 91.4954 66.6927 91.4552 66.6473L91.2944 66.5565H91.214C91.214 66.5111 91.1336 66.4203 91.214 66.5111H91.1336C91.1336 66.4657 91.013 66.3295 91.013 66.3295C90.8924 66.2387 91.1336 66.4657 91.0532 66.3749H91.013C91.013 66.3295 90.9728 66.2387 90.9728 66.2387C90.8522 66.1025 91.0532 66.3295 91.013 66.3295C90.9728 66.3295 90.9326 66.1933 90.9326 66.1933C90.9326 66.1933 91.0532 66.4657 91.013 66.3295V66.2387C90.8522 66.0117 90.7316 65.7847 90.5306 65.6031C90.4502 65.5123 90.2492 65.3761 90.1286 65.4669C90.008 65.5577 89.9678 65.7847 90.008 65.9209C90.008 66.1933 90.1286 66.4657 90.209 66.6927H90.1286ZM96.1586 95.9303C97.1234 100.97 99.656 105.691 99.4148 110.958C99.4148 111.321 100.098 110.958 100.179 110.867C100.42 110.731 101.143 110.322 101.143 109.959C101.385 104.602 98.8118 99.8347 97.847 94.7499C97.8068 94.5229 95.9978 95.3401 96.1184 95.9303H96.1586Z" fill="#20044E"/>
</svg>
