<svg width="201" height="227" viewBox="0 0 201 227" fill="none" xmlns="http://www.w3.org/2000/svg">
<path d="M20.9039 115.407C20.9039 115.407 34.3709 91.4813 52.3805 94.1145C70.3901 96.7477 88.7615 145.871 87.4349 154.86C86.1083 163.849 23.3963 153.543 19.3361 149.457C15.2759 145.371 20.9039 115.407 20.9039 115.407Z" fill="white"/>
<path d="M21.5472 116.314C22.512 114.68 23.5572 113.091 24.6828 111.593C27.2154 108.097 30.0696 104.964 33.2052 102.195C36.9438 98.9714 41.2452 96.3382 45.9084 95.3394C49.9686 94.4314 54.1494 94.7038 57.8478 96.8376C61.2246 98.7898 64.0788 101.741 66.6114 104.919C67.9782 106.644 69.2646 108.46 70.4706 110.367C71.7972 112.41 73.0434 114.544 74.2092 116.768C76.6212 121.263 78.792 125.894 80.6814 130.615C82.3698 134.792 83.8572 139.06 85.1034 143.373C85.9476 146.324 86.7516 149.411 86.8722 152.498C86.9124 153.224 86.9526 154.087 86.5506 154.723C86.1486 155.313 85.626 155.767 84.9828 155.994C82.9728 156.993 80.601 157.22 78.4302 157.401C75.0936 157.628 71.7972 157.674 68.4606 157.492C64.521 157.31 60.5814 156.993 56.6418 156.584C52.5012 156.13 48.4008 155.585 44.2602 154.95C40.4814 154.359 36.6624 153.678 32.8836 152.907C29.9088 152.316 26.934 151.635 24.0396 150.818C22.3914 150.364 20.5422 149.91 19.095 148.957L18.9744 148.866C18.8538 148.775 18.9744 148.911 18.894 148.821C18.8136 148.73 18.894 148.775 18.894 148.775C18.894 148.775 19.095 149.048 19.1754 149.138C19.2558 149.229 19.296 149.32 19.3362 149.411C19.4166 149.547 19.2558 149.275 19.3362 149.411C19.3362 149.365 19.3362 149.275 19.2558 149.229C19.1754 149.184 19.1754 149.002 19.1352 148.866C19.0146 148.548 18.9342 148.23 18.894 147.913C18.5724 146.187 18.4518 144.417 18.492 142.646C18.5724 138.015 18.9342 133.43 19.5774 128.845C20.0196 125.213 20.5824 121.581 21.2256 117.994C21.3864 117.449 21.4668 116.904 21.5874 116.314C21.5874 116.087 21.2256 115.542 21.0648 115.361C21.0648 115.27 20.3412 114.544 20.3412 114.544C19.9392 116.723 19.5774 118.947 19.2558 121.172C18.5724 125.712 17.9694 130.297 17.6076 134.883C17.4066 137.107 17.3262 139.332 17.3262 141.602C17.3262 143.327 17.487 145.052 17.8488 146.732C18.2106 148.276 19.0146 149.592 20.1402 150.546C20.6628 150.909 21.2256 151.227 21.8286 151.408C24.0798 152.271 26.4114 152.952 28.743 153.497C32.16 154.314 35.6172 155.04 39.0744 155.631C43.1346 156.357 47.1546 156.993 51.2148 157.537C55.3554 158.082 59.5362 158.582 63.717 158.899C67.4958 159.217 71.2746 159.399 75.0534 159.399C77.9478 159.444 80.802 159.217 83.6562 158.672C85.023 158.4 87.1536 157.946 87.9576 156.402C88.3194 155.721 88.239 154.768 88.1988 153.996C88.1184 152.589 87.9174 151.227 87.5958 149.91C86.7516 145.915 85.626 142.011 84.219 138.242C82.5306 133.475 80.6412 128.799 78.4704 124.305C76.179 119.447 73.6464 114.816 70.7922 110.367C68.139 106.235 65.1642 102.24 61.707 98.926C59.0538 96.3836 55.9182 94.1136 52.4208 93.3872C47.637 92.4338 42.6522 93.6142 38.3106 95.975C34.17 98.1996 30.4716 101.423 27.2154 105.1C25.0044 107.597 22.9542 110.321 21.1452 113.227C20.8638 113.636 20.6226 114.09 20.3412 114.544C20.2206 114.725 20.7432 115.406 20.8638 115.542C20.9844 115.679 21.5472 116.405 21.5874 116.314H21.5472ZM34.8936 83.263C34.8936 83.263 25.6878 86.3048 23.7984 82.1734C21.909 78.042 28.0596 78.4506 28.0596 78.4506C28.0596 78.4506 20.3814 70.324 29.8284 67.7816C29.8284 67.7816 21.306 61.925 27.0948 55.0242C32.8836 48.1234 45.7074 50.9382 45.7074 50.9382C45.7074 50.9382 44.622 41.3134 54.471 41.5858C64.32 41.8582 62.4306 47.851 62.4306 47.851C62.4306 47.851 68.742 47.9418 69.1842 51.2106C69.6264 54.4794 65.0436 56.2954 65.0436 56.2954C65.0436 56.2954 64.0386 65.9202 55.3956 65.3754L48.1194 78.042C48.1194 78.042 51.3756 82.0826 48.5616 86.8496C45.7476 91.6166 34.9338 89.4374 34.8936 83.263Z" fill="#20044E"/>
<path d="M34.2905 82.4458C32.0795 83.2176 29.7479 83.5808 27.4163 83.4446C27.0947 83.4446 26.7731 83.3992 26.4515 83.3084C26.2505 83.263 26.0897 83.2176 25.8887 83.1722C25.8887 83.1722 25.6073 83.0814 25.7681 83.1268C25.6475 83.0814 25.5269 83.036 25.4465 82.9906L25.2455 82.8998C25.4465 83.036 25.0847 82.809 25.2455 82.8998L25.0445 82.7636C24.8033 82.582 25.2053 82.9452 25.0445 82.7182C24.8837 82.582 24.7229 82.355 24.6425 82.128C24.3611 81.4924 24.2405 80.9022 24.5621 80.3574C24.8837 79.9488 25.2857 79.631 25.7681 79.4948C26.6525 79.2224 27.5369 79.1316 28.4615 79.2224C29.2253 79.2678 28.9841 78.3598 28.6223 77.9512L28.4213 77.7242C28.2203 77.4972 28.5419 77.9058 28.4213 77.6788L28.1399 77.3156C27.9389 77.0432 27.7379 76.7708 27.4967 76.453C27.3761 76.2714 27.2957 76.1352 27.1751 75.9536C27.1751 75.9082 27.0143 75.6358 27.0947 75.8174C27.0143 75.7266 26.9741 75.5904 26.8937 75.4542C26.0897 73.956 25.6073 72.1854 26.6525 70.6418C27.5369 69.3706 29.1047 68.8258 30.4313 68.4626C31.1549 68.281 30.5117 67.2822 30.1901 67.0552L29.9087 66.8282L29.6273 66.6012C29.9489 66.8282 29.4665 66.465 29.3861 66.3742C29.0243 66.0564 28.7027 65.7386 28.3409 65.3754C28.0193 65.0122 27.6977 64.6036 27.4163 64.195C26.7329 63.287 26.2907 62.152 26.0897 60.9716C25.9289 59.5188 26.2505 58.066 26.9741 56.8856C30.0293 51.6192 36.6221 50.8474 41.7275 51.0744C42.3305 51.0744 42.8933 51.1652 43.4963 51.2106L44.2199 51.3014H44.7023C45.1043 51.3922 45.5465 51.483 45.9485 51.5738C46.3505 51.6646 46.7525 51.5738 46.7123 50.9836V50.6658V50.3934C46.7123 49.7578 46.7123 49.1222 46.8731 48.4866C47.1545 46.6706 47.9987 45.0816 49.2851 43.9466C51.4961 42.1306 54.5513 42.0852 57.1241 42.4484C57.8477 42.5392 58.5311 42.7208 59.2145 42.9478C59.2949 42.9478 59.6969 43.1294 59.8979 43.2202C60.0185 43.2202 60.1391 43.311 60.2195 43.4018C60.2999 43.4926 60.0587 43.311 60.2195 43.4018L60.4205 43.538L60.7421 43.765C60.9431 43.9012 60.6617 43.6742 60.8225 43.8558L61.0235 44.0828L61.1039 44.1736C61.2245 44.3552 61.3451 44.4914 61.4255 44.6276C61.5059 44.7638 61.3451 44.446 61.3853 44.6276C61.4255 44.6276 61.4255 44.7184 61.4255 44.7184C61.4657 44.8092 61.5059 44.9 61.5461 44.9454L61.6667 45.2178C61.5863 44.9908 61.6667 45.2178 61.7069 45.3086C61.7471 45.4902 61.7873 45.6264 61.7873 45.808V46.035C61.8677 46.262 61.8275 45.8988 61.8275 46.1258C61.8275 46.3528 61.7873 46.8068 61.7471 47.1246C61.7471 47.2154 61.6265 47.5786 61.7471 47.2154C61.5059 47.9872 62.3903 48.6682 62.9933 48.6682C64.5209 48.6682 66.0083 48.986 67.4153 49.6216L67.5761 49.7124C67.4153 49.6216 67.5761 49.7124 67.6163 49.7124L67.9379 49.9394C68.0585 50.0302 67.8173 49.8486 67.9379 49.9394L68.0585 50.0756L68.1791 50.2118C68.2595 50.3026 68.0987 50.0756 68.2193 50.2118C68.2997 50.348 68.3801 50.4842 68.4203 50.6204C68.5007 50.8928 68.5007 51.1652 68.5007 51.4376C68.4203 52.7088 67.4957 53.6168 66.6113 54.2978C66.1691 54.6156 65.6867 54.9334 65.2043 55.1604C65.1239 55.1604 65.0435 55.2512 64.8425 55.342C64.8023 55.342 64.7219 55.342 64.6415 55.4328C64.4807 55.4328 64.3199 55.6144 64.3199 55.8414C64.1993 57.0218 63.8777 58.1568 63.3953 59.201C62.4707 61.471 60.7823 63.2416 58.6919 64.0588C58.0487 64.2858 57.3653 64.4674 56.6819 64.5128C56.2799 64.5582 55.8779 64.5582 55.4759 64.5582C55.0739 64.5582 54.9131 64.5128 54.7121 64.8306C54.4307 65.2846 54.1493 65.7386 53.9081 66.238L50.2499 72.6394L47.4761 77.4518C47.3555 77.7242 47.4761 78.042 47.6369 78.269C47.7977 78.496 47.7575 78.4506 47.8379 78.5414L48.0389 78.8592C48.1595 79.0862 47.9585 78.6776 48.0389 78.9046C48.0389 78.9954 48.1193 79.0408 48.1595 79.1316C48.5615 79.9488 48.8429 80.8114 48.9635 81.7648C49.2047 83.8532 48.4007 86.3502 46.7927 87.5306C45.5063 88.3478 44.0591 88.7564 42.5717 88.6202C41.7677 88.5748 41.0039 88.484 40.2401 88.2116C39.9185 88.1208 39.5969 88.03 39.3155 87.8938C38.9537 87.7576 38.6321 87.576 38.3105 87.3944C38.1095 87.2582 37.9085 87.122 37.7477 86.9858L37.5869 86.8496C37.7477 86.9858 37.4663 86.7588 37.4261 86.7134C37.1045 86.4864 36.8231 86.1686 36.6221 85.8508C36.5417 85.76 36.4613 85.6238 36.4211 85.4876C36.1397 84.9428 35.9789 84.3526 35.9789 83.717C35.9789 83.1722 35.6171 82.7636 35.1749 82.582C34.9337 82.4912 34.1699 82.355 34.1699 82.8998C34.2503 87.3944 38.6723 89.7552 42.1295 90.2092C43.9787 90.527 45.8681 90.2546 47.5565 89.392C49.4861 88.3478 50.6921 85.987 50.7725 83.5808C50.8529 81.4924 50.2097 79.4494 49.0037 77.8604L49.1645 78.6776L55.5161 67.5546L56.4005 65.9656L55.9181 66.1926C58.6517 66.3288 61.3451 65.5116 63.3149 63.2416C64.5611 61.7434 65.4455 59.882 65.8877 57.8844L66.1289 56.6586L65.8073 57.0672C67.6163 56.3408 69.9479 54.888 70.3097 52.5272C70.8323 49.1676 67.1339 47.6694 64.8425 47.2608C63.9983 47.0792 63.1541 46.9884 62.2697 46.9884L63.5159 48.4412C63.7973 47.5332 63.7973 46.5798 63.5561 45.6718C62.8727 43.2656 60.7421 41.949 58.6919 41.3588C56.9633 40.8594 55.1543 40.6778 53.3453 40.7686C51.8579 40.7686 50.4107 41.1772 49.0439 41.8582C47.2349 42.857 45.9083 44.673 45.3857 46.8522C45.0641 48.078 44.9435 49.3946 45.0641 50.7112L45.8279 50.121C44.5013 49.8486 43.1747 49.667 41.8481 49.6216C39.1145 49.3946 36.3407 49.6216 33.6473 50.2118C30.7127 50.9382 27.8183 52.4818 25.9289 55.2058C24.9641 56.477 24.4415 58.1114 24.4415 59.8366C24.5219 61.3348 24.9641 62.7422 25.7279 63.968C26.7731 65.7386 28.1801 67.2368 29.7881 68.3718L29.5469 66.9644C27.2957 67.6 24.4415 68.962 24.4817 72.0492C24.4817 74.1376 25.6073 76.0444 26.7329 77.588C27.0545 78.042 27.4163 78.4506 27.7781 78.8592L27.9389 77.588C26.0093 77.4518 22.1099 77.9966 22.8737 81.1746C23.9993 85.6692 29.1851 85.4422 32.4413 84.8974C33.5669 84.7158 34.6523 84.4434 35.7377 84.0802C36.5417 83.717 35.1347 82.1734 34.3709 82.4004L34.2905 82.4458Z" fill="#20044E"/>
<path d="M69.3852 87.5297C73.8474 78.6313 64.4406 57.9743 64.4406 57.9743C57.888 60.4259 46.2702 54.2969 46.2702 54.2969C50.2902 60.9253 45.828 74.7723 45.828 74.7723C42.3708 68.7795 36.3408 69.9145 37.6272 76.1797C38.9136 82.4449 44.3808 82.1271 44.3808 82.1271C44.3808 82.1271 44.1396 102.557 45.024 104.963C45.9084 107.369 59.0538 108.323 60.9432 95.5201C60.903 95.5201 65.4858 95.3385 69.3852 87.5297Z" fill="#9F616A"/>
<path d="M70.3501 87.3949C71.3149 85.4881 71.5561 83.2181 71.5561 81.0389C71.5159 78.4965 71.1943 75.9541 70.6315 73.5025C69.6265 69.0079 68.2597 64.6041 66.4909 60.3819C66.1291 59.4739 65.7673 58.6113 65.3653 57.7033C65.1643 57.2493 64.3201 57.5217 64.0387 57.6125C63.4759 57.7941 62.9131 57.9303 62.3101 57.9757C61.6267 57.9757 60.9835 58.0665 60.3001 57.9757C58.7725 57.8849 57.2851 57.6125 55.7977 57.2039C53.2651 56.5229 50.8129 55.6149 48.4411 54.4799L46.9939 53.7989C46.6723 53.6173 44.9035 53.9805 45.2653 54.5707C46.9135 57.3401 47.0341 61.0629 46.7929 64.2863C46.5517 67.2827 46.0693 70.2337 45.2653 73.0939L44.7829 74.8645L46.6723 74.3651C45.5467 72.4129 43.8583 70.7785 41.7679 70.3699C40.0795 70.0521 37.9891 70.5969 36.9841 72.2767C35.8987 74.0473 36.4213 76.6805 37.2655 78.4511C38.0293 80.0855 39.3559 81.3567 40.9237 81.9469C41.8483 82.3555 42.8533 82.5371 43.8583 82.4917L43.2955 82.2647C43.2955 84.6255 43.2955 86.9863 43.2955 89.3471C43.2955 93.3423 43.2955 97.3375 43.5367 101.333C43.5367 102.559 43.6573 103.739 43.8985 104.919C44.0995 105.737 44.8633 106.1 45.5467 106.327C48.2803 107.28 51.4963 106.826 54.1093 105.737C57.6469 104.238 60.3805 101.242 61.4659 97.1105C61.6267 96.5203 61.7473 95.8847 61.8277 95.2945L60.4207 95.8847C63.1543 95.7485 65.7271 93.7963 67.5361 91.6171C68.6617 90.3459 69.5863 88.8931 70.3903 87.3495C70.5511 86.9409 69.7069 86.9863 69.5863 86.9863C69.2245 87.0317 68.6215 87.1679 68.4205 87.5765C67.0939 90.1643 65.4055 92.6613 63.0739 94.1595C62.7523 94.3411 62.4307 94.5227 62.1091 94.6589C62.3503 94.5681 61.9081 94.7497 61.8277 94.7497C61.7473 94.7497 61.6669 94.7951 61.5865 94.8405C61.3855 94.9313 61.8277 94.7951 61.6267 94.8405C61.5061 94.8859 61.4257 94.8859 61.3051 94.9313C61.5865 94.8859 61.1041 94.9767 61.3051 94.9313H61.3453C61.0639 94.9313 60.0187 95.0675 59.9383 95.5215C59.6569 97.7007 58.8931 99.7437 57.7273 101.469C56.7625 102.876 55.5163 103.966 54.1093 104.738L53.6269 104.965H53.5063C53.5063 105.01 53.6269 104.965 53.5063 105.01L53.2249 105.146L52.7425 105.328H52.5415C52.5415 105.373 52.3405 105.419 52.3405 105.419L51.8581 105.555H51.6169C51.4561 105.646 51.7375 105.6 51.4963 105.6C51.1747 105.646 50.8129 105.691 50.4913 105.737H48.8833C48.6019 105.691 48.3205 105.691 48.0793 105.646C47.9587 105.6 47.7979 105.6 47.6773 105.555H47.4361C47.2351 105.464 47.0341 105.373 46.8331 105.283C46.6723 105.237 46.5517 105.146 46.4311 105.056C46.3105 104.965 46.1899 104.874 46.1095 104.738L45.9889 104.465C45.6673 103.467 45.6673 102.241 45.6271 101.197C45.3859 97.3829 45.3859 93.5693 45.3859 89.7557V84.6255C45.3859 83.7175 45.3859 82.8095 45.3859 81.9015V81.7653C45.3859 81.5383 44.9437 81.5383 44.8231 81.5383H44.5417C44.3809 81.5383 44.7427 81.5837 44.4613 81.5383C44.0593 81.4929 43.6171 81.4021 43.2151 81.3113C41.9287 80.9481 40.7629 80.1309 39.9187 78.9505C38.8735 77.4977 38.1901 75.1823 38.5117 73.3209C38.6323 72.5945 38.9539 71.9589 39.4363 71.5049L39.5971 71.3687C39.5971 71.3687 39.8785 71.1871 39.6775 71.3233C39.6775 71.2779 39.7981 71.2779 39.8383 71.2779C39.5971 71.3233 39.8383 71.2779 39.9187 71.2779C39.6775 71.3233 39.9187 71.2779 39.9991 71.2779H40.2805C42.2503 71.4595 43.8985 73.3209 44.9035 75.0915C45.0643 75.3639 45.7075 75.1823 45.9085 75.1369C46.1899 75.0915 46.6723 74.9099 46.7929 74.5921C47.3155 72.9123 47.7577 71.1871 48.0793 69.4165C48.7225 66.0569 49.1647 62.5611 48.8029 59.1561C48.6421 57.2947 48.0793 55.4787 47.1949 53.8897L45.4663 54.6615C46.9537 55.4333 48.4813 56.0689 50.0491 56.6137C53.0641 57.8395 56.1595 58.6113 59.3755 58.8837C61.2247 59.0199 63.0739 58.7929 64.8427 58.2027L63.5161 58.1119C64.6015 60.5635 65.5663 63.0605 66.4105 65.6029C68.0185 70.3245 69.4255 75.2731 69.6265 80.3579C69.7471 82.8095 69.5461 85.3973 68.4607 87.5765C68.2597 87.9397 69.1039 87.9397 69.2647 87.8943C69.5863 87.8943 70.1893 87.7581 70.3903 87.3495L70.3501 87.3949Z" fill="#20044E"/>
<path d="M62.0688 81.492C62.0688 81.492 75.2946 84.8516 78.2292 77.2244C81.1638 69.5972 71.8374 65.0118 63.8377 70.8684" fill="#9F616A"/>
<path d="M62.3904 82.3101C63.7572 82.6279 65.124 82.8549 66.531 82.9911C69.1038 83.2181 71.8374 83.1727 74.3298 82.2647C76.9026 81.3567 79.0332 79.2683 79.5156 76.1357C80.0784 72.6399 77.787 69.5981 75.0534 68.3269C71.154 66.4655 66.6516 67.5551 63.1944 70.0975C62.5512 70.5515 63.9984 72.0951 64.521 71.7319C67.3752 69.6435 71.0334 68.4177 74.4102 69.4165C75.0132 69.5981 75.576 69.8251 76.0986 70.1883C76.3398 70.3245 76.5408 70.5061 76.7418 70.6877C76.782 70.7331 76.8222 70.7785 76.9026 70.8239C77.1438 71.0509 76.8222 70.7331 76.9428 70.8693L77.1036 71.0509C77.1438 71.0963 77.3046 71.3233 77.184 71.1871C77.8674 72.2313 78.1488 73.5479 77.9076 74.8645C77.0232 80.9935 70.4706 81.6745 66.0888 81.3567C65.0436 81.2659 63.9582 81.1297 62.913 80.9481H62.6316C62.6316 80.9027 62.5512 80.9027 62.5512 80.9027C62.6718 80.9481 62.3904 80.8573 62.5512 80.9027L62.1492 80.8119L61.8276 80.7211C61.4256 80.6303 61.2648 80.8573 61.3854 81.2659C61.5462 81.7653 61.9482 82.1285 62.3904 82.3101Z" fill="#20044E"/>
<path d="M55.4759 84.3987C55.4759 84.3987 51.4961 83.3999 51.1343 78.9961Z" fill="white"/>
<path d="M56.3604 83.9448C54.873 83.5362 53.5866 82.492 52.7826 81.0392C52.3806 80.3128 52.1796 79.4502 52.0992 78.633C52.059 78.3606 51.1746 78.7238 51.054 78.7692C50.8128 78.86 50.6118 78.9962 50.4108 79.1324C50.3304 79.1778 50.1696 79.314 50.2098 79.4502C50.3304 80.903 50.9334 82.2196 51.858 83.2184C52.5012 83.8994 53.265 84.3988 54.1092 84.7166C54.27 84.8074 54.4308 84.8528 54.6318 84.8982C55.0338 84.9436 55.476 84.8528 55.8378 84.5804C56.0388 84.4896 56.1996 84.3534 56.3604 84.2172C56.3604 84.1264 56.481 83.9902 56.3604 83.9448ZM56.9232 66.9198C56.9232 66.9198 56.8428 68.1456 57.888 68.1456C58.9332 68.1456 58.9734 66.6474 58.0488 66.3296C57.6468 66.1026 57.1644 66.2842 56.9634 66.7382C56.9634 66.829 56.9232 66.8744 56.9232 66.9198ZM61.305 66.602C61.305 66.602 61.2246 67.8278 62.2698 67.8278C63.315 67.8278 63.3552 66.3296 62.4306 66.0118C62.0286 65.7848 61.5462 65.9664 61.3452 66.4204C61.3452 66.5112 61.305 66.5566 61.305 66.602ZM47.5968 108.188C48.6822 108.461 49.8078 108.642 50.9334 108.869L58.3704 110.368L75.174 113.773C76.5408 114.045 77.9076 114.272 79.2342 114.59C79.596 114.726 79.9578 114.499 80.0784 114.09C80.1186 114 80.1186 113.954 80.1186 113.863C80.0382 113.273 79.6362 112.819 79.1136 112.728C78.0282 112.456 76.9026 112.274 75.777 112.047L68.34 110.549L51.5364 107.144C50.1696 106.872 48.8028 106.645 47.436 106.282C47.0742 106.145 46.7124 106.372 46.5918 106.781C46.5918 106.872 46.5918 106.917 46.5918 107.008C46.7124 107.644 47.1144 108.098 47.637 108.188H47.5968Z" fill="#20044E"/>
<path d="M45.4259 103.92C45.4259 103.92 44.9033 143.1 46.4711 145.416C48.0389 147.731 79.0733 159.58 80.5205 159.263C81.9677 158.945 79.2743 110.866 79.2743 110.866L45.4259 103.92Z" fill="#9BB0FF"/>
<path d="M44.5415 103.783C44.5415 106.825 44.4611 109.867 44.4611 112.909C44.4611 118.947 44.4611 125.03 44.5415 131.069C44.5415 133.793 44.6621 136.517 44.8229 139.195C44.8229 141.011 45.0239 142.827 45.3053 144.643C45.3857 145.188 45.5867 145.733 45.8681 146.187C46.2701 146.641 46.7525 147.004 47.2349 147.276C48.8027 148.184 50.4107 149.002 52.0589 149.683C57.0839 151.953 62.1893 153.996 67.2947 155.948C71.3147 157.491 75.3347 159.126 79.4753 160.215C79.8773 160.352 80.2793 160.397 80.6813 160.397C81.1637 160.261 81.5255 159.807 81.5657 159.262C81.7667 157.945 81.8471 156.629 81.8069 155.312C81.8873 150.273 81.6863 145.188 81.4853 140.149C81.2843 134.247 81.0029 128.299 80.7215 122.397C80.5607 118.765 80.3597 115.179 80.1587 111.592C80.1587 111.41 80.1587 111.229 80.1185 111.093C80.1185 110.502 79.7567 109.958 79.2341 109.867L75.8975 109.186L67.8173 107.551L58.0085 105.554L49.5665 103.829C48.1997 103.556 46.8329 103.148 45.4259 102.966H45.3455C44.1395 102.694 44.1797 104.964 45.3455 105.191L48.7223 105.872L56.8025 107.506L66.6113 109.504L75.0533 111.229L77.8673 111.819C78.3095 111.91 78.7517 112.046 79.1939 112.091H79.2341L78.3095 110.866C78.4703 113.408 78.5909 115.905 78.7115 118.447C78.9929 123.941 79.2341 129.48 79.4753 134.973C79.7165 140.512 79.9175 146.051 79.9577 151.589C79.9577 153.405 79.9979 155.267 79.9175 157.083C79.9175 157.401 79.8773 157.673 79.8773 157.991V158.354C79.7969 158.581 79.8773 158.036 79.8371 158.399C79.7969 158.581 79.6361 158.944 79.8371 158.581C79.7567 158.763 79.9979 158.399 79.9175 158.49C79.9577 158.445 80.4803 158.218 80.4803 158.263C80.1185 158.218 79.7567 158.172 79.3949 158.036C79.2743 157.991 79.1537 157.991 78.9929 157.945H78.7517C78.7517 157.9 78.6311 157.855 78.6311 157.855C78.2693 157.764 77.8673 157.628 77.5055 157.491C75.4151 156.81 73.3649 156.084 71.3147 155.312C66.1289 153.405 60.9833 151.362 55.8779 149.183C53.8277 148.321 51.8177 147.413 49.8077 146.414C49.1243 146.096 48.4409 145.733 47.7977 145.324C47.7173 145.279 47.4761 145.097 47.7977 145.324C47.7977 145.279 47.6771 145.279 47.6369 145.233C47.5967 145.188 47.4359 145.097 47.3555 145.006C47.2751 144.916 47.1947 144.87 47.1545 144.825C46.9535 144.689 47.3153 145.052 47.1545 144.87C46.9937 144.689 47.3153 145.233 47.1545 144.916C47.1545 145.188 46.9937 144.598 47.1545 144.916C47.1545 144.643 47.0339 144.416 46.9937 144.189C46.9937 143.826 46.9133 143.508 46.8731 143.19L46.7927 142.646C46.7927 142.555 46.7927 142.419 46.7927 142.328C46.7927 142.237 46.7927 142.237 46.7927 142.146C46.7927 142.373 46.7927 141.874 46.7927 142.146C46.5917 139.831 46.5113 137.47 46.4309 135.109C46.2701 129.116 46.2299 123.078 46.2299 117.085C46.2299 111.093 46.2299 108.913 46.3103 104.827V104.192C46.3103 103.602 45.9485 103.057 45.4259 102.966C44.9435 102.921 44.5415 103.284 44.4611 103.829C44.5415 103.692 44.5415 103.738 44.5415 103.783Z" fill="#9BB0FF"/>
<path d="M118.107 101.559L79.3145 110.911L80.5606 159.307C80.5606 159.307 120.881 146.959 120.761 143.372C120.64 139.785 118.107 101.559 118.107 101.559Z" fill="#9BB0FF"/>
<path d="M118.51 100.742L114.65 101.65L105.404 103.874L94.1886 106.553L84.5004 108.868C82.9326 109.232 81.3648 109.595 79.7568 110.003H79.6764C79.194 110.14 78.4302 110.639 78.4302 111.275L78.5508 116.087L78.8322 127.664L79.194 141.647L79.5156 153.678L79.596 157.673C79.596 158.309 79.5558 158.945 79.6362 159.58V159.671C79.6362 160.08 80.1588 159.943 80.3196 159.898C81.4452 159.535 82.5708 159.217 83.6964 158.854C86.4702 157.991 89.244 157.083 91.9776 156.175C95.475 154.995 98.9724 153.814 102.47 152.589C105.806 151.408 109.143 150.137 112.439 148.775C114.771 147.822 117.183 146.823 119.354 145.37C120.077 144.871 120.962 144.326 121.364 143.463C121.645 142.873 121.525 142.192 121.484 141.556C121.324 138.605 121.163 135.7 120.962 132.794C120.68 128.572 120.439 124.304 120.158 120.082C119.876 116.087 119.635 112.046 119.354 108.051C119.193 105.827 119.072 103.557 118.912 101.332V101.014C118.871 100.197 117.103 101.241 117.183 102.013C117.304 103.557 117.384 105.1 117.505 106.644C117.746 110.321 117.987 113.953 118.228 117.631L119.072 130.433C119.273 133.838 119.515 137.243 119.716 140.648C119.756 141.556 119.836 142.51 119.876 143.418V143.781C119.876 143.781 119.917 143.599 119.876 143.736C119.836 143.872 119.957 143.509 119.876 143.69C119.796 143.872 119.997 143.463 119.917 143.645C119.836 143.826 120.037 143.554 119.957 143.599L119.836 143.736C119.997 143.599 119.635 143.963 119.836 143.736C119.675 143.872 119.555 143.963 119.394 144.053L119.314 144.144C119.153 144.28 119.394 144.099 119.394 144.099C119.394 144.099 119.193 144.235 119.113 144.28C118.67 144.553 118.268 144.78 117.826 145.007C117.585 145.143 117.344 145.279 117.062 145.415L116.66 145.597H116.54C116.54 145.642 116.379 145.733 116.379 145.733C115.736 146.051 115.133 146.323 114.49 146.596C111.394 147.958 108.218 149.138 105.083 150.319C101.626 151.59 98.088 152.816 94.5906 153.996C91.6158 154.995 88.641 155.948 85.7064 156.902C84.1386 157.401 82.5708 157.9 80.9628 158.4H80.7618C80.7618 158.445 81.4452 158.672 81.4452 158.672L81.3246 153.86L81.0432 142.283L80.6814 128.3L80.3598 116.269L80.2794 112.273C80.2794 111.638 80.2794 111.002 80.2392 110.367V110.276L78.993 111.547L82.8522 110.639L92.058 108.505L103.274 105.827L112.962 103.511C114.53 103.148 116.098 102.785 117.706 102.376H117.786C118.268 102.285 118.711 101.968 118.952 101.468C119.072 101.014 118.912 100.651 118.51 100.742Z" fill="#9BB0FF"/>
<path d="M45.4258 103.92C45.4258 103.92 80.5606 92.298 81.4048 92.6158C82.249 92.9336 118.067 101.605 118.067 101.605L79.2742 110.957L45.4258 103.92Z" fill="#9BB0FF"/>
<path d="M46.31 104.056L49.7672 102.921C52.541 102.013 55.355 101.105 58.169 100.197C61.586 99.0616 64.9628 97.972 68.3798 96.8824C71.3948 95.929 74.4098 94.9756 77.4248 94.0676C78.47 93.7498 79.475 93.432 80.5202 93.1596C80.882 93.0688 81.2036 92.978 81.5654 92.8872L81.9272 92.7964H82.0478C82.1684 92.7056 81.887 92.751 82.0076 92.751H81.7664C81.4448 92.751 81.083 92.7056 80.7614 92.6602H80.9222C80.9222 92.7056 81.5654 92.8872 81.5654 92.8872L84.0578 93.5228C86.8718 94.2038 89.6858 94.9302 92.4998 95.6112L102.871 98.1536L112.158 100.424L117.183 101.649H117.424C117.424 101.695 117.263 101.422 117.263 101.422L113.404 102.33L104.158 104.555L92.942 107.234L83.2538 109.549C81.686 109.912 80.078 110.275 78.5102 110.684H78.4298H79.7966C79.7966 110.729 76.4198 110.048 76.4198 110.048L68.3396 108.369L58.5308 106.371L50.0888 104.646C48.722 104.373 47.3552 104.056 45.9482 103.783H45.8678C45.506 103.692 44.8226 103.556 44.501 103.738C44.1794 103.919 44.6618 104.01 44.8628 104.01L48.7622 104.827L57.8876 106.689L68.42 108.868L76.5404 110.548C77.7062 110.775 79.1132 111.274 80.279 111.002C81.8468 110.639 83.4146 110.23 84.9824 109.867L94.0676 107.688L104.6 105.145L113.766 102.921L118.67 101.74H118.911C119.193 101.604 118.911 101.468 118.75 101.422L115.132 100.56L106.449 98.4714L95.8766 95.8836C92.8214 95.1572 89.7662 94.3854 86.711 93.659C85.1834 93.2958 83.6558 92.9326 82.1282 92.524C80.6006 92.1154 79.0328 92.7056 77.5454 93.1596C74.8118 93.9768 72.0782 94.8394 69.3446 95.702C65.9276 96.7916 62.4704 97.9266 59.0132 99.0162C55.9178 100.015 52.8224 101.014 49.727 102.058L44.6618 103.738L44.4206 103.829C44.0186 103.965 44.6618 104.101 44.7824 104.101C45.3854 104.146 45.8276 104.146 46.31 104.056Z" fill="#9BB0FF"/>
<path d="M44.5412 104.33L48.32 105.147L57.3248 107.054L67.8974 109.278L76.3796 111.094L78.7514 111.594C79.1132 111.684 79.475 111.73 79.8368 111.684C81.2438 111.367 82.6106 110.958 84.0176 110.595L92.8214 108.325L103.314 105.646L112.519 103.285L117.464 102.014H117.705C118.067 101.878 118.75 101.742 118.951 101.333C119.152 100.925 118.71 101.061 118.509 101.152L114.73 102.105L105.645 104.42L94.751 107.235L85.2638 109.687L82.1282 110.504C81.6458 110.64 81.1232 110.731 80.6408 110.913H80.5604H81.0428C81.0428 110.867 77.5856 110.141 77.5856 110.141L69.3044 108.37L59.2544 106.236L50.5712 104.375C49.1642 104.057 47.7572 103.739 46.3502 103.467H46.2698C45.8678 103.422 45.4256 103.558 45.0638 103.739C45.0638 103.785 44.3 104.239 44.5412 104.33Z" fill="white"/>
<path d="M81.1235 159.853V155.086C81.0833 155.086 81.0029 143.646 81.0029 143.646L80.9225 129.799L80.8421 117.813C80.8421 115.906 80.8823 113.909 80.8019 112.002V111.911C80.7617 111.366 80.5205 110.867 80.1587 110.458C79.8371 110.186 79.6763 110.322 79.6763 110.731V115.498C79.7165 115.498 79.7969 126.984 79.7969 126.984L79.8773 140.831L79.9577 152.816C79.9577 154.723 79.9175 156.675 79.9979 158.628V158.718C80.0381 159.263 80.2793 159.763 80.6411 160.171C80.9225 160.398 81.1235 160.262 81.1235 159.853Z" fill="white"/>
<path d="M58.7322 131.478L58.4106 106.554L95.5956 96.0664L105.927 98.5634L68.4204 108.642L67.8978 133.703L58.7322 131.478Z" fill="#20044E"/>
<path d="M59.6569 131.658L59.5363 123.214L59.3755 109.866V106.779C59.3353 106.779 58.9333 107.46 58.9333 107.46L62.6317 106.416L71.4757 103.919L82.2493 100.877L91.4953 98.2441L94.5505 97.3815C95.0329 97.2453 95.5555 97.1545 95.9977 96.9729H96.0781H95.6359L104.681 99.1521L105.967 99.4699L105.364 97.6993L101.626 98.6981L92.6611 101.104L81.8473 104.01L72.4807 106.507C70.9531 106.915 69.3853 107.233 67.8979 107.733H67.8175C67.5361 107.823 67.3753 108.096 67.4155 108.414L67.2547 116.903L66.9733 130.433L66.8929 133.52L67.7371 132.839L59.6971 130.887L58.5715 130.614C58.1695 130.523 57.6871 130.75 57.7273 131.295C57.8479 131.84 58.2499 132.294 58.7323 132.385L66.7723 134.337L67.8979 134.609C68.2195 134.746 68.5813 134.564 68.7019 134.201C68.7421 134.11 68.7421 134.019 68.7421 133.928L68.9029 125.439L69.1843 111.909L69.2647 108.822L68.8627 109.503L72.6013 108.504L81.5659 106.098L92.3797 103.193L101.746 100.696C103.274 100.287 104.842 99.9693 106.329 99.4699H106.409C106.731 99.3791 106.892 99.0159 106.771 98.6527C106.771 98.6224 106.758 98.5922 106.731 98.5619C106.57 98.1079 106.208 97.7901 105.766 97.6993L95.7163 95.2477C95.1535 95.1569 94.5907 95.2477 94.0681 95.4747L90.4903 96.4735L78.1891 99.9239L65.0437 103.647L60.3001 105.009C59.5363 105.236 58.7323 105.417 58.0087 105.644H57.8881C57.6067 105.78 57.4459 106.053 57.4861 106.371L57.6067 114.815L57.7675 128.208V131.295C57.8077 132.249 59.6569 132.93 59.6569 131.658Z" fill="#20044E"/>
<path d="M121.364 135.11C121.364 135.11 130.168 132.068 128.68 140.195C128.077 143.6 122.369 143.782 122.369 143.782C122.369 143.782 123.012 153.543 118.51 157.175C114.007 160.807 104.56 157.946 104.56 157.946C104.56 157.946 104.038 161.079 99.696 159.263C99.696 159.263 99.4548 161.76 94.4298 159.535C89.4048 157.311 87.7968 151 90.3294 149.593C92.862 148.185 96.5604 152.317 96.5604 152.317C96.5604 152.317 97.6056 146.733 101.746 151.182C101.746 151.182 101.706 147.868 104.761 148.14C107.816 148.412 108.58 148.912 111.193 148.458C114.731 147.913 121.404 143.555 121.404 143.555" fill="#9F616A"/>
<path d="M121.726 135.881C121.886 135.835 122.087 135.79 122.248 135.744H122.489C122.731 135.654 122.248 135.744 122.57 135.699C122.811 135.654 123.052 135.608 123.334 135.563C123.615 135.517 123.856 135.517 124.138 135.472H124.54C124.861 135.472 124.58 135.472 124.54 135.472H124.821C125.102 135.472 125.344 135.517 125.625 135.563H125.826C125.585 135.563 125.826 135.608 125.866 135.608L126.349 135.744L126.55 135.835C126.349 135.744 126.55 135.835 126.59 135.835C126.71 135.926 126.831 135.971 126.952 136.062C126.992 136.062 127.153 136.244 126.992 136.108L127.153 136.244C127.273 136.38 127.394 136.516 127.474 136.652C127.394 136.516 127.595 136.879 127.635 136.97C127.715 137.106 127.756 137.288 127.796 137.47C127.876 137.833 127.916 138.241 127.916 138.65C127.957 139.513 127.796 140.375 127.394 141.147C126.952 141.692 126.389 142.1 125.786 142.373C125.344 142.554 124.942 142.691 124.499 142.827H124.419L124.057 142.918L123.494 143.008C123.092 143.054 122.731 143.099 122.329 143.145C121.886 143.145 121.364 143.553 121.404 144.098C121.444 145.188 121.444 146.277 121.364 147.367C121.203 149.591 120.801 151.907 119.917 153.904C119.474 154.949 118.831 155.857 118.067 156.583C117.263 157.264 116.339 157.718 115.374 157.945C113.324 158.49 111.032 158.399 108.902 158.127L107.334 157.854L106.61 157.718H106.208C105.806 157.582 105.445 157.491 105.043 157.355C104.56 157.219 103.756 157.355 103.636 158.036C103.636 158.066 103.622 158.096 103.595 158.127C103.595 158.172 103.555 158.217 103.555 158.263C103.636 158.081 103.515 158.444 103.555 158.263L103.354 158.626C103.234 158.808 103.435 158.581 103.314 158.717C103.234 158.762 103.193 158.853 103.113 158.944H103.153C103.113 158.944 103.073 158.944 103.033 158.989L102.872 159.08C103.033 159.035 102.751 159.125 102.872 159.08C102.791 159.08 102.47 159.216 102.671 159.171C102.55 159.216 102.43 159.216 102.309 159.216H101.947C101.746 159.216 101.585 159.171 101.384 159.125C100.942 159.035 100.54 158.898 100.138 158.717C99.7362 158.535 98.7714 158.762 98.7312 159.398C98.7312 159.443 98.7312 159.489 98.691 159.534C98.6508 159.761 98.7312 159.443 98.691 159.489C98.6508 159.534 98.6106 159.625 98.5704 159.716C98.691 159.443 98.6106 159.67 98.5302 159.761C98.4498 159.852 98.7312 159.625 98.5704 159.716C98.5302 159.761 98.49 159.761 98.4498 159.806C98.2488 159.897 98.691 159.716 98.49 159.806H98.3292C98.1282 159.943 98.5704 159.852 98.3292 159.852C98.088 159.852 98.1282 159.897 98.0076 159.897H97.6458C97.4046 159.897 97.1634 159.852 96.9624 159.806C96.3996 159.67 95.8368 159.489 95.274 159.262C94.2288 158.853 93.264 158.217 92.46 157.4C91.254 156.129 90.249 154.404 90.2088 152.497C90.2088 152.179 90.249 151.861 90.3294 151.544C90.3294 151.453 90.3696 151.362 90.4098 151.317C90.3696 151.498 90.45 151.271 90.45 151.226L90.5706 150.999C90.6108 150.953 90.6108 150.908 90.651 150.863C90.5974 150.923 90.5974 150.923 90.651 150.863L90.8118 150.681H90.852C90.9726 150.545 91.0932 150.499 91.254 150.454C91.053 150.499 91.656 150.454 91.455 150.454C91.656 150.454 91.857 150.499 92.058 150.545C93.5052 150.953 94.7916 152.043 95.7966 153.178C96.8016 154.313 97.4448 153.587 97.6056 152.769C97.6458 152.542 97.7262 152.315 97.8066 152.088C97.8468 151.952 97.9272 151.816 97.8468 151.907C97.887 151.816 97.9272 151.68 98.0076 151.589C98.0478 151.453 98.1282 151.362 98.2086 151.271L98.289 151.135C98.4096 150.953 98.1684 151.271 98.3292 151.09L98.5704 150.817C98.7312 150.681 98.4498 150.908 98.6106 150.817L98.7714 150.726C98.5302 150.863 99.0528 150.681 98.7312 150.726H98.9724C98.9724 150.681 99.0126 150.681 99.0126 150.681C99.1734 150.681 98.9322 150.636 99.0528 150.681L99.294 150.772C99.4548 150.817 99.5754 150.908 99.7362 150.999C100.178 151.317 100.621 151.68 101.023 152.088C101.545 152.679 102.872 152.406 102.832 151.453C102.832 151.18 102.791 151.544 102.832 151.362L102.952 150.681C103.033 150.227 103.314 149.773 103.676 149.546C103.716 149.501 103.796 149.501 103.837 149.455C103.676 149.546 103.997 149.41 103.997 149.41C104.118 149.364 104.279 149.364 104.399 149.364C104.962 149.364 105.565 149.455 106.128 149.546C107.012 149.682 107.897 149.818 108.781 149.864C112.52 150.045 115.977 148.184 119.233 146.323C120.198 145.778 121.163 145.188 122.087 144.597C122.409 144.416 122.57 144.007 122.449 143.599C122.409 143.508 122.369 143.462 122.329 143.417C121.927 143.054 121.364 143.008 120.922 143.281C118.55 144.87 116.098 146.186 113.525 147.276C113.123 147.458 112.721 147.594 112.319 147.73L111.756 147.912H111.515C111.515 147.957 111.314 148.002 111.314 148.002C110.429 148.184 109.505 148.229 108.62 148.139C107.575 148.048 106.49 147.821 105.445 147.73C104.399 147.639 103.354 147.639 102.47 148.275C101.425 149.001 100.822 150.318 100.862 151.68L102.751 150.999C101.264 149.41 99.0126 148.048 97.1634 149.773C96.4398 150.499 95.9574 151.453 95.7966 152.542L97.6056 152.134C96.3996 150.772 94.9524 149.728 93.3444 149.092C91.3746 148.411 88.842 149.047 88.44 151.634C88.0782 153.904 89.1636 156.265 90.4902 157.9C91.4148 158.989 92.5002 159.852 93.7062 160.397C94.9524 161.078 96.3192 161.486 97.7262 161.577C98.6508 161.622 99.6558 161.441 100.339 160.714C100.621 160.442 100.822 160.079 100.902 159.67L99.495 160.351C101.063 160.987 103.073 161.395 104.56 160.306C105.163 159.852 105.605 159.171 105.806 158.399L104.399 159.08C105.605 159.443 106.852 159.716 108.098 159.897C110.47 160.351 112.922 160.351 115.294 159.943C117.746 159.443 119.957 158.217 121.404 155.857C122.65 153.768 123.253 151.226 123.494 148.729C123.695 147.185 123.736 145.596 123.655 144.053L122.731 145.006C123.977 144.961 125.223 144.688 126.389 144.28C127.313 143.962 128.198 143.417 128.921 142.691C129.605 141.919 130.007 140.875 130.087 139.74C130.248 137.833 129.846 135.926 128.318 134.927C127.072 134.11 125.504 134.019 124.057 134.155C123.133 134.246 122.208 134.428 121.324 134.746C120.922 134.882 120.52 135.336 120.721 135.835C120.922 136.335 121.283 136.017 121.726 135.881Z" fill="#20044E"/>
<path d="M101.425 151.862C101.827 154.449 103.113 156.719 105.043 158.127C105.927 158.808 106.932 159.262 108.017 159.443C108.419 159.489 108.098 159.035 107.977 158.853C107.816 158.626 107.615 158.445 107.414 158.263C107.254 158.127 107.053 157.991 106.852 157.945C106.45 157.9 106.048 157.809 105.686 157.673H105.565C105.646 157.673 105.565 157.627 105.525 157.627L105.284 157.491C105.244 157.491 105.043 157.355 105.123 157.4C105.203 157.446 105.123 157.4 105.083 157.355L104.962 157.264C104.761 157.128 105.043 157.31 104.922 157.219C104.882 157.173 104.641 156.992 104.801 157.128C104.962 157.264 104.721 157.083 104.721 157.037C104.56 156.901 104.882 157.219 104.681 156.992C104.48 156.765 104.6 156.856 104.52 156.81C104.721 156.992 104.52 156.81 104.48 156.765C104.44 156.719 104.399 156.629 104.319 156.583C104.239 156.538 104.399 156.719 104.359 156.629L104.279 156.492L104.038 156.084C104.038 156.084 103.917 155.857 103.957 155.948C103.997 156.038 103.957 155.948 103.957 155.902V155.766C103.917 155.766 103.555 154.949 103.555 154.949C103.435 154.676 103.394 154.449 103.314 154.222C103.274 154.086 103.314 154.268 103.314 154.177C103.314 154.086 103.274 154.086 103.274 154.041C103.234 153.95 103.234 153.859 103.193 153.723C103.153 153.496 103.113 153.314 103.073 153.087C103.033 152.679 102.55 152.27 102.229 152.043C102.148 152.043 101.384 151.544 101.425 151.862ZM95.5554 152.179C95.6358 152.951 95.7966 153.723 95.9976 154.449C96.3594 155.857 97.0026 157.173 97.887 158.263C98.5704 158.989 99.4548 159.443 100.339 159.67C100.58 159.761 100.862 159.807 101.103 159.807C101.344 159.807 101.505 159.852 101.585 159.807C101.746 159.67 100.982 159.443 100.942 159.443C101.103 159.489 100.982 159.443 100.982 159.443C100.982 159.443 101.103 159.489 101.023 159.443H100.902C100.781 159.307 100.621 159.262 100.5 159.171C100.219 158.989 99.9774 158.762 99.7764 158.49C99.3342 157.991 98.9322 157.4 98.6508 156.719C98.1684 155.63 97.8468 154.495 97.6458 153.314C97.6056 153.087 97.5654 152.815 97.5252 152.588C97.485 152.361 96.7212 152.225 96.5604 152.225C96.48 152.179 95.5152 151.998 95.5554 152.179Z" fill="#20044E"/>
<path d="M20.9037 115.406C20.9037 115.406 6.31108 139.377 17.4867 151.681C28.6623 163.984 72.2391 157.991 72.2391 157.991L63.5961 153.905C63.5961 153.905 83.5755 163.712 82.0077 159.172C80.4399 154.632 66.5709 145.052 66.5709 145.052C66.5709 145.052 76.9425 139.604 72.9627 136.608C70.3497 134.61 59.5359 138.878 59.5359 138.878C59.5359 138.878 52.0185 132.658 45.1041 139.831L33.0039 135.291C33.0039 135.291 26.7327 115.406 20.9037 115.406Z" fill="#9F616A"/>
<path d="M20.1401 114.68C19.2557 116.178 18.4115 117.721 17.6879 119.356C15.9995 122.761 14.6729 126.393 13.6679 130.161C12.5825 134.383 11.9795 138.923 12.7031 143.282C13.3865 147.413 15.3965 151.136 18.4115 153.633C20.9039 155.676 23.8787 156.902 26.8535 157.81C30.3911 158.808 34.0091 159.489 37.6271 159.807C41.4863 160.216 45.3053 160.397 49.1645 160.397C53.0237 160.397 56.3201 160.307 59.9381 160.08C62.7521 159.898 65.5661 159.671 68.3801 159.399C69.7469 159.262 71.1539 159.172 72.5207 158.945H72.7217C73.6061 158.763 73.0433 157.356 72.5207 157.129L64.9631 153.587L63.8777 153.088C63.4757 152.906 62.9129 152.816 62.7521 153.406C62.6717 153.951 62.9129 154.495 63.3953 154.768C65.2445 155.676 67.1741 156.538 69.0635 157.401C72.1589 158.763 75.3347 160.125 78.5909 160.988C79.6361 161.26 80.9225 161.623 81.9677 161.305C83.1335 160.988 83.1737 159.762 82.6913 158.718C81.9677 157.038 80.6411 155.676 79.4753 154.45C77.9477 152.906 76.3397 151.454 74.6513 150.137C73.0433 148.82 71.3951 147.549 69.7469 146.323C68.8223 145.642 67.9379 144.916 66.9731 144.326L66.8525 144.235L67.2143 145.915C68.3801 145.279 69.5459 144.553 70.6715 143.781C71.5961 143.145 72.4403 142.419 73.2443 141.602C73.9277 140.966 74.4503 140.149 74.7317 139.196C74.9729 138.106 74.6111 136.971 73.8473 136.245C73.0835 135.518 72.1187 135.11 71.1539 135.11C68.7821 134.928 66.3299 135.609 64.0787 136.245C62.4305 136.699 60.7823 137.243 59.1743 137.879L60.0587 138.151C57.0437 135.654 52.8227 134.61 49.2449 135.836C47.4359 136.472 45.7475 137.561 44.3807 139.059L45.1847 138.832L34.5719 134.928L33.0845 134.383L33.9689 135.337C33.2051 132.93 32.3207 130.57 31.3559 128.254C30.5519 126.211 29.6273 124.259 28.6223 122.352C27.6977 120.491 26.5721 118.766 25.2857 117.222C24.0797 115.815 22.5521 114.453 20.7431 114.453C18.9341 114.453 20.2205 116.359 21.1853 116.405H21.5471C21.7481 116.45 21.3461 116.405 21.5471 116.45H21.6677C21.6677 116.496 22.0295 116.632 22.0295 116.632C22.2305 116.723 21.8285 116.541 22.0295 116.632L22.2305 116.723C22.3511 116.813 22.4717 116.859 22.5923 116.95L22.7531 117.04C22.8737 117.131 22.5521 116.859 22.7531 117.04C22.9943 117.267 23.2757 117.449 23.4767 117.721C23.9591 118.175 24.3611 118.72 24.7631 119.265C25.2455 119.946 25.6877 120.627 26.1299 121.353C27.7781 124.304 29.2253 127.392 30.3911 130.615C30.8333 131.795 31.2755 132.976 31.6775 134.202C31.6775 134.383 31.7579 134.474 31.6775 134.292C31.6775 134.383 31.7579 134.474 31.7579 134.565C31.7579 134.656 31.8383 134.837 31.9187 135.019C31.9991 135.291 32.0795 135.564 32.2403 135.836C32.6825 136.426 33.7679 136.653 34.3709 136.88L38.2301 138.288L45.0239 140.785C45.3053 140.875 45.6269 140.83 45.8279 140.558C48.1997 137.924 51.6167 136.789 54.9131 137.607C55.3151 137.697 55.6769 137.834 56.0789 137.97C56.2799 138.061 56.4809 138.106 56.6417 138.197L56.8829 138.288C56.9633 138.333 56.9231 138.333 56.8829 138.288L57.0437 138.378C57.5663 138.651 58.0889 138.923 58.5713 139.241C58.7321 139.332 58.8929 139.423 59.0135 139.559C58.8527 139.377 58.8125 139.423 58.9733 139.559C59.3351 139.877 59.8175 139.922 60.2195 139.74C60.6215 139.559 61.0637 139.423 61.4657 139.286C64.3601 138.288 67.5359 137.198 70.5107 137.107H71.4755C71.6363 137.107 71.7569 137.153 71.9177 137.153C72.0785 137.153 71.7167 137.107 71.9579 137.153L72.2393 137.243H72.4403C72.6413 137.38 72.2393 137.153 72.4403 137.289C72.5207 137.334 72.7619 137.516 72.5207 137.334C72.6011 137.38 72.9227 137.743 72.7217 137.516L72.8423 137.652V137.743C72.8423 137.607 72.8423 137.561 72.8423 137.697V137.879C72.9227 138.106 72.8825 137.697 72.8825 137.834V138.242L72.7619 138.651C72.7351 138.742 72.7083 138.802 72.6815 138.832C72.7619 138.651 72.6413 138.878 72.6413 138.878C72.5609 139.014 72.4805 139.105 72.4001 139.241C72.1991 139.513 71.9579 139.786 71.7569 140.058C70.1891 141.783 67.9781 143.191 65.8877 144.235C65.1641 144.598 65.8877 145.642 66.2495 145.915C66.8525 146.323 67.4555 146.777 68.0585 147.186L68.9429 147.822L69.4253 148.185H69.3851C69.3851 148.139 69.5459 148.23 69.5459 148.23L69.8273 148.457L72.1187 150.228C73.7669 151.544 75.4151 152.906 76.9829 154.314C77.7065 154.995 78.3899 155.676 79.0733 156.357C79.4351 156.72 79.4753 156.765 79.8371 157.219L80.5607 158.173C80.6411 158.309 80.7617 158.445 80.8421 158.581C80.9225 158.718 80.7617 158.4 80.8421 158.581C80.9225 158.763 80.9225 158.763 80.9627 158.808C81.0029 158.854 81.0833 159.081 81.1235 159.217C81.1637 159.353 81.1235 159.081 81.1235 159.217C81.1235 159.353 81.1235 159.308 81.1637 159.353C81.2441 159.444 81.1637 159.444 81.1637 159.262V159.353C81.2441 159.126 81.1637 159.489 81.1637 159.353C81.2843 159.172 81.1637 159.308 81.1637 159.353C81.0431 159.535 81.2441 159.217 81.2441 159.308C81.2039 159.353 81.1637 159.353 81.1637 159.353C81.0029 159.353 81.3647 159.308 81.1235 159.353H80.8823C80.6813 159.444 81.0431 159.399 80.8019 159.399H80.4803C80.2391 159.399 79.9979 159.353 79.7567 159.308H79.5557C79.3949 159.217 79.7165 159.308 79.5155 159.262L79.0733 159.172C75.9779 158.445 72.9227 157.129 69.9881 155.857L67.8173 154.904H67.7369C67.7369 154.859 67.4957 154.722 67.4957 154.722L67.0133 154.495L66.1691 154.087C65.4455 153.769 64.7621 153.36 64.0385 153.088H63.9581C63.9581 153.043 63.4757 154.677 63.4757 154.677L71.0333 158.218L72.1187 158.718L71.9177 156.947C70.9931 157.083 70.0685 157.174 69.1439 157.265L67.6967 157.401L66.8525 157.492H66.4505C66.4505 157.537 66.1289 157.583 66.1289 157.583C64.7621 157.719 63.4355 157.81 62.0687 157.9C58.6919 158.127 55.3553 158.309 51.9785 158.354C48.2399 158.4 44.4611 158.354 40.7225 158.082C37.1045 157.855 33.5267 157.356 29.9489 156.629C28.3409 156.266 26.7329 155.812 25.1651 155.267C24.8033 155.131 24.4415 154.995 24.0395 154.859L23.5571 154.632L23.3159 154.541H23.1953C23.2489 154.541 23.2489 154.526 23.1953 154.495C22.5521 154.178 21.9089 153.86 21.2657 153.497C20.9441 153.315 20.6627 153.133 20.3813 152.952C20.2607 152.861 20.0999 152.77 19.9793 152.679L19.8587 152.589L19.7381 152.498C19.2155 152.089 18.7331 151.681 18.2909 151.181C17.0045 149.774 15.9593 148.094 15.3161 146.187C13.9895 142.374 14.1503 137.924 14.9141 133.929C15.6779 129.979 16.8839 126.166 18.4919 122.534C19.4165 120.4 20.4215 118.357 21.5873 116.405L21.7481 116.132C22.2305 115.179 20.6627 113.772 20.0999 114.68H20.1401Z" fill="#20044E"/>
<path d="M157.785 120.946L147.052 100.743C147.052 100.743 144.519 83.9451 146.288 81.6751C148.62 78.6334 154.77 76.9082 162.81 79.6776C170.489 82.3108 177.644 85.398 177.363 102.922C177.363 105.556 180.418 119.993 178.89 122.127C176.277 125.668 166.911 128.437 157.785 120.946Z" fill="#20044E"/>
<path d="M144.278 131.117C144.278 131.117 145.042 129.755 145.886 127.939C146.73 126.123 146.61 124.942 142.027 121.265C133.022 114.001 137.203 103.831 137.203 103.831C137.203 103.831 135.756 103.559 133.665 101.834C131.856 100.335 130.69 95.6593 137.042 95.5685C138.529 95.5231 140.218 95.2961 141.544 93.1169C143.233 90.3929 144.117 87.8051 147.172 82.9473L147.494 85.5805C148.338 92.5267 151.836 98.7465 157.102 102.515H157.665C154.891 113.638 159.514 121.401 159.514 121.401C159.514 121.401 158.911 125.396 158.991 127.348C158.991 127.348 149.866 136.565 144.278 131.117Z" fill="#9F616A"/>
<path d="M145.002 131.888C145.645 130.753 146.208 129.618 146.77 128.438C147.092 127.757 147.253 126.985 147.172 126.259C147.012 125.26 146.569 124.352 145.926 123.625C144.921 122.49 143.796 121.446 142.63 120.538C140.419 118.722 138.57 116.452 137.725 113.547C137.163 111.594 137.002 109.506 137.323 107.463L137.565 106.101C137.605 105.919 137.524 106.282 137.565 106.01C137.605 105.919 137.605 105.828 137.645 105.738C137.685 105.556 137.725 105.42 137.766 105.284C137.846 104.966 137.926 104.693 138.047 104.421C138.369 103.649 137.725 102.877 137.082 102.787C137.243 102.832 137.364 102.877 137.163 102.787C137.042 102.741 136.921 102.696 136.761 102.651C136.359 102.514 135.997 102.333 135.635 102.106C135.072 101.788 134.55 101.425 134.067 100.971C133.987 100.88 133.866 100.789 133.786 100.698L133.665 100.562C133.585 100.426 133.504 100.335 133.464 100.199C133.464 100.153 133.303 99.8811 133.384 100.063C133.464 100.244 133.344 99.9719 133.344 99.9265L133.223 99.5179C133.183 99.3817 133.183 99.3363 133.223 99.5179C133.223 99.4271 133.183 99.3363 133.183 99.2455V99.0185C133.143 98.7915 133.183 99.1093 133.183 98.9731C133.183 98.8369 133.223 98.5191 133.223 98.6099C133.263 98.5191 133.303 98.3829 133.344 98.2921C133.424 98.1105 133.344 98.2921 133.344 98.2467C133.344 98.2013 133.424 98.1105 133.504 98.0197C133.545 97.9743 133.585 97.8835 133.665 97.8381C133.746 97.7019 133.585 97.8835 133.746 97.7473C133.906 97.6111 134.067 97.5203 134.228 97.3841C134.59 97.1571 134.992 97.0209 135.354 96.9301C136.479 96.6577 137.605 96.7939 138.73 96.5669C139.977 96.3399 141.102 95.6135 141.906 94.5693C142.549 93.6613 143.112 92.7079 143.595 91.7091C145.002 89.0305 146.368 86.3065 147.936 83.7641L146.328 82.9469C146.65 85.6709 146.971 88.3495 147.856 90.9827C149.062 94.6601 151.032 98.0197 153.604 100.698C154.328 101.425 155.092 102.151 155.856 102.787C156.258 103.104 156.74 103.649 157.263 103.649C157.785 103.649 157.665 103.604 157.825 103.604L156.861 101.97C155.333 108.189 155.614 114.999 158.227 120.811C158.388 121.219 158.589 121.582 158.79 121.946L158.629 121.128C158.268 123.171 158.067 125.26 158.107 127.348L158.469 126.44C157.464 127.439 156.378 128.347 155.212 129.119C153.202 130.526 150.831 131.797 148.459 131.797C147.132 131.843 145.846 131.343 144.841 130.435C144.519 130.027 143.956 130.027 143.595 130.39H143.554C143.273 130.935 143.353 131.57 143.715 131.979C148.378 136.428 154.81 132.66 158.871 128.983L159.433 128.438C159.916 127.938 159.835 127.348 159.835 126.758C159.916 125.169 160.077 123.58 160.318 121.991C160.398 121.265 160.077 120.81 159.755 120.22L159.634 119.948C159.514 119.676 159.715 120.13 159.594 119.903C159.474 119.676 159.393 119.403 159.273 119.131C159.031 118.495 158.83 117.86 158.629 117.224C157.343 112.684 157.263 107.781 158.428 103.195C158.589 102.514 158.227 101.515 157.464 101.561C157.263 101.606 157.062 101.606 156.901 101.606L157.343 101.743C152.398 98.1559 149.102 92.2993 148.298 85.7163C148.177 84.8537 148.097 83.9911 147.976 83.0831C147.896 82.3567 146.891 81.4487 146.368 82.2659C144.841 84.7629 143.474 87.3507 142.147 89.9839C141.665 91.0281 141.102 91.9815 140.459 92.8895C139.735 93.8429 138.69 94.4331 137.565 94.5239C135.595 94.7055 133.022 94.5693 131.776 96.7031C130.932 98.2013 131.213 100.108 132.057 101.516C132.741 102.56 133.665 103.377 134.67 103.967C135.434 104.512 136.318 104.875 137.203 105.057L136.238 103.422C135.153 106.237 134.871 109.324 135.434 112.321C135.957 115.181 137.243 117.86 139.052 119.948C140.218 121.31 141.585 122.309 142.871 123.444C143.394 123.898 143.876 124.397 144.358 124.897C144.519 125.078 144.68 125.26 144.841 125.487C144.72 125.305 144.881 125.532 144.921 125.578C144.961 125.623 145.042 125.759 145.082 125.85L145.162 125.986C145.243 126.122 145.082 125.759 145.122 125.895C145.162 126.031 145.203 126.077 145.203 126.168V126.44C145.203 126.122 145.162 126.576 145.162 126.713C145.203 126.395 145.082 126.894 145.042 127.03C144.559 128.211 143.997 129.3 143.394 130.39C143.112 130.889 143.193 131.525 143.554 131.934C144.037 132.206 144.72 132.387 145.002 131.888Z" fill="#20044E"/>
<path d="M102.711 129.526C102.711 129.526 100.179 107.007 97.646 105.6C95.1134 104.193 95.837 113.5 95.837 113.5C95.837 113.5 83.375 107.053 80.0384 108.415C76.7018 109.777 83.1338 114.181 83.1338 114.181C83.1338 114.181 76.139 114.181 75.4154 116.95C74.6918 119.719 82.169 119.038 83.9378 119.447C83.9378 119.447 76.2998 121.263 77.9078 123.533C79.5158 125.803 83.1338 124.169 84.581 124.668C86.0282 125.167 84.4202 131.342 87.5156 134.974C90.611 138.606 92.621 138.606 92.621 138.606" fill="#9F616A"/>
<path d="M103.395 129.981C102.872 125.26 102.189 120.538 101.344 115.862C100.822 113.002 100.299 110.051 99.2941 107.372C98.9323 106.419 98.4901 105.329 97.6861 104.739C97.0831 104.239 96.2389 104.33 95.7967 105.011C95.7163 105.147 95.6359 105.329 95.5957 105.465C95.0329 106.873 95.0329 108.552 95.0329 110.051C95.0329 111.549 95.0731 112.003 95.1133 112.956L95.7967 112.502C92.7013 110.868 89.5657 109.506 86.3095 108.371C84.4603 107.735 82.4101 107.009 80.4403 107.145C79.7569 107.19 78.8725 107.463 78.5107 108.235C78.0283 109.279 78.6715 110.505 79.1941 111.367C80.1991 112.865 81.7267 114.046 83.1337 115.045L82.7317 113.092C81.8071 113.092 80.8825 113.183 79.9579 113.274C78.5509 113.456 76.9027 113.773 75.6967 114.681C74.3701 115.68 74.2897 117.542 75.4957 118.767C76.5409 119.812 78.1891 119.948 79.5157 120.039C80.4001 120.129 81.2845 120.129 82.1689 120.175C82.8121 120.175 83.4553 120.22 84.0985 120.311L83.4955 118.268C81.9277 118.631 80.4403 119.176 78.9931 119.857C78.2293 120.22 77.2645 120.81 77.0233 121.764C76.6615 123.126 77.8675 124.579 78.8323 125.123C80.1589 125.85 81.6865 125.668 83.0935 125.532C83.6161 125.441 84.1387 125.441 84.6613 125.487C84.8623 125.532 84.7015 125.487 84.5809 125.396C84.7015 125.487 84.3397 125.033 84.4201 125.214C84.2995 124.987 84.3397 125.033 84.3799 125.123C84.4603 125.35 84.3397 124.942 84.3799 125.078C84.4201 125.214 84.4201 125.305 84.4603 125.441C84.5407 125.804 84.5809 126.576 84.6211 127.121C84.6613 127.938 84.7417 128.755 84.8623 129.527C85.0633 131.298 85.6261 132.932 86.4703 134.43C87.6361 136.246 89.1637 137.745 90.9325 138.743C91.5355 139.152 92.2189 139.379 92.9425 139.47C93.7465 139.47 92.9425 137.427 92.1787 137.427H92.0983C92.3395 137.472 92.0581 137.427 91.9777 137.381C91.6561 137.291 91.3747 137.2 91.0933 137.064C89.7667 136.337 88.6009 135.338 87.6361 134.067C85.9879 131.979 86.1889 128.982 85.8673 126.349C85.7467 125.26 85.3849 123.852 84.2995 123.489C83.2141 123.126 81.9679 123.534 80.8825 123.58C80.2393 123.625 79.5961 123.58 78.9931 123.353C78.7519 123.262 78.5107 123.126 78.3499 122.944C78.2695 122.853 78.1489 122.581 78.2695 122.899C78.2293 122.808 78.3097 123.035 78.3499 123.08C78.4303 123.307 78.3901 123.217 78.3499 123.171C78.3097 123.035 78.3901 123.171 78.3499 123.217C78.3499 123.217 78.3499 123.126 78.3901 123.126C78.3901 123.171 78.3499 123.262 78.3901 123.126L78.6313 122.717C78.9127 122.445 79.2343 122.172 79.5961 121.991C81.0835 121.174 82.6513 120.583 84.2593 120.266C85.1035 120.039 84.2191 118.359 83.6965 118.223C82.4905 118.041 81.2845 117.996 80.0785 117.996C78.7921 117.95 77.3047 117.905 76.0987 117.36C76.1791 117.405 75.9379 117.269 75.8977 117.224C75.6967 117.088 75.9379 117.315 75.7771 117.133C76.0585 117.451 75.7369 117.042 75.8575 117.269C75.9781 117.496 75.8173 117.042 75.9379 117.451C75.8977 117.269 75.9781 117.542 75.9781 117.632C76.0183 117.814 76.0183 117.405 75.9781 117.678C76.0987 117.178 76.3801 116.77 76.7821 116.543C77.8675 115.726 79.2745 115.499 80.5609 115.272C81.4855 115.135 82.4503 115.045 83.4151 115.045C84.3799 115.045 83.7769 114.5 83.7367 114.227C83.6563 113.773 83.3749 113.365 83.0131 113.092C82.6513 112.82 82.2895 112.593 81.9679 112.321L81.8473 112.23C81.8473 112.23 81.9277 112.321 81.8875 112.23L81.6463 112.048C81.4855 111.912 81.2845 111.73 81.1237 111.594C80.9629 111.458 80.8021 111.322 80.6413 111.14L80.4001 110.913L80.2393 110.732C80.1187 110.595 79.9981 110.414 79.8775 110.232L79.7971 110.141C79.7167 110.005 79.8775 110.323 79.8373 110.187C79.7971 110.141 79.6765 109.869 79.7569 110.005C79.8373 110.141 79.7167 109.914 79.7167 109.869C79.8373 110.323 79.6363 109.597 79.7569 110.005C79.7167 109.869 79.7569 109.914 79.7569 109.96V109.869C79.8373 109.687 79.7167 109.96 79.7569 109.824C79.9177 109.551 80.1991 109.324 80.4805 109.233C80.7619 109.143 81.0433 109.097 81.3247 109.097C83.1337 109.006 84.9829 109.687 86.6713 110.278C88.6813 110.959 90.6511 111.821 92.6209 112.729C93.7867 113.274 94.6711 113.683 95.7967 114.273C96.1585 114.454 96.5203 114.318 96.4801 113.819C96.2791 111.821 96.3193 109.778 96.6409 107.826C96.6811 107.372 96.8419 106.918 97.0831 106.555C97.2037 106.419 97.0831 106.555 97.2037 106.464C97.2439 106.419 97.4449 106.373 97.3243 106.373C97.4047 106.373 97.4449 106.328 97.5253 106.328C97.4449 106.328 97.6057 106.373 97.6861 106.373C97.5655 106.328 97.6861 106.373 97.7263 106.419C97.4851 106.237 97.6459 106.328 97.6861 106.419C97.6057 106.328 97.4449 106.146 97.6861 106.419C97.8469 106.646 97.6057 106.237 97.6861 106.419C97.7665 106.6 97.8469 106.736 97.9273 106.873V106.963C97.9675 106.963 98.1283 107.327 98.1283 107.327C98.2087 107.554 98.2891 107.826 98.3695 108.053L98.4901 108.416V108.598C98.6107 108.87 98.4901 108.371 98.5303 108.643L99.0127 110.55C99.3745 112.003 99.6559 113.456 99.8971 114.908C100.46 117.905 100.902 120.947 101.304 123.988C101.385 124.669 101.465 125.35 101.586 125.986C101.626 126.304 101.666 126.622 101.706 126.894V127.03C101.706 126.985 101.666 126.803 101.706 127.03C101.706 127.076 101.746 127.257 101.746 127.393C101.787 127.847 101.867 128.347 101.907 128.801C101.947 129.346 102.229 129.845 102.631 130.163C102.952 130.39 103.354 130.208 103.314 129.709L103.395 129.981Z" fill="#20044E"/>
<path d="M82.5305 114.591H84.9827C84.9827 114.636 85.4249 114.682 85.4249 114.682H85.8671C85.8671 114.727 85.9877 114.727 85.9877 114.727H85.8671C85.9475 114.727 86.0279 114.727 86.1083 114.773C86.2289 114.773 86.3897 114.818 86.5103 114.863C86.5505 114.863 86.7917 114.954 86.5907 114.863H86.7515C86.7515 114.909 87.0731 115.045 87.0731 115.045C86.9123 114.954 87.0731 115.045 87.1133 115.09L87.2339 115.181C87.6761 115.408 88.1585 115.454 88.6007 115.317C88.8017 115.272 89.3243 115.136 88.9625 114.909C88.4399 114.591 87.8369 114.409 87.2741 114.319C86.5907 114.182 85.9073 114.092 85.2239 114.046C84.3395 114.001 83.4551 113.955 82.5707 113.955C81.6863 113.955 81.6059 113.91 81.5657 114.228C81.5255 114.546 82.4501 114.591 82.5707 114.591H82.5305ZM84.1787 117.905L82.0883 118.087H81.7667C81.4049 118.178 81.8471 118.904 81.9275 119.04C82.0883 119.267 82.2491 119.494 82.4501 119.676C82.5707 119.767 82.7315 119.948 82.8923 119.948L84.9827 119.767H85.3043C85.6661 119.676 85.2239 118.949 85.1435 118.813C84.9827 118.586 84.8219 118.359 84.6209 118.178C84.5003 118.041 84.3395 117.905 84.1787 117.905Z" fill="#20044E"/>
<path d="M107.455 183.871C87.797 168.072 86.0684 143.374 86.0684 143.374L102.309 124.987L115.897 146.143C115.897 146.143 146.489 118.359 167.393 123.625C167.393 123.625 180.337 125.668 187.694 185.46" fill="white"/>
<path d="M107.817 183.008C101.344 177.741 96.0379 170.84 92.3395 162.85C89.9275 157.72 88.2391 152.181 87.2743 146.461C87.1939 146.007 87.1135 145.553 87.0733 145.099C87.0331 144.917 87.1135 145.326 87.0733 145.189V145.008C87.0331 144.917 87.0331 144.826 86.9929 144.735C86.9527 144.645 86.9527 144.463 86.9527 144.281C86.9125 144.009 86.8723 143.737 86.8723 143.419L86.6713 144.1L92.1787 137.835L100.902 127.983L102.912 125.713L101.746 125.486L106.329 132.659L113.646 144.054L115.334 146.642C115.575 147.051 116.058 147.187 116.46 146.915C116.5 146.915 116.5 146.869 116.54 146.869C116.942 146.506 117.304 146.188 117.706 145.87L118.349 145.326H118.389C118.389 145.28 118.55 145.144 118.55 145.144L118.992 144.781C119.595 144.281 120.238 143.737 120.882 143.237C124.54 140.332 128.319 137.562 132.218 135.065C137.042 131.933 142.067 129.254 147.293 127.12C152.318 125.123 157.705 123.67 163.051 123.942C164.539 123.988 166.026 124.215 167.473 124.578H167.634C167.795 124.669 167.353 124.487 167.554 124.578L167.715 124.669C168.036 124.805 168.358 124.986 168.679 125.213C168.76 125.259 168.438 125.032 168.639 125.168L168.8 125.259L169.122 125.531C169.363 125.713 169.604 125.94 169.805 126.167C170.006 126.394 170.046 126.439 170.207 126.575L170.408 126.757L170.488 126.848H170.448C170.73 127.166 171.011 127.483 171.292 127.847C171.976 128.755 172.619 129.708 173.182 130.661L173.302 130.843V130.934C173.343 130.934 173.423 131.025 173.423 131.025C173.463 131.115 173.503 131.206 173.544 131.252C173.704 131.569 173.905 131.887 174.066 132.205C174.428 132.886 174.79 133.612 175.111 134.339C175.915 136.064 176.639 137.835 177.322 139.651C177.523 140.15 177.684 140.695 177.885 141.24C178.086 141.83 178.167 142.011 178.368 142.692C178.77 143.918 179.131 145.144 179.533 146.37C180.378 149.185 181.101 152.09 181.785 154.95C183.553 162.578 184.88 170.296 186.006 178.104C186.327 180.42 186.649 182.781 186.93 185.096C186.97 185.686 187.292 186.186 187.815 186.322C188.217 186.367 188.578 186.095 188.619 185.641V185.414C187.573 176.788 186.247 168.162 184.478 159.627C183.312 153.725 181.785 147.913 179.935 142.193C178.729 138.379 177.202 134.702 175.433 131.206C174.348 129.072 173.061 127.075 171.534 125.304C170.689 124.26 169.684 123.397 168.559 122.762C167.996 122.489 167.433 122.262 166.83 122.172C161.564 120.991 156.057 121.854 150.911 123.443C145.363 125.213 140.017 127.665 134.952 130.752C130.57 133.34 126.349 136.246 122.248 139.378C119.997 141.103 117.786 142.874 115.656 144.781L115.374 145.053L116.54 145.28L111.917 138.107L104.601 126.712L102.912 124.124C102.671 123.715 102.189 123.579 101.787 123.851C101.746 123.851 101.746 123.897 101.706 123.897L94.7917 131.706L85.9075 141.739C85.5859 142.102 85.2241 142.375 85.2241 142.965C85.2241 143.555 85.2643 143.328 85.2643 143.555C85.4251 144.962 85.6261 146.37 85.9075 147.732C86.9527 153.225 88.6411 158.537 90.9727 163.486C94.3093 170.75 98.9323 177.196 104.601 182.372C105.405 183.098 106.249 183.825 107.093 184.506C108.138 185.595 108.701 183.734 107.817 183.008ZM145.363 95.8849C145.363 95.8849 144.278 96.9745 145.323 98.0641C146.368 99.1537 147.534 97.7009 146.931 96.4751C146.328 95.2493 145.363 95.8849 145.363 95.8849ZM145.886 92.4799C144.841 91.9351 144.037 90.8455 143.796 89.5743C143.434 87.9853 143.675 86.2601 144.519 84.8981C145.404 83.3545 146.69 81.9017 148.298 81.3569C149.826 80.9029 151.474 81.0391 152.921 81.7655C154.69 82.5827 156.177 84.0355 157.665 85.4429C157.906 85.6699 158.509 86.0785 158.75 85.7153C158.991 85.3521 158.469 84.7619 158.268 84.5349C155.293 81.6747 151.554 78.5421 147.414 79.5863C145.524 80.0857 143.997 81.6747 142.951 83.4453C141.946 85.0797 141.665 87.1227 142.147 88.9841C142.75 91.2087 144.198 93.0701 146.127 93.9781C146.449 94.1143 146.891 94.1143 146.851 93.6149C146.811 93.1155 146.288 92.6615 145.886 92.4799Z" fill="#20044E"/>
<path d="M138.328 88.5306C138.61 85.0802 140.66 82.1292 143.554 81.0396C145.001 80.5856 146.529 80.4494 148.016 80.631C149.544 80.7218 151.031 81.0396 152.479 81.4936C154.046 81.993 155.453 83.0372 156.458 84.49C156.78 84.9894 158.669 84.3538 158.308 83.809C156.257 80.6764 152.318 79.95 149.102 79.6776C145.444 79.3598 141.263 80.0862 138.65 83.2642C137.323 84.8532 136.519 86.8962 136.358 89.0754C136.358 89.484 138.288 89.257 138.328 88.5306Z" fill="#20044E"/>
<path d="M154.569 106.917C154.569 106.917 156.821 100.062 160.599 104.011C164.378 107.961 159.313 114.499 155.172 114.635" fill="#9F616A"/>
<path d="M155.132 107.826C155.695 106.192 156.941 103.785 158.71 103.831C159.393 103.876 159.996 104.194 160.479 104.739C160.72 104.966 160.921 105.238 161.082 105.556C161.122 105.647 161.162 105.692 161.162 105.783L161.283 106.328C161.443 108.008 160.519 109.733 159.554 110.959C158.348 112.411 156.619 113.637 154.81 113.728C154.207 113.773 154.971 115.771 155.574 115.771C157.423 115.589 159.112 114.681 160.398 113.138C161.684 111.685 162.649 109.778 162.529 107.644C162.328 105.284 161.041 103.195 159.152 102.151C157.785 101.425 156.499 102.06 155.534 103.286C154.891 104.103 154.368 105.057 154.047 106.101C153.886 106.555 154.167 107.1 154.408 107.463C154.449 107.554 155.011 108.28 155.132 107.826ZM143.635 110.777C144.439 111.095 145.283 111.049 146.047 110.641C146.971 110.187 147.695 109.324 148.057 108.28C148.217 107.735 148.258 107.19 148.218 106.6C148.177 106.419 148.057 106.282 147.896 106.237C147.695 106.192 147.454 106.237 147.253 106.373C147.011 106.509 146.81 106.691 146.65 106.918C146.529 107.1 146.449 107.281 146.449 107.508V108.189V108.008C146.449 108.235 146.408 108.462 146.328 108.689V108.779C146.207 108.961 146.328 108.643 146.288 108.779L146.167 109.052V109.143C146.087 109.188 146.288 108.916 146.167 109.052C146.127 109.143 146.047 109.188 146.007 109.279C146.248 108.961 146.087 109.188 146.007 109.279C145.926 109.37 145.765 109.46 146.087 109.188L146.007 109.279H145.926C146.248 109.097 146.127 109.279 146.007 109.279C145.886 109.279 145.645 109.415 146.007 109.279L145.765 109.37H145.685C145.966 109.279 145.846 109.324 145.765 109.37H145.524C145.444 109.37 145.323 109.324 145.564 109.37H145.484C145.323 109.37 145.202 109.324 145.042 109.279H145.203C145.203 109.324 145.122 109.279 145.122 109.279C144.68 109.143 144.197 109.279 143.876 109.687C143.715 109.869 143.594 110.051 143.514 110.323C143.474 110.505 143.514 110.732 143.635 110.777Z" fill="#20044E"/>
</svg>
