<svg width="24" height="24" viewBox="0 0 24 24" fill="none" xmlns="http://www.w3.org/2000/svg">
<path d="M13.4089 2.5111C12.5053 2.14474 11.4945 2.14474 10.5909 2.5111L8.40091 3.3991L17.9929 7.1291L21.3669 5.8261C21.2282 5.71199 21.0731 5.6193 20.9069 5.5511L13.4089 2.5111ZM21.9999 7.1891L12.7499 10.7631V21.6861C12.9739 21.6408 13.1936 21.5744 13.4089 21.4871L20.9069 18.4471C21.2299 18.3163 21.5064 18.092 21.7012 17.803C21.8959 17.5141 21.9999 17.1736 21.9999 16.8251V7.1891ZM11.2499 10.7631V20.7731L9.42491 18.9491C9.941 17.9129 10.117 16.7402 9.92772 15.5981C9.73849 14.456 9.19372 13.4028 8.37099 12.5884C7.54827 11.774 6.48955 11.2399 5.34561 11.0623C4.20168 10.8847 3.03086 11.0725 1.99991 11.5991V7.1891L11.2499 10.7631ZM2.63291 5.8261L11.9999 9.4451L15.9169 7.9311L6.37391 4.2211L3.09291 5.5511C2.92224 5.62043 2.76891 5.7121 2.63291 5.8261ZM4.49991 20.9991C5.43421 20.9991 6.34535 20.7083 7.10691 20.1671L9.71991 22.7791C9.78857 22.8528 9.87137 22.9119 9.96337 22.9529C10.0554 22.9939 10.1547 23.0159 10.2554 23.0177C10.3561 23.0195 10.4561 23.0009 10.5495 22.9632C10.6429 22.9255 10.7277 22.8694 10.7989 22.7981C10.8702 22.7269 10.9263 22.6421 10.964 22.5487C11.0018 22.4553 11.0203 22.3553 11.0185 22.2546C11.0167 22.1539 10.9947 22.0546 10.9537 21.9626C10.9127 21.8706 10.8536 21.7878 10.7799 21.7191L8.16791 19.1061C8.75233 18.2839 9.04352 17.2891 8.99474 16.2815C8.94596 15.2739 8.56004 14.3119 7.89893 13.55C7.23782 12.788 6.33986 12.2703 5.34922 12.08C4.35857 11.8896 3.33268 12.0376 2.43625 12.5002C1.53982 12.9629 0.824827 13.7133 0.406061 14.631C-0.0127053 15.5488 -0.11096 16.5806 0.127071 17.5609C0.365101 18.5412 0.925609 19.4131 1.71862 20.0366C2.51163 20.6601 3.49114 20.9991 4.49991 20.9991ZM4.49991 19.4991C3.70426 19.4991 2.9412 19.183 2.37859 18.6204C1.81598 18.0578 1.49991 17.2947 1.49991 16.4991C1.49991 15.7034 1.81598 14.9404 2.37859 14.3778C2.9412 13.8152 3.70426 13.4991 4.49991 13.4991C5.29556 13.4991 6.05862 13.8152 6.62123 14.3778C7.18384 14.9404 7.49991 15.7034 7.49991 16.4991C7.49991 17.2947 7.18384 18.0578 6.62123 18.6204C6.05862 19.183 5.29556 19.4991 4.49991 19.4991Z" fill="white"/>
</svg>
