<svg width="213" height="46" viewBox="0 0 213 46" fill="none" xmlns="http://www.w3.org/2000/svg">
<g clip-path="url(#clip0_380_197)">
<path d="M115.925 23.5923L119.308 23.9267L118.338 34.6536C109.978 34.3621 104.702 34.2163 102.51 34.2163H100.309L93.7792 34.4993L93.708 28.5828L106.579 16.7239C107.951 15.5064 108.953 14.4688 109.584 13.6113C110.53 12.3423 111.003 11.1161 111.003 9.93278C111.003 8.44081 110.443 7.26604 109.324 6.40857C108.219 5.53397 106.713 5.09666 104.805 5.09666C102.849 5.09666 101.342 5.55111 100.286 6.46005C99.197 7.36894 98.4793 8.82666 98.1325 10.8331H93.7555V1.00653L97.5173 0.955078L97.541 1.13515C97.541 1.1523 97.541 1.16087 97.541 1.16087V1.18659C97.541 1.73538 97.7146 2.18983 98.0614 2.54997C98.4243 2.9444 98.8503 3.14163 99.3389 3.14163C99.5756 3.14163 99.8123 3.09018 100.049 2.98728C100.096 2.97013 100.096 2.97013 100.049 2.98728C101.91 1.94117 104.071 1.41811 106.531 1.41811C110.254 1.41811 113.077 2.12981 115.002 3.55321C116.942 4.95946 117.912 7.04313 117.912 9.80415C117.912 12.7024 115.948 15.6778 112.021 18.7304L96.9732 30.5121H104.26C108.251 30.5121 110.901 30.2205 112.21 29.6375C114.245 28.7457 115.483 26.7306 115.925 23.5923Z" fill="#9BB0FF"/>
<path d="M11.8931 30.9743L16.7433 31.0516C19.5982 31.0516 21.7592 30.4084 23.226 29.1222C24.4721 28.0247 25.0952 26.6441 25.0952 24.9807C25.0952 23.7116 24.6693 22.6054 23.8175 21.6623C22.4295 20.1188 20.0793 19.3471 16.767 19.3471L14.3537 19.3728L11.8931 19.3985V30.9743ZM11.8931 5.12167V15.72H13.0051V15.7457H14.2827L16.3884 15.7972C18.5178 15.7972 20.1109 15.4713 21.1677 14.8197C22.6346 13.945 23.368 12.393 23.368 10.1636C23.368 8.1228 22.5872 6.70799 21.0257 5.91911C19.9058 5.33604 18.2102 5.0445 15.9389 5.0445L11.8931 5.12167ZM23.581 17.1862L25.4974 17.8551C27.5006 18.5582 29.0384 19.5529 30.111 20.8391C31.1678 22.1253 31.6962 23.6173 31.6962 25.3151C31.6962 28.3676 30.6946 30.7343 28.6915 32.4149C26.6882 34.0956 23.857 34.9359 20.1976 34.9359L0.394487 34.4728L0.347168 30.4342C1.4986 30.6743 2.68947 30.7943 3.91977 30.7943H4.86616V7.15387L10.8521 5.27601L4.79518 5.25029L3.91977 5.30174C2.68947 5.30174 1.4986 5.42178 0.347168 5.66187L0.394487 1.6232L17.5241 1.16016C21.9406 1.16016 25.0242 2.13768 26.775 4.09271C27.9895 5.43036 28.5968 7.33393 28.5968 9.80344C28.5968 12.4101 27.4927 14.4767 25.2845 16.003L23.581 17.1862ZM42.414 34.4214C39.3541 34.3528 37.1458 32.878 35.7893 29.9969C34.7483 27.8189 34.2278 24.9035 34.2278 21.2507C34.2278 17.5978 34.7562 14.691 35.813 12.5302C37.1853 9.66624 39.425 8.21713 42.5323 8.18283L51.6885 10.2665L53.5338 8.25999L58.9285 8.1571V30.8715H59.993C60.6239 30.8715 61.4441 30.7686 62.4536 30.5628L62.4066 34.267L55.4266 34.1642L53.5813 30.6914H53.5575L52.4219 28.5306V13.2505L46.2232 12.1186H46.1523C43.9125 12.1186 42.343 13.1476 41.444 15.2055C40.8288 16.6289 40.5212 18.644 40.5212 21.2507C40.5212 24.8692 41.1364 27.493 42.3667 29.1222C43.3131 30.357 44.5749 30.9743 46.1523 30.9743H46.2706L51.6885 29.9197L42.414 34.4214ZM91.0819 36.4793C91.0819 39.7548 89.6388 42.1301 86.7522 43.6049C84.5596 44.7196 81.6104 45.277 77.9036 45.277C74.4336 45.277 71.2865 44.7625 68.4635 43.7335C65.7975 42.756 64.4175 41.7099 64.3231 40.5952L68.0849 35.2446L68.1319 36.4536C68.148 38.2371 69.5043 39.7463 72.2016 40.981C74.7253 42.1472 77.5957 42.7303 80.8135 42.7303C82.3277 42.7303 83.7001 42.3702 84.9306 41.6499C86.2394 40.8953 86.8941 39.995 86.8941 38.9488C86.8941 37.5426 86.0501 36.445 84.3628 35.6562C82.6749 34.8673 80.3324 34.4728 77.3358 34.4728C76.0896 34.4728 74.5597 34.4386 72.7457 34.37C71.2946 34.3185 70.1983 34.2928 69.4568 34.2928H69.4331C69.1651 34.2928 68.9364 34.2756 68.7472 34.2413C68.3212 34.1899 68.0531 34.147 67.9426 34.1127C67.3909 33.9412 66.8938 33.6926 66.4521 33.3667C66.389 33.3324 66.2866 33.2381 66.1447 33.0837C65.5138 32.4835 65.1983 31.8319 65.1983 31.1287C65.1983 30.6657 65.269 30.1169 65.4113 29.4824L69.9777 24.8006C69.6623 25.5551 69.5043 26.2497 69.5043 26.8842C69.5043 27.6388 69.7092 28.2734 70.1195 28.7878C70.7505 29.5767 71.8074 29.9711 73.2898 29.9711C74.5835 29.9711 76.6418 29.6539 79.4653 29.0194C81.8467 28.4706 83.5032 28.1962 84.4335 28.1962C86.7048 28.1962 88.377 28.8736 89.4495 30.2284C90.5378 31.566 91.0819 33.6497 91.0819 36.4793ZM76.0815 11.8099C77.6588 11.8099 78.8813 12.2472 79.749 13.1219C80.601 13.9793 81.0265 15.1883 81.0265 16.749C81.0265 18.4639 80.601 19.7929 79.749 20.7362C78.8813 21.6794 77.6588 22.151 76.0815 22.151C74.378 22.151 73.0531 21.6794 72.1067 20.7362C71.1765 19.7929 70.7111 18.4639 70.7111 16.749C70.7111 15.1712 71.1684 13.9536 72.083 13.0961C73.0137 12.2387 74.3467 11.8099 76.0815 11.8099ZM68.2974 23.2314L70.2614 24.1575L70.2851 24.1318L70.7348 24.2861C72.2647 24.7148 74.0469 24.9292 76.0815 24.9292C78.905 24.9292 81.2157 24.4576 83.0141 23.5144C85.6166 22.1596 86.9178 19.9045 86.9178 16.749C86.9178 15.4113 86.6498 14.1508 86.1132 12.9675L86.0426 12.8389V12.6845C86.0426 12.2901 86.2238 11.9386 86.5867 11.6298C86.9809 11.304 87.47 11.1411 88.0534 11.1411C88.4951 11.1411 89.0316 11.244 89.6626 11.4498L90.4197 11.6813L90.6322 8.33715L89.1417 8.02852C88.5738 7.92557 88.1559 7.87415 87.8879 7.87415C86.2318 7.87415 84.9937 8.50008 84.1735 9.75202L83.8419 10.2408L83.3927 9.93207C81.5312 8.73161 79.0943 8.13136 76.0815 8.13136C72.5484 8.13136 69.7884 8.89455 67.8008 10.4208C65.8136 11.9471 64.8198 14.0565 64.8198 16.749C64.8198 19.4586 65.8212 21.5079 67.8245 22.897L68.2974 23.2314ZM133.362 30.9743L138.212 31.0516C141.067 31.0516 143.228 30.4084 144.695 29.1222C145.941 28.0247 146.564 26.6441 146.564 24.9807C146.564 23.7116 146.138 22.6054 145.286 21.6623C143.898 20.1188 141.548 19.3471 138.236 19.3471L135.822 19.3728L133.362 19.3985V30.9743ZM133.362 5.12167V15.72H134.474V15.7457H135.751L137.857 15.7972C139.987 15.7972 141.58 15.4713 142.636 14.8197C144.103 13.945 144.837 12.393 144.837 10.1636C144.837 8.1228 144.056 6.70799 142.494 5.91911C141.375 5.33604 139.679 5.0445 137.407 5.0445L133.362 5.12167ZM145.05 17.1862L146.966 17.8551C148.969 18.5582 150.507 19.5529 151.579 20.8391C152.636 22.1253 153.165 23.6173 153.165 25.3151C153.165 28.3676 152.163 30.7343 150.16 32.4149C148.157 34.0956 145.326 34.9359 141.666 34.9359L121.863 34.4728L121.816 30.4342C122.967 30.6743 124.158 30.7943 125.389 30.7943H126.335V7.15387L132.321 5.27601L126.264 5.25029L125.389 5.30174C124.158 5.30174 122.967 5.42178 121.816 5.66187L121.863 1.6232L138.993 1.16016C143.409 1.16016 146.493 2.13768 148.244 4.09271C149.458 5.43036 150.065 7.33393 150.065 9.80344C150.065 12.4101 148.961 14.4767 146.753 16.003L145.05 17.1862ZM163.883 34.4214C160.823 34.3528 158.614 32.878 157.258 29.9969C156.217 27.8189 155.697 24.9035 155.697 21.2507C155.697 17.5978 156.225 14.691 157.281 12.5302C158.654 9.66624 160.894 8.21713 164.001 8.18283L173.157 10.2665L175.003 8.25999L180.397 8.1571V30.8715H181.462C182.093 30.8715 182.913 30.7686 183.923 30.5628L183.875 34.267L176.896 34.1642L175.05 30.6914H175.027L173.891 28.5306V13.2505L167.692 12.1186H167.621C165.381 12.1186 163.812 13.1476 162.913 15.2055C162.298 16.6289 161.99 18.644 161.99 21.2507C161.99 24.8692 162.605 27.493 163.836 29.1222C164.782 30.357 166.044 30.9743 167.621 30.9743H167.739L173.157 29.9197L163.883 34.4214ZM212.55 36.4793C212.55 39.7548 211.107 42.1301 208.221 43.6049C206.029 44.7196 203.079 45.277 199.372 45.277C195.902 45.277 192.756 44.7625 189.932 43.7335C187.267 42.756 185.886 41.7099 185.792 40.5952L189.553 35.2446L189.601 36.4536C189.617 38.2371 190.973 39.7463 193.67 40.981C196.194 42.1472 199.065 42.7303 202.282 42.7303C203.797 42.7303 205.169 42.3702 206.399 41.6499C207.708 40.8953 208.363 39.995 208.363 38.9488C208.363 37.5426 207.519 36.445 205.831 35.6562C204.143 34.8673 201.801 34.4728 198.804 34.4728C197.558 34.4728 196.028 34.4386 194.214 34.37C192.763 34.3185 191.667 34.2928 190.926 34.2928H190.902C190.634 34.2928 190.405 34.2756 190.216 34.2413C189.79 34.1899 189.522 34.147 189.412 34.1127C188.859 33.9412 188.363 33.6926 187.921 33.3667C187.858 33.3324 187.755 33.2381 187.613 33.0837C186.982 32.4835 186.667 31.8319 186.667 31.1287C186.667 30.6657 186.738 30.1169 186.88 29.4824L191.446 24.8006C191.131 25.5551 190.973 26.2497 190.973 26.8842C190.973 27.6388 191.178 28.2734 191.588 28.7878C192.219 29.5767 193.276 29.9711 194.758 29.9711C196.052 29.9711 198.11 29.6539 200.934 29.0194C203.315 28.4706 204.972 28.1962 205.902 28.1962C208.174 28.1962 209.846 28.8736 210.918 30.2284C212.006 31.566 212.55 33.6497 212.55 36.4793ZM197.551 11.8099C199.128 11.8099 200.35 12.2472 201.218 13.1219C202.07 13.9793 202.495 15.1883 202.495 16.749C202.495 18.4639 202.07 19.7929 201.218 20.7362C200.35 21.6794 199.128 22.151 197.551 22.151C195.847 22.151 194.522 21.6794 193.576 20.7362C192.645 19.7929 192.18 18.4639 192.18 16.749C192.18 15.1712 192.637 13.9536 193.552 13.0961C194.482 12.2387 195.815 11.8099 197.551 11.8099ZM189.766 23.2314L191.73 24.1575L191.754 24.1318L192.203 24.2861C193.733 24.7148 195.515 24.9292 197.551 24.9292C200.374 24.9292 202.684 24.4576 204.483 23.5144C207.085 22.1596 208.386 19.9045 208.386 16.749C208.386 15.4113 208.118 14.1508 207.582 12.9675L207.511 12.8389V12.6845C207.511 12.2901 207.692 11.9386 208.055 11.6298C208.449 11.304 208.939 11.1411 209.522 11.1411C209.964 11.1411 210.5 11.244 211.131 11.4498L211.888 11.6813L212.101 8.33715L210.611 8.02852C210.043 7.92557 209.624 7.87415 209.356 7.87415C207.7 7.87415 206.462 8.50008 205.642 9.75202L205.311 10.2408L204.861 9.93207C203 8.73161 200.563 8.13136 197.551 8.13136C194.017 8.13136 191.257 8.89455 189.269 10.4208C187.282 11.9471 186.288 14.0565 186.288 16.749C186.288 19.4586 187.29 21.5079 189.293 22.897L189.766 23.2314Z" fill="white"/>
</g>
<defs>
<clipPath id="clip0_380_197">
<rect width="213" height="45" fill="white" transform="translate(0 0.5)"/>
</clipPath>
</defs>
</svg>
