<svg width="201" height="227" viewBox="0 0 201 227" fill="none" xmlns="http://www.w3.org/2000/svg">
<path d="M102.148 197.535C102.148 197.535 62.913 171.248 51.5766 137.607C40.2402 103.965 39.7578 63.1053 39.7578 59.8819C39.7578 56.6585 96.3996 29.4639 102.148 29.4639C107.897 29.4639 161.564 56.2045 163.172 62.1973C164.78 68.1901 154.328 172.519 102.148 197.535Z" fill="#9BB0FF"/>
<path d="M102.63 196.763C99.3743 194.584 96.5201 192.314 93.4247 189.817C86.3897 184.187 79.7969 177.922 73.6061 171.158C66.4103 163.213 59.7773 154.269 55.1543 144.145C52.5011 138.379 50.6921 132.114 49.0841 125.894C47.3153 119.038 45.8681 112.092 44.7425 105.055C42.8933 93.7053 41.6873 82.2645 41.1245 70.7329C40.9637 67.6457 40.8431 64.6039 40.8029 61.5167V60.0639C40.8029 60.1093 40.6823 60.3817 40.8029 60.2455L40.8833 60.1547C40.8833 60.1547 40.9637 60.0639 40.8029 60.2001L40.9235 60.0639L41.5265 59.5191C42.1295 59.0197 42.7325 58.5657 43.4159 58.2025C44.4209 57.5669 45.4259 56.9313 46.4309 56.3411C49.1243 54.7521 51.8981 53.2539 54.6719 51.8011C61.7069 48.1237 68.8223 44.6279 75.9779 41.2683C82.3697 38.2719 88.8017 35.3209 95.3543 32.7331C97.2437 31.9159 99.2135 31.2349 101.183 30.6901C101.465 30.5993 101.746 30.5539 102.068 30.5085C102.228 30.5085 102.51 30.5085 102.148 30.5085H102.47C102.59 30.5085 102.711 30.5085 102.831 30.5085C102.47 30.5085 102.872 30.5085 103.032 30.5085C103.394 30.5993 103.756 30.6901 104.118 30.8263C109.625 32.5061 114.811 35.0485 120.037 37.5455C127.434 41.0413 134.71 44.7641 141.906 48.7139C147.735 51.9373 153.725 55.1607 159.111 59.2467C158.951 59.1105 159.272 59.3375 159.312 59.3829L159.634 59.6099C159.835 59.7915 160.076 59.9731 160.277 60.1093C160.639 60.3817 160.961 60.6995 161.282 61.0173C161.443 61.1535 161.564 61.2897 161.684 61.4259L161.845 61.6075H161.885C161.885 61.6529 162.126 62.0161 162.126 62.0161C162.247 62.1977 162.287 62.3339 162.207 62.1523C162.247 62.2431 162.247 62.3339 162.287 62.4247C162.247 62.1523 162.368 62.6063 162.287 62.4247C162.287 62.6063 162.327 62.7879 162.327 62.9695C162.368 63.5143 162.368 64.0591 162.368 64.6039C162.327 68.9623 161.885 72.9121 161.363 77.1797C160.559 83.9443 159.433 90.7089 158.106 97.3827C156.458 105.691 154.408 113.908 152.036 121.989C149.463 130.842 146.328 139.423 142.67 147.777C138.971 156.221 134.549 164.257 129.404 171.702C124.379 178.876 118.55 185.322 111.796 190.453C108.58 192.904 105.163 194.993 101.625 196.672C100.46 197.217 101.746 198.806 102.711 198.352C110.268 194.629 117.143 189.408 123.052 182.916C129.082 176.379 134.187 168.842 138.529 160.806C142.951 152.634 146.73 144.008 149.865 135.11C152.88 126.62 155.453 117.994 157.544 109.187C159.353 101.65 160.88 94.0231 162.086 86.3051C162.971 80.7209 163.694 75.0459 164.096 69.4163C164.217 67.7365 164.297 66.0567 164.297 64.3769C164.297 62.6971 164.297 62.2885 163.815 61.4259C162.89 59.7915 161.162 58.6111 159.755 57.5669C157.343 55.7509 154.81 54.1619 152.277 52.6637C145.323 48.4415 138.167 44.6279 130.971 40.9959C124.258 37.5909 117.464 34.2767 110.55 31.4165C108.419 30.4631 106.248 29.6459 104.037 29.0103C102.791 28.6017 101.505 28.6017 100.259 28.9195C98.1683 29.5097 96.0779 30.2361 94.0277 31.0987C90.9725 32.3245 87.9575 33.5957 84.9425 34.9123C77.6261 38.1357 70.3499 41.5861 63.1541 45.1727C56.9231 48.2599 50.6921 51.3925 44.6621 54.9791C42.9335 55.8871 41.2853 57.0221 39.7577 58.2479C39.3155 58.5657 38.9537 59.0197 38.7527 59.5645C38.6723 60.2001 38.6723 60.8357 38.7527 61.4713C38.8733 69.8249 39.4361 78.1785 40.2803 86.4413C41.6471 100.107 43.8179 113.681 47.3153 126.893C48.9635 133.158 50.8529 139.378 53.5463 145.143C55.9583 150.274 58.8125 155.131 62.0285 159.671C68.1791 168.434 75.3749 176.197 83.0129 183.279C88.1987 188.092 93.6257 192.541 99.2939 196.627C100.098 197.217 100.902 197.807 101.746 198.352C102.791 198.897 103.796 197.399 102.711 196.672L102.63 196.763Z" fill="#8A47EB"/>
<path d="M102.43 186.185C102.43 186.185 68.6215 163.53 58.8127 134.52C49.0039 105.509 48.6421 70.2787 48.6421 67.4639C48.6421 64.6491 97.4851 41.2227 102.47 41.2227C107.455 41.2227 153.725 64.2859 155.132 69.4615C156.539 74.6371 147.454 164.62 102.43 186.185Z" fill="white"/>
<path d="M102.952 185.232C100.219 183.371 97.5655 181.328 95.0329 179.285C88.9627 174.427 83.2543 169.024 77.9479 163.168C71.7571 156.312 66.0487 148.64 62.0287 139.877C59.7373 134.929 58.1695 129.572 56.8027 124.214C55.2751 118.312 54.0289 112.32 53.0641 106.236C51.4561 96.4751 50.4109 86.6233 49.8883 76.6807C49.7677 74.0475 49.6471 71.3689 49.6069 68.7357V67.4645C49.6069 67.1921 49.5265 67.6915 49.6069 67.5553C49.5265 67.8731 49.5265 67.7823 49.6069 67.6007C49.4461 67.8731 49.4863 67.7369 49.6069 67.6007L49.8079 67.3737C49.8079 67.3283 49.8883 67.2829 49.9285 67.2829C49.6873 67.4645 50.0491 67.1467 49.9285 67.2829C53.4661 64.5589 57.5263 62.5613 61.3855 60.5637C67.4155 57.3857 73.4857 54.3893 79.6363 51.5291C85.1437 48.9413 90.6511 46.4443 96.2791 44.2197C97.9675 43.4933 99.6961 42.9031 101.425 42.4037L101.827 42.3129C102.189 42.2221 101.706 42.3129 101.988 42.3129C102.148 42.3129 102.349 42.3129 102.51 42.3129H102.591L102.952 42.4037C103.274 42.4945 103.596 42.5399 103.877 42.6761C105.766 43.2663 107.616 43.9927 109.465 44.8099C112.198 45.9903 114.932 47.2161 117.625 48.4873C123.977 51.4837 130.288 54.7071 136.519 58.1121C141.544 60.8815 146.69 63.6963 151.353 67.1921L151.916 67.6007C151.715 67.4645 151.996 67.6915 152.077 67.7369L152.358 67.9639C152.68 68.2363 152.961 68.4633 153.243 68.7357C153.484 68.9627 153.685 69.1897 153.886 69.4621L154.006 69.5983C154.087 69.6891 153.886 69.3259 153.966 69.5529C154.006 69.6437 154.087 69.7799 154.127 69.8707C154.127 69.6437 154.248 70.0523 154.127 69.8707C154.127 70.0977 154.167 70.0069 154.167 70.0523C154.167 70.1885 154.207 70.3701 154.207 70.5063C154.167 70.0523 154.207 70.4155 154.207 70.5517V71.6867C154.127 75.3641 153.846 79.0415 153.323 82.6735C152.599 88.5301 151.675 94.2051 150.549 99.9255C149.142 107.099 147.373 114.181 145.323 121.173C143.112 128.754 140.419 136.2 137.283 143.373C134.107 150.683 130.248 157.629 125.786 164.03C121.525 170.159 116.5 175.698 110.751 180.011C107.977 182.099 105.003 183.915 101.907 185.414C101.465 185.686 101.264 186.322 101.505 186.866C101.787 187.411 102.349 187.411 102.832 187.184C109.384 183.961 115.334 179.421 120.439 173.791C125.585 168.071 130.087 161.669 133.826 154.678C137.645 147.595 140.941 140.15 143.635 132.432C146.248 125.122 148.459 117.677 150.268 110.05C151.836 103.467 153.162 96.8383 154.207 90.1645C154.971 85.3521 155.614 80.5397 155.936 75.6819C156.057 74.2291 156.137 72.7763 156.137 71.3235C156.137 69.8707 156.177 69.4167 155.735 68.6449C154.971 67.1921 153.444 66.1479 152.197 65.2399C150.107 63.6963 147.936 62.3343 145.765 60.9723C139.776 57.3403 133.625 54.0715 127.394 50.9389C121.645 48.0333 115.816 45.1731 109.907 42.7215C108.018 41.9043 106.088 41.1779 104.158 40.5877C103.073 40.2699 101.947 40.2245 100.862 40.5877C99.0529 41.0871 97.3243 41.7227 95.5957 42.4491C92.9425 43.4933 90.3295 44.6283 87.7567 45.7633C81.4051 48.5781 75.0937 51.5745 68.8225 54.6617C63.4357 57.3403 58.0489 60.0189 52.8631 63.1061C51.3757 63.9233 49.9285 64.8767 48.6019 66.0117C48.1999 66.3295 47.8783 66.7381 47.6773 67.2829C47.5969 67.8277 47.5567 68.4179 47.6773 69.0081C47.7979 76.2267 48.2803 83.4453 49.0039 90.6185C50.1697 102.377 52.0189 114.136 55.0339 125.486C56.4811 130.888 58.0891 136.336 60.4207 141.33C62.5111 145.734 64.9231 149.911 67.6969 153.815C73.0033 161.397 79.1941 168.116 85.8271 174.2C90.2893 178.331 94.9927 182.19 99.8569 185.777C100.54 186.276 101.264 186.776 101.988 187.275C102.912 187.911 104.078 186.095 102.993 185.368L102.952 185.232ZM30.8737 150.274L41.4865 140.513C41.7679 140.241 41.7277 140.014 41.3257 139.968C40.8433 139.923 40.3609 140.104 39.9589 140.422L29.3461 150.183C29.0647 150.456 29.1049 150.683 29.5069 150.728C29.9893 150.773 30.4717 150.637 30.8737 150.274ZM22.3915 123.806C27.2959 122.58 32.2807 121.717 37.3057 121.173C37.4665 121.173 36.7429 120.764 36.6625 120.764C36.3007 120.582 35.8585 120.492 35.4565 120.446C30.4315 120.946 25.4467 121.808 20.5423 123.079C20.3815 123.125 21.1051 123.488 21.1453 123.488C21.5875 123.715 21.9895 123.806 22.3915 123.806ZM21.3061 95.1585C25.8487 95.0677 30.3511 95.8395 34.6525 97.3831C35.0947 97.4285 35.5369 97.2923 35.8585 96.9745C35.9791 96.8837 36.5821 96.2027 36.2203 96.0665C31.7983 94.4775 27.2155 93.7057 22.5925 93.7965C22.1101 93.8419 21.6679 94.0689 21.3463 94.4321C21.1855 94.5683 20.8237 95.1585 21.3463 95.1585H21.3061ZM167.996 99.5169L179.935 95.3401C180.659 95.0677 179.855 93.0247 179.091 93.2971L167.152 97.4739C166.428 97.7009 167.192 99.7893 167.996 99.5169ZM165.544 122.762H179.775C180.056 122.762 180.498 122.625 180.217 122.262C179.935 121.899 179.252 121.808 178.89 121.808H164.659C164.378 121.808 163.936 121.944 164.217 122.308C164.499 122.671 165.182 122.762 165.544 122.762ZM160.559 140.104C164.257 143.873 168.438 147.005 172.941 149.411C173.262 149.593 173.383 149.457 173.222 149.094C172.981 148.594 172.619 148.231 172.217 147.959C167.956 145.734 164.056 142.783 160.559 139.242C160.438 139.106 159.916 138.606 159.795 138.969C159.675 139.333 160.398 139.968 160.559 140.104Z" fill="#8A47EB"/>
<path d="M127.354 83.0367C123.052 85.4883 117.786 82.0379 116.098 78.4059C114.409 74.7739 117.263 74.3653 118.711 74.5469C120.158 74.7285 122.208 76.7261 122.208 76.7261C126.067 72.5493 121.444 70.0523 119.716 72.3677C117.987 74.6831 116.5 75.4549 115.093 74.0475C113.686 72.6401 114.007 69.8707 116.138 67.2829C118.268 64.6951 121.726 65.1945 121.726 65.1945C121.726 65.1945 111.073 55.9783 114.932 53.3451C118.791 50.7119 126.308 61.2901 126.308 61.2901C126.308 61.2901 123.052 54.7071 125.545 52.9819C128.037 51.2567 132.379 56.6593 134.67 66.1479C134.67 66.1479 138.127 77.2709 139.615 94.9769C139.615 94.9769 143.273 124.033 139.414 128.891C135.554 133.748 117.304 124.305 117.304 124.305L113.927 105.192L124.741 105.464L125.183 84.0809" fill="#9F616A"/>
<path d="M126.389 82.8095C125.022 83.6267 123.454 83.7629 121.967 83.2181C120.439 82.5825 119.073 81.5383 118.027 80.1309C117.264 79.1321 116.178 77.3615 116.661 75.9541C116.862 75.5001 117.223 75.1369 117.625 75.0007C117.987 74.8645 118.389 74.8191 118.791 74.8191H118.952H118.751C118.872 74.8191 118.992 74.9099 119.113 74.9553C119.475 75.1369 119.796 75.3639 120.118 75.5909C120.52 75.9087 120.922 76.2265 121.284 76.5897C121.565 76.7713 121.887 76.9075 122.208 76.9529C122.409 76.9983 123.012 77.1345 123.173 76.9529C124.258 75.7725 125.505 73.6387 124.017 72.2313C123.294 71.6411 122.449 71.2779 121.525 71.2325C120.761 71.0963 119.997 71.2325 119.274 71.6411C118.912 71.9135 118.63 72.2313 118.389 72.6399C117.987 73.1847 117.465 73.6841 116.942 74.0927C116.741 74.2289 116.54 74.3197 116.339 74.4105C116.259 74.4559 116.098 74.4559 116.058 74.5013C116.017 74.5467 116.781 74.8191 116.5 74.5921C116.098 74.3197 115.776 73.9111 115.535 73.4571C114.49 71.2325 116.259 68.1453 117.826 66.8741C118.711 66.1931 119.756 65.7391 120.841 65.6029C121.163 65.5575 121.444 65.5575 121.766 65.5575C122.088 65.5575 122.248 65.6029 121.846 65.5575H121.967C122.007 65.5575 122.892 65.5575 122.691 65.3759C121.686 64.5133 120.681 63.5145 119.756 62.5611C118.188 60.9267 116.54 59.1561 115.535 57.0223C115.213 56.2959 114.892 55.3879 115.173 54.6161C115.294 54.2529 115.535 53.9351 115.816 53.7535C115.977 53.6173 116.178 53.5265 116.379 53.4357C116.46 53.4357 116.58 53.4357 116.661 53.3449C116.701 53.3449 116.942 53.3449 116.821 53.3449H116.982C116.862 53.3449 116.902 53.3449 116.982 53.3449C116.661 53.3449 117.063 53.3449 116.902 53.3449C116.741 53.3449 116.982 53.3449 117.022 53.3449C116.821 53.3449 117.143 53.3449 117.183 53.3449C117.143 53.3449 117.424 53.4357 117.505 53.4811C118.027 53.7081 118.51 54.0259 118.952 54.3437C119.997 55.1155 120.962 55.9781 121.846 56.9315C123.133 58.2481 124.299 59.6555 125.424 61.1991C125.665 61.5169 126.309 61.5623 126.63 61.6077C126.751 61.6077 127.515 61.6985 127.354 61.4261C126.711 60.1095 126.188 58.6567 125.866 57.2039C125.665 56.2505 125.545 55.2063 125.826 54.2529C125.947 53.8443 126.228 53.4811 126.55 53.2541C126.67 53.1633 126.751 53.1179 126.871 53.0725C126.992 53.0271 127.072 53.0725 127.193 52.9817C127.113 52.9817 127.072 52.9817 127.153 52.9817H126.952C126.791 52.9817 126.912 52.9817 126.952 52.9817C126.871 52.9817 126.791 52.9817 126.711 52.9817C126.711 52.9817 126.871 52.9817 126.952 53.0725C127.273 53.2541 127.595 53.4811 127.917 53.7535C128.68 54.4799 129.364 55.3425 129.927 56.2959C131.535 58.9745 132.741 61.9709 133.504 65.1035C134.107 67.5097 134.791 69.8705 135.313 72.2767C136.64 78.2695 137.605 84.3077 138.248 90.4367C138.57 93.2969 138.851 96.1571 139.132 99.0173C139.534 103.058 139.896 107.099 140.057 111.139C140.258 115.361 140.419 119.629 139.896 123.806C139.776 125.259 139.454 126.666 138.931 127.982C138.409 129.117 137.444 129.708 136.318 129.889C135.635 130.026 134.911 130.025 134.228 129.98H133.786C133.786 129.935 133.464 129.889 133.464 129.889H133.263C132.821 129.844 132.379 129.753 131.896 129.662H131.695C131.695 129.617 131.454 129.344 131.454 129.344C131.213 129.299 130.932 129.208 130.69 129.163C130.208 129.027 129.806 128.936 129.404 128.8C128.439 128.527 127.515 128.164 126.59 127.846C123.856 126.848 121.163 125.667 118.55 124.396L118.108 124.169L118.389 124.396L117.264 117.949L115.455 107.689L115.053 105.328L114.53 105.464L123.977 105.691H125.344C125.384 105.737 125.866 105.782 125.866 105.6L126.027 98.3817L126.268 86.8955V84.2169C126.309 83.7629 124.339 83.5813 124.339 83.8537L124.178 91.0723L123.937 102.558V105.237C123.897 105.237 124.419 105.101 124.419 105.101L114.972 104.874H113.605C113.565 104.829 113.043 104.829 113.083 104.965L115.012 115.951L116.178 122.535C116.218 123.034 116.299 123.533 116.419 123.987C116.5 124.26 116.781 124.351 117.022 124.441C120.56 126.212 124.218 127.756 127.957 128.936C130.409 129.753 132.942 130.298 135.474 130.479C137.082 130.57 139.253 130.525 140.459 129.117C141.464 127.937 141.745 126.03 141.946 124.441C142.228 121.944 142.348 119.402 142.308 116.859C142.228 111.411 141.906 106.009 141.343 100.606C141.183 99.0173 141.022 97.4283 140.821 95.8393C140.499 93.1607 140.298 90.4821 139.977 87.8489C139.213 81.3567 138.007 74.9099 136.399 68.5993C135.153 63.7869 133.866 58.6567 130.811 54.8885C130.128 53.9805 129.243 53.2541 128.238 52.8001C127.233 52.3915 125.907 52.1191 124.902 52.6185C122.731 53.7535 124.017 57.5217 124.66 59.2923C124.902 59.9279 125.183 60.5635 125.464 61.1537L127.394 61.3807C126.389 59.9733 125.304 58.6567 124.138 57.4309C122.289 55.4333 120.118 53.4811 117.545 52.8001C116.419 52.5277 114.972 52.3461 113.967 53.1633C113.364 53.6173 113.083 54.4799 113.244 55.2971C113.485 56.3413 113.967 57.3401 114.57 58.2027C115.294 59.2923 116.098 60.2911 116.982 61.2445C118.188 62.6065 119.515 63.8777 120.841 65.0581L121.565 64.8765C120.158 64.6949 118.711 64.8765 117.384 65.4213C115.294 66.2839 113.404 68.7809 113.324 71.3687C113.244 73.9565 115.656 75.3185 117.746 74.9099C118.952 74.6829 119.836 73.6841 120.6 72.6853C120.841 72.3675 121.123 72.0497 121.485 71.8681L121.846 71.7319C122.047 71.6865 122.168 71.7319 121.887 71.6865C121.605 71.6411 121.726 71.6411 121.887 71.7319L122.248 72.0043C122.53 72.2767 122.691 72.6853 122.771 73.0939C122.932 74.3651 122.088 75.5455 121.324 76.3627L123.253 76.7259C122.128 75.5455 120.761 74.7283 119.314 74.2743C118.108 74.0019 116.178 73.8203 115.173 74.8645C113.927 76.1811 115.173 78.4511 116.017 79.5861C117.304 81.3113 118.992 82.6279 120.922 83.3089C123.294 84.2169 126.067 84.4439 128.359 83.1727C128.6 83.0365 127.756 82.7641 127.716 82.7641C127.314 82.7187 126.751 82.5371 126.389 82.7641V82.8095Z" fill="#20044E"/>
<path d="M124.258 77.4979C123.494 77.5433 122.771 77.2709 122.208 76.6807L124.258 77.4979Z" fill="white"/>
<path d="M124.017 76.6355C123.776 76.6355 123.575 76.5901 123.374 76.5447L123.615 76.6355C123.454 76.5901 123.253 76.4993 123.093 76.4539L123.334 76.5901C123.173 76.4993 123.012 76.4085 122.892 76.2723L123.093 76.4539C123.012 76.4085 122.972 76.3177 122.892 76.2723C122.691 76.0907 122.449 75.9545 122.168 75.9091C121.927 75.8637 121.686 75.9091 121.485 76.0453C121.324 76.1815 121.203 76.3631 121.203 76.5901C121.203 76.8171 121.324 77.0895 121.485 77.2257C122.047 77.8159 122.731 78.1791 123.495 78.3153C123.816 78.4061 124.138 78.4061 124.459 78.4061C124.781 78.4061 124.902 78.3153 125.062 78.1337C125.183 77.9521 125.223 77.7251 125.143 77.4981C124.982 76.9079 124.5 76.5901 124.017 76.6355ZM128.56 63.8327C128.52 63.7419 128.479 63.6057 128.439 63.5149L128.198 62.9701L127.716 61.7443C127.675 61.6081 127.595 61.5173 127.595 61.3811C127.555 61.1541 127.314 60.9725 127.153 60.8817C126.912 60.7455 126.63 60.7001 126.389 60.7455C126.148 60.7909 125.947 60.8817 125.786 61.0633C125.665 61.1995 125.625 61.4265 125.665 61.6535C125.706 61.7443 125.746 61.8805 125.786 61.9713L126.027 62.5161L126.51 63.7419C126.55 63.8781 126.59 63.9689 126.63 64.1051C126.67 64.3321 126.912 64.5137 127.072 64.6045C127.314 64.7407 127.595 64.7861 127.836 64.7407C128.077 64.6953 128.278 64.6045 128.439 64.4229C128.56 64.2867 128.6 64.0597 128.56 63.8327ZM112.198 125.804C112.198 125.804 127.756 132.932 128.198 130.616C128.64 128.301 123.253 102.877 123.253 102.877C123.253 102.877 102.068 101.878 99.1334 102.377C96.1988 102.877 112.198 125.804 112.198 125.804Z" fill="#20044E"/>
<path d="M127.233 131.297C123.776 131.297 113.404 126.575 112.118 125.985H112.038C111.997 125.894 108.42 120.764 105.003 115.362C98.0077 104.329 98.4901 103.013 98.6107 102.559C98.6911 102.332 98.8519 102.15 99.0931 102.15C102.028 101.651 122.409 102.604 123.253 102.65H123.414V102.831C123.655 103.875 128.881 128.391 128.399 130.707C128.359 130.888 128.238 131.07 128.077 131.161C127.836 131.252 127.515 131.297 127.233 131.297ZM112.319 125.577C116.178 127.347 126.349 131.66 127.876 130.752C127.957 130.707 127.997 130.616 127.997 130.571C128.359 128.8 124.942 111.911 123.093 103.104C121.163 103.013 101.907 102.105 99.1735 102.604C99.0931 102.604 99.0529 102.65 99.0127 102.74C98.3293 104.556 106.611 117.405 112.319 125.577ZM89.4451 106.963C89.4451 106.963 68.9431 112.32 60.5815 124.033L77.0233 140.649L95.1133 134.475L89.4451 106.963Z" fill="#20044E"/>
<path d="M76.9431 140.876L60.3003 124.032L60.4209 123.851C68.7021 112.228 89.2041 106.78 89.4051 106.69H89.6061C89.6061 106.644 89.6463 106.871 89.6463 106.871L95.3145 134.565L76.9431 140.876ZM60.8631 123.987L77.0637 140.376L94.8321 134.293L89.2845 107.234C87.1539 107.779 68.7021 113.182 60.8631 123.987Z" fill="#20044E"/>
<path d="M81.4855 159.217C81.4855 159.217 77.7469 110.276 94.7515 102.785C111.756 95.2941 123.374 151.409 123.374 151.409C123.374 151.409 97.9273 170.023 81.4855 159.217Z" fill="#20044E"/>
<path d="M93.4651 162.804C89.2441 162.804 85.0633 161.851 81.4051 159.445H81.3247V159.263C80.8021 150.773 80.8824 142.283 81.5658 133.839C82.6512 121.762 85.8271 106.553 94.7113 102.604C97.1635 101.514 99.9373 101.696 102.269 103.194C107.656 106.417 112.922 115.497 117.826 130.207C120.118 137.108 122.047 144.19 123.615 151.363V151.5C123.655 151.5 123.535 151.59 123.535 151.59C123.253 151.726 107.937 162.804 93.4651 162.804ZM81.6865 159.081C97.2841 169.16 121.243 152.635 123.133 151.272C122.53 148.503 114.329 110.866 102.028 103.557C99.8167 102.15 97.1635 101.923 94.8319 103.012C78.5508 110.185 81.4855 156.403 81.6865 159.081ZM107.575 92.6611C107.575 92.6611 115.294 93.9323 116.419 90.3457C117.545 86.7591 112.64 87.8941 112.64 87.8941C112.64 87.8941 118.027 80.4031 110.188 79.5405C110.188 79.5405 116.459 73.7293 111.113 68.9169C105.766 64.1045 95.7565 67.9635 95.7565 67.9635C95.7565 67.9635 95.7163 60.1093 87.7969 61.5621C79.8774 63.0149 82.0081 67.6003 82.0081 67.6003C82.0081 67.6003 76.9429 68.4629 76.9027 71.1415C76.8625 73.8201 80.7618 74.6827 80.7618 74.6827C80.7618 74.6827 82.5306 82.3099 89.4049 80.8117L96.4801 90.1187C96.4801 90.1187 94.2691 93.7507 96.9625 97.2465C99.6559 100.742 108.138 97.6097 107.575 92.6611Z" fill="#20044E"/>
<path d="M107.213 93.5694C109.424 93.9326 111.917 94.0234 114.088 93.3424C115.575 92.8884 116.942 91.935 117.384 90.1644C117.625 89.438 117.545 88.6208 117.183 87.9852C116.781 87.395 116.218 87.0318 115.575 86.8956C114.57 86.6686 113.485 86.714 112.48 86.9864L113.364 88.303C114.851 86.2146 116.459 82.401 114.329 80.1764C113.324 79.1322 111.836 78.769 110.51 78.5874L110.711 80.131C113.324 77.7248 115.454 73.2756 113.163 69.7798C110.068 65.0582 103.957 65.149 99.3745 66.0116C98.0881 66.2386 96.8017 66.6018 95.5957 67.0558L96.6409 67.646C96.6007 64.922 95.2741 62.4704 93.1435 61.1992C90.7717 59.8826 87.8371 60.3366 85.4251 61.1538C83.6563 61.744 81.5659 62.879 80.9227 65.0128C80.6011 66.0116 80.6413 67.1012 81.0433 68.0546L82.0885 66.6018C80.4001 66.8742 78.6313 67.4644 77.2645 68.6448C76.3801 69.4166 75.7369 70.597 75.9379 71.8682C76.1389 73.1394 77.1037 74.0928 78.1087 74.683C78.7921 75.0916 79.5559 75.4094 80.3197 75.591L79.7569 74.9554C80.4805 77.9972 82.5307 80.6758 85.1839 81.5384C86.5909 81.947 88.0381 81.9924 89.4853 81.6292L88.6009 81.4476L94.7917 89.5742L95.6359 90.7546V89.6196C93.8269 92.616 94.3897 97.383 97.4851 98.972C100.299 100.425 104.078 99.2898 106.409 97.2014C107.736 96.021 108.661 94.2504 108.46 92.2982C108.339 91.0724 106.45 91.7988 106.53 92.8884C106.57 93.4332 106.49 93.978 106.289 94.4774C106.088 94.9314 105.806 95.3854 105.445 95.7486C105.043 96.2026 104.56 96.5658 104.038 96.7928L103.555 97.0652C103.555 97.0652 103.354 97.156 103.515 97.0652L103.314 97.156C102.992 97.2922 102.631 97.4284 102.309 97.5192C101.224 97.837 100.098 97.837 99.0529 97.5192C98.5705 97.383 98.0881 97.0652 97.7263 96.6566C97.0831 95.8848 96.6409 94.9314 96.4801 93.8872C96.3997 93.07 96.4801 92.2528 96.7213 91.481C96.8017 91.2086 96.9223 90.9362 97.0429 90.6638C97.0831 90.573 97.1233 90.5276 97.1635 90.4368C97.0429 90.7546 97.0831 90.6184 97.1233 90.5276C97.3645 90.2098 97.3645 89.7104 97.1233 89.3926L91.3747 81.72L90.2893 80.2672C90.2089 80.131 90.0883 80.0402 89.9677 79.9494C89.6059 79.7678 89.2039 79.9494 88.8019 79.9948C88.4401 80.0402 88.1185 80.0856 87.7567 80.0856C85.9075 80.0856 84.1789 79.0868 83.0533 77.407C83.0131 77.3616 82.9729 77.2708 82.9327 77.2254L82.7719 76.953C82.6513 76.7714 82.5307 76.5444 82.4503 76.3628C82.2895 76.045 82.1287 75.6818 82.0081 75.3186C81.9277 75.0462 81.8473 74.8192 81.7267 74.5468C81.6061 74.2744 81.7669 74.7738 81.7267 74.5468C81.7267 74.5165 81.7133 74.4863 81.6865 74.456C81.6463 74.1382 81.4051 73.8658 81.1237 73.8204C80.9629 73.775 80.8423 73.7296 80.6815 73.6842H80.5207C80.4001 73.5934 80.6413 73.6842 80.4403 73.5934C80.2393 73.5026 80.0785 73.4572 79.8775 73.3664C79.1137 73.0032 78.3901 72.5492 78.0283 71.732C77.9077 71.4142 77.8675 71.051 77.9077 70.6878C77.9077 70.7332 77.9881 70.5062 77.9881 70.4608C77.9077 70.597 78.0283 70.4154 78.0283 70.37C78.0283 70.3246 78.2293 70.0976 78.1891 70.1884C78.1489 70.2792 78.3499 70.0068 78.3901 70.0068C78.4303 70.0068 78.6313 69.8252 78.5509 69.8706C78.4705 69.916 78.7117 69.7798 78.7519 69.7344C78.9529 69.5982 79.1539 69.5074 79.3549 69.3712C79.3951 69.3258 79.6363 69.235 79.5961 69.235L79.7971 69.1442C80.0383 69.0534 80.2393 68.9626 80.4403 68.9172C80.8021 68.781 81.1639 68.6902 81.5659 68.5994C81.6865 68.554 81.8071 68.554 81.9277 68.5086C82.1287 68.4632 81.6463 68.554 81.8473 68.5086C82.4101 68.4178 83.2141 67.8276 82.8925 67.0558C82.8925 67.0104 82.8523 66.965 82.8523 66.9196C82.8523 66.8742 82.8121 66.8288 82.8121 66.7834C82.8523 66.8288 82.8523 66.965 82.8121 66.738C82.7719 66.5564 82.7317 66.3748 82.7317 66.1478V66.0116C82.7317 65.8754 82.7317 65.7392 82.7719 65.6484C82.7719 65.5576 82.8925 65.149 82.8121 65.4214C82.8523 65.2852 82.8925 65.149 82.9729 65.0128C83.0131 64.9674 83.0131 64.8766 83.0533 64.8312C82.9729 65.0128 83.0131 64.8766 83.0935 64.7858L83.2141 64.6042C83.2543 64.5588 83.4151 64.3318 83.3347 64.4226C83.2543 64.5134 83.4151 64.3318 83.4553 64.3318L83.6965 64.1048L83.8975 63.9232C83.8975 63.9232 84.0181 63.8324 83.9377 63.8778C83.8573 63.9232 84.0583 63.787 84.0583 63.787C84.4603 63.5146 84.8623 63.2876 85.3045 63.1514C87.3145 62.3796 89.8873 61.8802 91.8169 62.7882C92.4601 63.0606 93.0631 63.56 93.5053 64.1502C93.5455 64.241 93.6259 64.2864 93.6661 64.3772C93.5857 64.241 93.7063 64.4226 93.7063 64.468C93.7867 64.6042 93.9073 64.7858 93.9877 64.922C94.1485 65.2398 94.2691 65.5576 94.3897 65.8754L94.4701 66.1024C94.4701 66.1478 94.5505 66.3748 94.5103 66.284C94.4701 66.1932 94.5505 66.3748 94.5505 66.4202V66.6472C94.6309 66.9196 94.7113 67.192 94.7515 67.4644C94.7917 67.7368 94.7917 67.9638 94.8319 68.2362C94.8319 68.781 95.5555 68.9626 95.8771 68.8264C96.7615 68.5086 97.6861 68.2362 98.6107 68.0092C99.4951 67.7822 100.379 67.646 101.264 67.5552C102.349 67.419 103.475 67.3736 104.56 67.419C106.691 67.5552 108.902 68.1908 110.55 69.7798C111.434 70.5516 112.037 71.6412 112.279 72.867C112.399 73.8204 112.238 74.7738 111.877 75.6364C111.515 76.5444 110.992 77.3616 110.389 78.0426L110.188 78.2696H110.148C110.148 78.315 109.867 78.6328 109.867 78.6328C109.786 78.7236 109.706 78.8144 109.585 78.9052C109.143 79.3138 109.022 80.358 109.786 80.4488C110.389 80.4942 110.992 80.6304 111.555 80.812C111.957 80.9482 112.319 81.1752 112.64 81.4022C112.801 81.5384 112.922 81.6746 113.042 81.8108C113.163 81.947 113.042 81.7654 113.123 81.9016C113.163 81.9924 113.203 82.0832 113.284 82.174C113.444 82.4464 113.485 82.7188 113.485 83.0366V83.309C113.485 83.1728 113.485 83.4452 113.485 83.309V83.4452C113.485 83.6268 113.444 83.8538 113.404 84.0354L113.284 84.5802C113.243 84.7618 113.284 84.5348 113.284 84.5348C113.284 84.5348 113.243 84.6256 113.243 84.671C113.243 84.7164 113.163 84.8526 113.163 84.9434C113.042 85.2612 112.922 85.579 112.761 85.8968C112.681 86.033 112.64 86.1692 112.56 86.3054V86.3962C112.6 86.26 112.48 86.487 112.439 86.5324C112.279 86.8502 112.078 87.1226 111.877 87.395C111.635 87.6674 111.635 88.1214 111.796 88.4392C112.037 88.7116 112.399 88.8478 112.721 88.7116C112.922 88.6662 112.761 88.7116 112.681 88.7116C112.841 88.7116 113.002 88.6662 113.163 88.6208C113.364 88.6208 113.565 88.5754 113.766 88.5754H114.289C114.53 88.5754 114.088 88.53 114.369 88.5754C114.57 88.6208 114.811 88.6208 115.012 88.7116C115.253 88.757 114.892 88.6662 115.052 88.7116L115.213 88.8024H115.334C115.495 88.9386 115.253 88.8024 115.374 88.8932C115.414 88.9386 115.615 89.211 115.495 89.0294C115.535 89.0748 115.655 89.3926 115.575 89.211C115.655 89.4834 115.655 89.7558 115.575 89.9828C115.535 90.0736 115.535 90.1644 115.495 90.2552C115.454 90.346 115.414 90.4368 115.374 90.4822C115.374 90.4368 115.454 90.3006 115.374 90.4822C115.334 90.5276 115.052 90.8454 115.253 90.6638C115.173 90.7546 115.052 90.8454 114.932 90.9362C115.133 90.7546 114.771 91.027 114.731 91.0724C114.691 91.1178 114.53 91.2086 114.409 91.254C114.128 91.3902 114.61 91.1632 114.329 91.2994H114.168C114.007 91.3902 113.846 91.4356 113.686 91.5264C113.123 91.6626 112.52 91.7988 111.917 91.7988C111.314 91.8442 110.711 91.8442 110.108 91.8442H109.625C109.625 91.7988 109.344 91.7988 109.344 91.7988C109.103 91.7988 108.862 91.7534 108.62 91.708C108.379 91.6626 108.178 91.6626 107.977 91.6172C107.455 91.5264 106.932 91.8442 106.731 92.3436C106.57 92.7068 106.691 93.1608 107.012 93.3878C107.053 93.524 107.133 93.5694 107.213 93.5694Z" fill="#20044E"/>
<path d="M101.907 107.053C102.39 105.01 99.8569 92.9335 99.8569 92.9335C99.8569 92.9335 104.038 92.8427 104.44 87.6671C104.842 82.4915 100.138 81.9921 97.9273 87.2131C97.9273 87.2131 92.9827 76.6349 95.5555 70.7783C95.5555 70.7783 86.7919 77.1797 81.2845 75.9993C81.2845 75.9993 75.6967 93.7961 80.1991 100.425C84.0985 106.19 87.7969 105.782 87.7969 105.782L88.2391 106.962L89.8873 113.772L101.907 107.053Z" fill="#9F616A"/>
<path d="M102.55 107.961C102.671 107.144 102.631 106.281 102.51 105.464C102.39 104.102 102.148 102.786 101.947 101.469C101.545 99.1082 101.103 96.702 100.621 94.3412C100.621 94.2504 100.46 93.8872 100.5 93.7964C100.46 93.8418 100.741 93.7964 100.822 93.7964C101.586 93.7056 102.349 93.3878 102.993 92.8884C104.078 92.0712 104.802 90.8 105.003 89.3472C105.324 87.7582 105.043 86.0784 104.158 84.7618C103.314 83.4452 102.349 82.3556 100.822 82.7188C99.1735 83.1274 98.0479 84.7618 97.3645 86.3508L98.5705 87.9852C98.0077 86.7594 97.5253 85.4882 97.0831 84.1716C96.1585 81.6292 95.6359 78.9052 95.4751 76.1812C95.3947 74.6376 95.6761 73.094 96.2389 71.6866C96.3595 71.4596 95.1133 69.8252 94.9927 69.8706C92.5807 71.6412 90.0079 73.0486 87.3145 74.0928C85.4251 74.8192 83.3749 75.4094 81.3247 75.1824C81.1639 75.1824 80.8423 75.0462 80.7217 75.137C80.6815 75.1824 80.6413 75.364 80.6413 75.4094L80.2795 76.6352C79.2745 80.1764 78.5911 83.763 78.1489 87.4404C77.7469 91.2994 77.5459 95.7486 79.3951 99.199C80.1589 100.561 81.0433 101.787 82.0483 102.922C82.8523 103.875 83.7769 104.692 84.7819 105.373C85.8271 106.145 87.0331 106.554 88.2793 106.645H88.4401L87.2743 105.01C87.3949 105.373 87.5557 105.737 87.6763 106.1C87.7567 106.281 87.6361 106.009 87.6763 106.145V106.418C87.7165 106.418 88.2391 108.642 88.2391 108.642L89.2843 112.91C89.3245 113.137 90.2893 114.771 90.4903 114.68L100.983 108.824L102.47 108.007C102.51 108.007 101.505 106.054 101.224 106.191L90.7717 112.047L89.2843 112.864L90.5305 114.59L89.4853 110.231C89.3245 109.505 89.1235 108.733 88.9627 108.007C88.8019 107.507 88.6411 107.008 88.3999 106.508C88.2391 106.145 87.9979 105.782 87.7567 105.464C87.6763 105.328 87.3949 104.874 87.2341 104.874C86.4301 104.919 85.6261 104.738 84.9025 104.375C84.0181 103.966 83.2141 103.467 82.4905 102.786C81.9679 102.332 81.5257 101.878 81.0835 101.333C80.8825 101.106 80.7217 100.879 80.5207 100.606C80.4805 100.561 80.2393 100.152 80.3599 100.425C80.4805 100.606 80.3599 100.379 80.3197 100.334C79.5559 98.7904 79.2745 96.9744 79.1539 95.2038C79.0333 93.1154 79.1137 91.027 79.3951 88.9386C79.8373 85.4428 80.5207 81.947 81.4453 78.5874C81.5659 78.1788 81.6865 77.7702 81.8071 77.3162C81.8071 77.2254 81.8875 76.9076 81.9277 76.8622C81.9679 76.8168 82.4503 76.953 82.5709 76.953C82.8121 76.9984 83.0131 76.9984 83.2543 76.9984C83.7367 76.9984 84.1789 76.9984 84.6613 76.9076C85.6663 76.7714 86.6311 76.5444 87.5959 76.1812C90.6511 75.137 93.5455 73.5934 96.1987 71.6412L94.9525 69.8252C93.8671 72.3222 94.1083 75.3186 94.6309 77.9518C95.1133 80.358 95.8369 82.7188 96.7615 84.9888C96.9625 85.4428 97.1635 85.9422 97.3645 86.3962C97.5655 86.7594 97.7665 87.1226 98.0077 87.4404C98.0479 87.4858 98.5303 88.076 98.5303 88.0306C99.1333 86.5778 100.098 85.1704 101.465 84.5802C101.947 84.3532 102.47 84.3078 102.993 84.3986C103.234 84.444 103.475 84.5348 103.676 84.671C103.756 84.7164 103.877 84.8526 103.957 84.898C103.475 84.5802 103.314 83.763 103.555 84.3532C104.118 85.806 103.837 87.8036 103.194 89.1656C102.711 90.2098 101.867 91.0724 100.902 91.5264C100.38 91.7988 99.8167 91.935 99.2137 91.9804C100.058 95.794 100.741 99.653 101.224 103.512C101.304 104.329 101.465 105.283 101.304 106.1C101.264 106.372 101.706 106.872 101.827 107.053C101.907 107.235 102.55 107.961 102.55 107.961Z" fill="#20044E"/>
<path d="M85.5053 94.6132C85.5053 94.6132 75.2141 98.9716 72.0785 93.2058C68.9429 87.44 76.0181 82.5822 83.0129 86.305" fill="#9F616A"/>
<path d="M85.1839 93.9329C84.2995 94.2961 83.4151 94.5685 82.5307 94.7955L81.9679 94.9317L81.6463 95.0225H81.4051C80.9227 95.1587 80.4805 95.2495 79.9981 95.2949C79.0735 95.4311 78.1489 95.4765 77.2243 95.3857C76.3801 95.3403 75.5359 95.0679 74.7721 94.6593C73.9681 94.2053 73.3249 93.5243 72.9229 92.6163C72.4003 91.6175 72.2395 90.4371 72.4807 89.3475C72.7621 88.3487 73.3249 87.5315 74.0887 86.9867C76.5007 85.1253 79.8775 85.6247 82.3699 86.9413C82.8121 87.2137 83.3749 87.1229 83.7769 86.7597C84.0181 86.5781 84.0985 86.1695 83.8975 85.8971C83.8573 85.8063 83.7769 85.7155 83.6563 85.6701C80.6815 84.1265 77.1841 83.6271 74.0887 85.0799C71.8777 86.0787 69.8677 88.4395 70.3501 91.3451C71.2747 97.2471 77.5861 97.4287 81.6865 96.5661C83.0935 96.2937 84.4603 95.8851 85.7869 95.3403C86.1487 95.2041 86.6311 94.8409 86.3899 94.3415C86.1487 93.8421 85.5457 93.7513 85.1839 93.9329Z" fill="#20044E"/>
<path d="M94.1885 92.7979C94.1885 92.7979 93.7061 95.2041 91.6157 95.1133L94.1885 92.7979Z" fill="white"/>
<path d="M93.4248 92.0716C93.264 92.7526 92.9826 93.3428 92.5002 93.7968C92.2992 94.0238 92.0178 94.1599 91.7364 94.2961H91.8168C91.5354 94.2961 91.2138 94.3869 90.8922 94.3869C90.5706 94.3869 90.852 94.5685 90.852 94.6139C90.9726 94.7955 91.0932 94.9772 91.254 95.1588C91.455 95.3404 91.656 95.5674 91.857 95.7036C91.9776 95.8398 92.1384 95.8852 92.2992 95.9306C92.9826 95.976 93.6258 95.7036 94.1484 95.1588C94.47 94.7956 94.7112 94.3416 94.872 93.8876C94.9122 93.7968 94.9524 93.706 94.9524 93.5698C94.9524 93.4336 94.9122 93.2974 94.8318 93.2066C94.671 92.9796 94.5102 92.7979 94.3494 92.6163C94.1886 92.4347 93.9876 92.2985 93.7866 92.1623C93.7464 92.1623 93.465 91.9808 93.4248 92.0716ZM83.1738 83.8541C83.2944 84.3535 83.013 84.853 82.611 84.9438H82.5306C81.6864 85.08 81.5256 83.8995 82.209 83.4909C82.5306 83.2639 82.9326 83.3547 83.1336 83.7179C83.1336 83.7633 83.1738 83.8087 83.1738 83.8541Z" fill="#20044E"/>
<path d="M62.431 124.305C62.431 124.305 51.2956 133.475 53.6674 140.376C56.0392 147.277 76.9834 155.222 76.9834 155.222C76.9834 155.222 75.1744 156.72 76.903 158.99C78.6316 161.26 83.3752 162.441 84.3802 159.898C85.3852 157.356 82.129 156.675 82.129 156.675C82.129 156.675 85.0636 157.901 86.2696 155.404C87.4756 152.907 83.6164 151.908 83.6164 151.908C83.6164 151.908 86.8324 152.816 87.0334 149.32C87.2344 145.824 81.9682 145.824 81.9682 145.824V141.239C81.9682 141.239 79.315 141.738 78.2296 144.326L73.486 136.971L62.431 124.305Z" fill="#9F616A"/>
<path d="M62.0288 124.169C59.9384 125.894 58.049 127.891 56.3606 130.071C54.1898 132.84 51.416 137.108 52.823 141.057C53.3054 142.419 54.3104 143.509 55.2752 144.417C56.6018 145.643 58.049 146.732 59.5766 147.686C62.9132 149.774 66.3704 151.636 69.9482 153.225C71.315 153.86 72.6818 154.45 74.0486 155.041C74.732 155.358 75.4154 155.676 76.139 155.903C76.1792 155.903 76.2194 155.903 76.2194 155.949L76.6214 155.177C75.6968 155.949 75.0134 157.174 75.4154 158.491C75.938 160.171 77.5862 161.215 79.0334 161.714C80.4404 162.259 82.0082 162.214 83.4152 161.487C84.5408 160.852 86.0684 159.263 85.3046 157.674C84.8624 156.811 83.8172 156.312 82.973 156.13C82.571 156.039 82.0886 156.403 81.8072 156.675C81.7268 156.766 81.0836 157.311 81.4052 157.447C82.973 158.037 84.7016 157.719 85.988 156.584C86.7518 155.949 87.596 154.859 87.395 153.724C87.2342 152.907 86.5508 152.362 85.9478 151.999C85.4654 151.726 84.983 151.499 84.4604 151.363C84.0986 151.272 83.576 151.636 83.2946 151.908C83.2142 151.953 82.571 152.589 82.8926 152.68C84.6212 153.134 86.9126 152.135 87.6764 150.228C88.1186 149.093 88.0784 147.731 87.2744 146.823C86.5508 146.097 85.6262 145.643 84.6614 145.507C84.0182 145.37 83.3348 145.28 82.6916 145.28L82.8926 145.461V140.83C82.8926 140.694 82.8122 140.649 82.6916 140.649C80.6012 141.057 78.4304 142.646 77.4656 144.78L79.154 143.827L76.2194 139.287C75.6164 138.197 74.933 137.198 74.2094 136.245L66.1694 126.983L63.3152 123.715C62.9534 123.306 61.3856 124.623 61.6268 124.895L68.6618 132.976L72.2798 137.153C72.923 137.97 73.4858 138.787 74.0486 139.695L77.4656 144.962C77.747 145.416 78.9932 144.326 79.154 144.008C79.355 143.554 79.5962 143.1 79.9178 142.737L80.1188 142.556C80.1188 142.556 80.36 142.329 80.2796 142.419C80.3198 142.419 80.5208 142.238 80.4404 142.329C80.5208 142.283 80.561 142.238 80.6414 142.238H80.7218C80.7218 142.192 80.963 142.102 80.963 142.102C81.1238 142.056 80.8826 142.102 81.0434 142.056H81.2042C81.2846 141.965 81.767 141.875 81.4052 141.92L81.2042 141.738V146.324C81.2042 146.46 81.2846 146.505 81.4052 146.505C82.6112 146.505 83.777 146.778 84.8624 147.368C85.586 147.731 86.1086 148.503 86.2292 149.411C86.2694 150.001 86.189 150.637 85.9478 151.136C85.8674 151.318 85.6262 151.499 85.8674 151.318L85.988 151.227C85.988 151.227 85.8674 151.318 85.9478 151.227C85.8674 151.272 86.0282 151.136 85.9478 151.227H85.8674C85.385 151.363 84.9026 151.363 84.4604 151.227L82.8926 152.544C83.8976 152.816 85.586 153.497 85.7066 154.859C85.7066 155.358 85.5458 155.812 85.2644 156.221C85.2644 156.176 85.5056 156.176 85.2644 156.221C85.0634 156.266 84.8624 156.312 84.6212 156.312C84.0584 156.312 83.4956 156.221 82.973 156.039L81.4052 157.356C81.968 157.492 82.5308 157.719 83.0132 158.128C83.375 158.4 83.6162 158.809 83.7368 159.308C83.777 159.581 83.7368 159.853 83.6564 160.125C83.6162 160.307 83.4554 160.716 83.375 160.716C83.4554 160.67 83.5358 160.625 83.576 160.534C83.5358 160.534 83.4956 160.579 83.4152 160.579C83.1338 160.67 82.8926 160.67 82.6112 160.67C82.0082 160.67 81.4052 160.579 80.8424 160.398C79.6364 160.08 78.551 159.354 77.7068 158.309C77.2244 157.628 76.8626 156.766 77.144 155.903C77.2244 155.676 77.3048 155.495 77.4656 155.313C77.5862 155.131 77.4656 155.313 77.5058 155.268C77.6666 155.131 77.3852 155.358 77.4254 155.358C77.4656 155.358 78.149 154.723 77.8274 154.587C76.1792 153.951 74.531 153.27 72.8828 152.544C69.4658 151.045 66.1292 149.366 62.873 147.459C61.265 146.505 59.6972 145.461 58.25 144.281C57.044 143.373 55.9988 142.283 55.1546 140.967C53.1446 137.743 54.9938 133.703 56.843 130.979C57.9284 129.39 59.1344 127.937 60.461 126.62C60.9434 126.121 61.466 125.621 61.9484 125.167L62.1092 125.031C61.9484 125.167 62.1494 124.986 62.1092 125.031L62.3504 124.804L62.7122 124.486L62.8328 124.396C62.9936 124.259 63.5162 123.851 63.2348 123.624C62.9534 123.397 62.2298 124.032 62.0288 124.169Z" fill="#20044E"/>
<path d="M77.546 149.139C76.34 149.774 75.8576 151.363 76.1792 152.771C76.541 154.587 77.8676 155.812 79.2344 156.63C79.6364 156.857 79.6364 156.176 79.556 155.949C79.4354 155.449 79.1138 154.995 78.7118 154.723C78.5108 154.587 78.3098 154.45 78.149 154.314C78.0284 154.223 77.948 154.133 77.8274 154.087L77.6666 153.951H77.6264C77.6264 153.906 77.5058 153.769 77.5058 153.769L77.4254 153.679H77.4656C77.4254 153.679 77.3852 153.633 77.345 153.542C77.2646 153.452 77.4656 153.724 77.345 153.542C77.2244 153.361 77.3852 153.679 77.345 153.542C77.2646 153.497 77.3048 153.406 77.345 153.542C77.3048 153.452 77.3048 153.406 77.3048 153.315C77.3048 153.406 77.345 153.452 77.3048 153.315V153.088C77.3048 152.952 77.3048 152.861 77.345 152.725C77.3852 152.498 77.4656 152.271 77.5862 152.09C77.7872 151.636 78.149 151.318 78.551 151.091C78.6716 151.045 78.6716 150.728 78.6716 150.637C78.6314 150.364 78.551 150.092 78.4304 149.865C78.2696 149.593 77.9078 148.957 77.546 149.139Z" fill="#20044E"/>
<path d="M77.9882 145.098C77.0636 145.916 76.5812 147.278 76.742 148.594C76.9832 149.956 78.0686 150.819 79.0334 151.545C79.4756 151.908 81.1238 150.683 80.6816 150.365C79.8374 149.729 78.8726 149.003 78.5912 147.777C78.4706 147.278 78.4706 146.733 78.5912 146.233C78.6314 146.006 78.752 145.779 78.8324 145.552C78.8726 145.507 78.8726 145.462 78.9128 145.416L78.9932 145.28L79.0736 145.189C79.1138 145.144 79.2746 145.008 79.1138 145.144C79.2746 144.962 79.6766 144.508 79.2344 144.463C78.7922 144.554 78.3098 144.735 77.9882 145.098ZM120.52 152.408C121.083 156.585 124.178 160.035 123.856 164.393C123.816 164.938 124.58 164.847 124.861 164.757C125.304 164.62 125.665 164.166 125.706 163.622C125.987 159.218 122.932 155.813 122.369 151.636C122.248 150.637 120.399 151.545 120.52 152.408ZM84.5408 160.988V170.976C84.5408 171.567 84.983 172.021 85.4654 172.021C85.9076 172.066 86.5508 171.748 86.5508 171.158V161.17C86.5508 160.58 86.1086 160.126 85.6262 160.126C85.184 160.08 84.5408 160.398 84.5408 160.988ZM97.2038 171.294C99.4148 174.109 101.787 176.788 104.319 179.239C104.641 179.557 105.284 179.557 105.686 179.557C106.088 179.557 106.41 179.466 106.088 179.148C103.636 176.742 101.304 174.154 99.1736 171.385C98.9324 171.067 98.3294 171.022 97.9676 170.976C97.847 170.976 97.0028 171.022 97.2038 171.294ZM89.1236 84.7617C89.3246 84.0353 89.7668 83.4451 90.3296 83.0365C90.41 82.9911 89.8874 82.4009 89.8472 82.4009C89.7266 82.2647 89.606 82.1285 89.4452 82.0377C89.405 81.9923 89.2844 81.9015 89.2442 81.9469C88.6814 82.3101 88.2392 82.9457 88.0382 83.6721C88.0382 83.7175 88.1186 83.8537 88.1588 83.8991L88.5206 84.3077C88.6412 84.4439 88.7618 84.5801 88.9226 84.6709C88.9226 84.6255 89.1236 84.8071 89.1236 84.7617Z" fill="#20044E"/>
<path d="M134.429 194.493C141.156 194.493 146.61 188.334 146.61 180.737C146.61 173.139 141.156 166.98 134.429 166.98C127.702 166.98 122.249 173.139 122.249 180.737C122.249 188.334 127.702 194.493 134.429 194.493Z" fill="#20044E"/>
<path d="M145.605 180.646C145.605 186.003 142.67 190.816 138.288 192.723C133.826 194.539 128.841 193.04 125.826 188.909C122.811 184.732 122.409 178.876 124.821 174.199C127.997 168.207 134.871 166.254 140.178 169.841C143.554 172.156 145.605 176.242 145.605 180.646C145.605 185.05 146.007 181.736 146.529 181.736C146.971 181.781 147.615 181.418 147.615 180.828C147.574 172.565 141.665 165.937 134.349 165.937C127.032 165.937 126.751 167.889 124.258 171.294C120.721 176.106 120.238 182.916 123.052 188.273C126.791 195.356 134.911 197.626 141.183 193.404C144.479 191.179 146.77 187.411 147.414 183.098C147.534 182.326 147.574 181.6 147.574 180.828C147.574 180.056 147.172 179.738 146.65 179.738C146.248 179.693 145.645 180.056 145.605 180.646Z" fill="#20044E"/>
<path d="M128.68 181.645L133.022 185.731C133.223 185.913 133.745 185.731 133.906 185.595C134.228 185.459 134.509 185.187 134.71 184.869L139.615 173.473C139.816 173.019 139.253 172.974 139.012 173.065C138.529 173.156 138.127 173.473 137.886 173.973L132.982 185.368L134.67 184.506L130.328 180.42C129.846 179.966 128.158 181.146 128.68 181.645Z" fill="white"/>
</svg>
