<svg width="25" height="25" viewBox="0 0 25 25" fill="none" xmlns="http://www.w3.org/2000/svg">
<path d="M11.6562 1.41602L4.36458 4.6556C3.61458 4.98893 3.125 5.73893 3.125 6.56185V11.4577C3.125 17.2389 7.125 22.6452 12.5 23.9577C17.875 22.6452 21.875 17.2389 21.875 11.4577V6.56185C21.875 5.73893 21.3854 4.98893 20.6354 4.6556L13.3438 1.41602C12.8125 1.17643 12.1875 1.17643 11.6562 1.41602ZM9.67708 16.9681L6.97917 14.2702C6.88273 14.1737 6.80623 14.0593 6.75403 13.9332C6.70184 13.8072 6.67498 13.6722 6.67498 13.5358C6.67498 13.3994 6.70184 13.2644 6.75403 13.1384C6.80623 13.0124 6.88273 12.8979 6.97917 12.8014C7.07561 12.705 7.1901 12.6285 7.3161 12.5763C7.4421 12.5241 7.57716 12.4972 7.71354 12.4972C7.84993 12.4972 7.98498 12.5241 8.11098 12.5763C8.23699 12.6285 8.35148 12.705 8.44792 12.8014L10.4167 14.7598L16.5417 8.63477C16.6381 8.53833 16.7526 8.46183 16.8786 8.40963C17.0046 8.35744 17.1397 8.33058 17.276 8.33058C17.4124 8.33058 17.5475 8.35744 17.6735 8.40963C17.7995 8.46183 17.914 8.53833 18.0104 8.63477C18.1069 8.7312 18.1834 8.8457 18.2355 8.9717C18.2877 9.0977 18.3146 9.23275 18.3146 9.36914C18.3146 9.50553 18.2877 9.64058 18.2355 9.76658C18.1834 9.89259 18.1069 10.0071 18.0104 10.1035L11.1458 16.9681C11.0495 17.0647 10.935 17.1413 10.809 17.1935C10.683 17.2458 10.5479 17.2727 10.4115 17.2727C10.275 17.2727 10.1399 17.2458 10.0139 17.1935C9.88792 17.1413 9.77345 17.0647 9.67708 16.9681Z" fill="#368F8B"/>
</svg>
